<?xml version="1.0" encoding="UTF-8"?>
<!-- Generator: visioncortex VTracer 0.6.12 -->
<svg version="1.1" xmlns="http://www.w3.org/2000/svg" width="512" height="512">
<path d="M0 0 C168.96 0 337.92 0 512 0 C512 168.96 512 337.92 512 512 C343.04 512 174.08 512 0 512 C0 343.04 0 174.08 0 0 Z " fill="#FBFBFB" transform="translate(0,0)"/>
<path d="M0 0 C4.99 0.33 7.44 1.74 11.06 5.12 C11.47 5.5 11.47 5.5 13.54 7.38 C19.21 13.41 22.02 18.99 24.31 26.94 C24.58 27.81 24.84 28.69 25.11 29.59 C25.75 31.72 26.38 33.86 27 36 C31.29 36.33 35.58 36.66 40 37 C34.79 23.97 34.79 23.97 31 19 C30.61 18.48 30.61 18.48 28.62 15.88 C25.88 12.87 23.45 11.09 20 9 C20.33 7.68 20.66 6.36 21 5 C22.7 4.29 22.7 4.29 25 4 C36.13 10.21 42.54 21.47 47 33 C47.05 33.72 47.1 34.44 47.15 35.18 C48 37 48 37 51.32 38.24 C52.78 38.61 54.23 38.97 55.69 39.31 C73.71 44.17 87.47 53.03 97.39 69.05 C100.93 75.53 102.86 81.8 103.98 89.07 C105.21 96.91 107.08 101.56 113 107 C114.03 108.31 115.03 109.64 116 111 C116.66 110.34 117.32 109.68 118 109 C120.28 108.73 120.28 108.73 122.94 108.75 C123.81 108.74 124.69 108.74 125.59 108.73 C128 109 128 109 131 111 C131.86 107.92 132.25 104.97 132.5 101.79 C132.58 100.79 132.66 99.79 132.75 98.77 C132.83 97.73 132.91 96.69 133 95.62 C133.48 89.7 133.97 83.86 135 78 C135.11 76.44 135.17 74.88 135.19 73.31 C135.2 72.57 135.22 71.82 135.23 71.05 C135 69 135 69 133 66 C133.22 59.9 133.22 59.9 135.69 57.06 C138.74 55.66 140.68 55.52 144 56 C146.38 57.56 146.38 57.56 148 60 C148.44 63.56 148.44 63.56 148 67 C147.51 67.48 147.03 67.97 146.53 68.47 C144.68 70.32 144.48 71.37 144.12 73.93 C144.01 74.72 143.89 75.5 143.77 76.31 C143.72 76.73 143.72 76.73 143.44 78.88 C143.31 79.75 143.19 80.63 143.06 81.53 C141.95 89.77 141.15 98.04 140.43 106.33 C140.06 110.57 139.55 114.78 139 119 C139.54 119.02 139.54 119.02 142.29 119.15 C143.73 119.22 145.18 119.3 146.62 119.38 C147.34 119.41 148.05 119.44 148.79 119.47 C155.63 119.85 160.88 121.16 166 126 C168.52 129.48 168.16 132.82 168 137 C168.64 137.31 169.28 137.62 169.94 137.94 C172 139 172 139 173 140 C172.96 142.89 172.85 145.74 172.69 148.62 C172.65 149.42 172.62 150.22 172.58 151.04 C172.31 155.96 171.83 160.39 170 165 C169.33 165.31 168.66 165.62 167.97 165.94 C166 167 166 167 165.39 168.82 C165.36 169.19 165.36 169.19 165.23 171.05 C165.16 171.88 165.09 172.72 165.01 173.58 C164.96 174.48 164.9 175.39 164.84 176.32 C164.8 176.79 164.8 176.79 164.61 179.15 C164.37 182.14 164.15 185.13 163.94 188.12 C163.72 191.1 163.49 194.07 163.25 197.04 C163.11 198.89 162.97 200.74 162.85 202.59 C162.37 208.74 161.53 215 157.41 219.88 C148.03 225.78 135.19 222.95 124.62 222.12 C123.5 222.05 122.38 221.97 121.22 221.89 C105.7 220.7 105.7 220.7 100 215 C96.36 209.74 96.75 205.18 97 199 C94.03 199.99 91.06 200.98 88 202 C87.97 202.68 87.95 203.37 87.92 204.07 C86.38 231.47 80.69 261.91 59.66 280.92 C56.58 283.33 53.41 285.09 50 287 C50.81 287.02 51.63 287.04 52.47 287.06 C60.29 287.26 68.11 287.47 75.93 287.68 C79.95 287.79 83.96 287.89 87.98 287.99 C103.95 288.4 119.91 288.85 135.86 289.82 C136.43 289.85 136.43 289.85 139.3 289.99 C145.62 290.43 149.79 291.34 155 295 C155.37 301.33 155.37 301.33 153.8 304.21 C152 306 152 306 149.72 306.47 C148.84 306.46 147.97 306.44 147.06 306.43 C146.08 306.42 145.11 306.41 144.1 306.4 C143.59 306.39 143.59 306.39 141 306.31 C140.01 306.3 139.02 306.29 138 306.28 C133.36 306.21 128.79 305.99 124.18 305.52 C116.52 304.8 108.86 304.66 101.18 304.46 C99.58 304.42 97.98 304.38 96.38 304.33 C92.21 304.22 88.04 304.11 83.87 304 C79.6 303.89 75.33 303.78 71.06 303.66 C62.7 303.44 54.35 303.22 46 303 C46.33 303.5 46.33 303.5 48 306 C47.46 310.54 47.46 310.54 46 312 C38.91 312.47 38.91 312.47 35.69 310.81 C33.74 308.72 32.41 306.48 31 304 C30.67 304 30.34 304 30 304 C30.02 305.13 30.04 306.27 30.06 307.44 C30 311 30 311 29 312 C24 312.38 20.99 312.11 17 309 C14 305.59 14 305.59 14 303 C9.38 303.33 4.76 303.66 0 304 C0.33 304.33 0.66 304.66 1 305 C0.71 307.34 0.38 309.67 0 312 C-1.44 312.05 -2.87 312.09 -4.31 312.12 C-5.11 312.15 -5.91 312.17 -6.74 312.2 C-9 312 -9 312 -12 310 C-12 309.34 -12 308.68 -12 308 C-12.66 308 -13.32 308 -14 308 C-14.33 307.5 -14.33 307.5 -16 305 C-15.96 305.78 -15.92 306.57 -15.88 307.38 C-16 310 -16 310 -18 312 C-22.98 312.47 -26.01 312.08 -30 309 C-30.66 308.01 -31.32 307.02 -32 306 C-34.56 305.64 -34.56 305.64 -37.79 305.67 C-38.96 305.68 -40.13 305.68 -41.33 305.69 C-42.56 305.71 -43.79 305.73 -45.06 305.75 C-46.27 305.76 -47.47 305.76 -48.71 305.77 C-54.56 305.82 -60.31 306.03 -66.12 306.76 C-76.98 308.13 -76.98 308.13 -81.69 305.5 C-83.69 301.69 -83.54 299.29 -83 295 C-78.93 290.65 -73.66 290.75 -68.05 290.46 C-67.28 290.42 -66.51 290.38 -65.71 290.33 C-63.24 290.2 -60.78 290.07 -58.31 289.94 C-56.64 289.85 -54.97 289.75 -53.29 289.66 C-49.2 289.44 -45.1 289.22 -41 289 C-41.63 288.77 -42.26 288.54 -42.91 288.3 C-58.09 282.51 -58.09 282.51 -61.57 275.52 C-62.31 273.77 -63.01 272.02 -63.69 270.25 C-64.06 269.33 -64.44 268.4 -64.82 267.45 C-67.67 260.28 -70.02 253.01 -72.03 245.57 C-73 242 -73 242 -73.99 239.23 C-77.54 227.87 -77.32 215.34 -77.26 203.55 C-77.25 201.13 -77.26 198.72 -77.27 196.31 C-77.29 181.46 -76.01 166.87 -72.69 152.38 C-72.47 151.41 -72.25 150.44 -72.03 149.45 C-69.14 136.85 -65.31 124.8 -60 113 C-59.86 112.67 -59.86 112.67 -59.13 111.03 C-53.06 97.33 -45.62 85.52 -36 74 C-35.72 73.66 -35.72 73.66 -34.33 71.92 C-29.54 66.13 -23.9 61.61 -18 57 C-17.38 56.48 -16.75 55.95 -16.11 55.41 C-11.62 51.76 -6.65 49.05 -1.56 46.31 C-0.86 45.93 -0.15 45.55 0.57 45.16 C5.57 42.54 10.61 40.66 16 39 C16.99 38.67 17.98 38.34 19 38 C16.03 25.36 12.16 14.93 0.72 7.63 C-1 6 -1 6 -1.32 3.37 C-1 1 -1 1 0 0 Z " fill="#087856" transform="translate(204,89)"/>
<path d="M0 0 C1.06 -0.01 2.11 -0.01 3.2 -0.02 C8.22 0.03 11.92 0.27 16.56 2.31 C18.08 2.7 19.6 3.07 21.12 3.44 C31.68 6.61 39.17 13.25 45.72 21.89 C47.56 24.31 47.56 24.31 49.14 25.66 C51.43 28.32 52.22 31.58 53.25 34.88 C53.36 35.22 53.36 35.22 53.93 36.95 C55.56 42 55.56 42 55.56 44.31 C51.18 43.49 46.88 42.41 42.56 41.31 C40.63 44.87 39.34 48.61 38.06 52.44 C37.95 52.77 37.95 52.77 37.39 54.46 C35.92 58.94 34.84 63.38 34.02 68.03 C33.11 72.53 31.78 77.14 29.53 81.15 C28.44 83.59 28.33 85.21 28.37 87.86 C28.37 88.7 28.38 89.55 28.39 90.42 C28.4 91.29 28.42 92.16 28.44 93.06 C28.45 93.95 28.46 94.84 28.46 95.75 C28.49 97.94 28.52 100.13 28.56 102.31 C30.87 102.97 33.18 103.63 35.56 104.31 C35.56 104.97 35.56 105.63 35.56 106.31 C39.19 107.3 42.82 108.29 46.56 109.31 C46.74 113.86 46.56 117.19 44.56 121.31 C37.31 121.56 37.31 121.56 33.73 120.37 C29.17 118.85 24.56 118.45 19.8 117.88 C16.56 117.31 16.56 117.31 14.61 116.33 C12.51 115.29 10.79 114.89 8.49 114.5 C2.83 113.31 -2.09 110.91 -7.25 108.38 C-8.18 107.93 -9.1 107.49 -10.06 107.03 C-16.88 103.74 -16.88 103.74 -19.53 101.74 C-21.99 99.9 -24.51 99.18 -27.44 98.31 C-27.44 97.65 -27.44 96.99 -27.44 96.31 C-43.61 93.35 -54.74 92.96 -68.44 102.31 C-69.1 102.31 -69.76 102.31 -70.44 102.31 C-70.71 102.9 -70.98 103.49 -71.26 104.09 C-72.42 106.28 -73.71 107.93 -75.31 109.81 C-82.94 119.77 -84.33 133.16 -83.44 145.31 C-80.89 161.38 -74.18 174.95 -62.44 186.31 C-61.68 187.05 -60.93 187.79 -60.15 188.56 C-54.87 193.5 -49.98 198.08 -42.5 198.46 C-32.47 197.99 -23.04 195.5 -14.44 190.31 C-12.41 189.5 -10.37 188.73 -8.31 188 C-1.24 185.34 5.21 181.95 11.66 178.04 C15.04 176.01 16.49 175.31 20.56 175.31 C20.89 174.32 21.22 173.33 21.56 172.31 C23.16 171.07 23.16 171.07 25.19 169.88 C25.9 169.45 26.62 169.02 27.36 168.59 C27.72 168.38 27.72 168.38 29.56 167.31 C30.23 166.91 30.89 166.51 31.58 166.1 C36.29 163.31 36.29 163.31 38.56 163.31 C37.85 176.21 35.8 189.08 31.56 201.31 C31.23 202.36 30.89 203.41 30.54 204.49 C26.15 217.22 18.02 225.34 6.56 232.31 C-1.61 236.28 -10.43 239.1 -19.44 240.31 C-20.69 240.49 -21.94 240.66 -23.23 240.84 C-36.92 242.51 -49.98 240.79 -63.44 238.31 C-63.44 237.65 -63.44 236.99 -63.44 236.31 C-64.55 236.23 -65.66 236.15 -66.81 236.06 C-72.09 235.4 -76.6 233.43 -81.44 231.31 C-82.16 231.07 -82.89 230.83 -83.64 230.58 C-88.55 228.74 -90.35 226.27 -92.75 221.62 C-96.73 212.71 -99.18 203.65 -101.47 194.18 C-102.08 191.75 -102.75 189.33 -103.5 186.95 C-105.51 179.18 -105.6 171.19 -105.61 163.2 C-105.61 162.27 -105.61 161.34 -105.62 160.39 C-105.62 158.43 -105.62 156.48 -105.62 154.53 C-105.62 151.58 -105.64 148.64 -105.66 145.7 C-105.7 132.21 -105.01 119.44 -101.06 106.44 C-100.62 104.91 -100.17 103.37 -99.73 101.84 C-99.51 101.09 -99.29 100.33 -99.06 99.55 C-98.27 96.72 -97.59 93.87 -96.91 91.01 C-94.42 80.47 -91.05 70.61 -85.44 61.31 C-83.73 58 -82.08 54.66 -80.44 51.31 C-79.78 51.31 -79.12 51.31 -78.44 51.31 C-78.19 50.62 -77.94 49.92 -77.69 49.21 C-76.25 45.87 -74.45 43.02 -72.44 40 C-72.09 39.47 -72.09 39.47 -70.31 36.76 C-69.69 35.95 -69.07 35.15 -68.44 34.31 C-67.78 34.31 -67.12 34.31 -66.44 34.31 C-66.11 33.32 -65.78 32.33 -65.44 31.31 C-64.78 31.31 -64.12 31.31 -63.44 31.31 C-63.27 30.82 -63.27 30.82 -62.44 28.31 C-60.78 26.97 -59.11 25.64 -57.44 24.31 C-57.12 23.9 -57.12 23.9 -55.5 21.81 C-53.12 18.92 -50.66 17.2 -47.44 15.31 C-46.78 15.31 -46.12 15.31 -45.44 15.31 C-45.44 14.65 -45.44 13.99 -45.44 13.31 C-38.69 9.31 -31.79 6.05 -24.44 3.31 C-24.01 3.15 -24.01 3.15 -21.85 2.33 C-14.65 0.08 -7.48 0.03 0 0 Z " fill="#10B47F" transform="translate(242.4375,135.6875)"/>
<path d="M0 0 C6.46 0.07 12.36 1.3 18.52 3.26 C18.52 3.92 18.52 4.58 18.52 5.26 C19.16 5.51 19.8 5.75 20.46 6.01 C24.52 7.67 28.51 9.46 32.52 11.26 C32.52 11.92 32.52 12.58 32.52 13.26 C34.57 13.93 36.63 14.61 38.69 15.28 C40.58 15.94 42.46 16.64 44.32 17.4 C55.6 21.85 67.33 23.7 79.24 25.77 C81.52 26.26 81.52 26.26 82.52 27.26 C85.02 27.47 87.51 27.64 90.02 27.76 C97.38 28.12 97.38 28.12 98.52 29.26 C101 29.54 103.48 29.71 105.97 29.88 C108.54 30.26 110.28 30.97 112.52 32.26 C111.91 38.65 111.91 38.65 110.33 41.07 C107.88 42.68 105.3 43.34 102.52 44.26 C95.65 46.93 89 49.91 82.48 53.34 C80.52 54.26 80.52 54.26 78.52 54.26 C78.52 54.92 78.52 55.58 78.52 56.26 C76.67 57.56 76.67 57.56 74.12 59.02 C73.66 59.28 73.66 59.28 71.34 60.63 C70.88 60.9 70.88 60.9 68.52 62.26 C66.92 63.23 65.32 64.21 63.73 65.19 C55.87 69.99 48.01 74.7 39.77 78.82 C39.15 79.13 38.53 79.44 37.89 79.76 C26.62 85.26 26.62 85.26 20.52 85.26 C20.52 85.92 20.52 86.58 20.52 87.26 C5.73 91.98 5.73 91.98 -0.48 90.26 C-10.54 84.2 -20.67 75.4 -24.23 63.82 C-24.31 63.31 -24.4 62.79 -24.48 62.26 C-25.14 62.26 -25.8 62.26 -26.48 62.26 C-27.13 60.2 -27.78 58.14 -28.42 56.07 C-28.78 54.92 -29.14 53.78 -29.51 52.59 C-32.75 41.5 -33.48 28.39 -28.36 17.81 C-28.07 17.3 -27.78 16.79 -27.48 16.26 C-26.82 16.26 -26.16 16.26 -25.48 16.26 C-25.43 15.97 -25.43 15.97 -25.14 14.48 C-23.79 9.93 -20.35 6.4 -16.34 3.96 C-14.95 3.27 -13.54 2.61 -12.12 1.99 C-7.97 0.15 -4.71 0.02 0 0 Z " fill="#06B0CF" transform="translate(197.482421875,236.740234375)"/>
<path d="M0 0 C1.54 0.15 3.08 0.3 4.67 0.45 C8.95 0.84 13.23 1.15 17.52 1.39 C18.62 1.46 19.73 1.53 20.87 1.6 C23.14 1.74 25.41 1.87 27.68 1.99 C35.29 2.49 40.45 3.45 46 9 C46.21 11.52 46.28 13.91 46.25 16.44 C46.25 17.19 46.24 17.94 46.24 18.72 C46.14 25.15 45.53 31.48 44.79 37.87 C43.86 45.9 43.39 53.93 43 62 C42.34 62 41.68 62 41 62 C41 68.93 41 75.86 41 83 C40.34 83 39.68 83 39 83 C39.08 84.24 39.17 85.48 39.25 86.75 C39.44 89.57 39.12 90.79 37.66 93.25 C33.4 96.05 29.1 95.46 24.12 95.31 C23.14 95.3 22.16 95.29 21.15 95.28 C16.31 95.21 11.77 94.83 7 94 C5.62 93.95 4.25 93.91 2.87 93.89 C2.15 93.88 1.42 93.86 0.67 93.85 C-0.82 93.82 -2.32 93.82 -3.81 93.83 C-8.12 93.71 -9.61 93.33 -13.01 90.41 C-15.33 86.43 -15.53 84.19 -15.31 79.62 C-15.29 79 -15.29 79 -15.18 75.85 C-15.12 74.91 -15.06 73.97 -15 73 C-14.03 72.71 -13.06 72.42 -12.06 72.12 C-9 71 -9 71 -8 69 C-7.34 69 -6.68 69 -6 69 C-6 68.34 -6 67.68 -6 67 C-5.2 67.09 -4.41 67.18 -3.59 67.28 C0.07 67.69 3.72 68.09 7.38 68.5 C8.63 68.64 9.88 68.79 11.17 68.93 C18.15 69.7 24.98 70.22 32 70 C32.17 69.5 32.17 69.5 33 67 C26.89 66.5 26.89 66.5 -4 64 C-4.33 62.35 -4.33 62.35 -6 54 C-7.63 52.62 -9.29 51.28 -11 50 C-11.56 46.89 -11.56 46.89 -11.44 43.25 C-11.39 41.93 -11.35 40.62 -11.31 39.26 C-10.88 32.47 -9.99 25.73 -9 19 C-8.01 18.67 -7.02 18.34 -6 18 C-5.67 16.84 -5.34 15.69 -5 14.5 C-4.67 13.34 -4.34 12.19 -4 11 C-3.01 10.67 -2.02 10.34 -1 10 C-0.67 6.7 -0.34 3.4 0 0 Z " fill="#1A2838" transform="translate(321,211)"/>
<path d="M0 0 C1.53 0.05 3.06 0.1 4.59 0.14 C8.6 0.27 12.62 0.42 16.63 0.59 C19.83 0.71 23.03 0.82 26.22 0.92 C36.18 1.23 46.12 1.64 56.06 2.12 C56.77 2.15 57.47 2.19 58.2 2.22 C62.78 2.43 67.36 2.69 71.94 2.96 C73.07 3.02 74.21 3.07 75.37 3.13 C81.7 3.55 85.85 4.46 91.06 8.12 C91.43 14.45 91.43 14.45 89.86 17.33 C88.06 19.12 88.06 19.12 85.79 19.59 C84.91 19.58 84.03 19.56 83.12 19.55 C82.15 19.54 81.17 19.53 80.16 19.52 C79.14 19.49 78.12 19.46 77.06 19.43 C76.07 19.42 75.08 19.41 74.06 19.4 C69.42 19.33 64.85 19.11 60.24 18.64 C52.59 17.92 44.92 17.78 37.24 17.59 C35.64 17.54 34.04 17.5 32.44 17.46 C28.27 17.34 24.1 17.23 19.93 17.13 C15.66 17.01 11.39 16.9 7.12 16.78 C-1.23 16.56 -9.59 16.34 -17.94 16.12 C-17.61 16.62 -17.61 16.62 -15.94 19.12 C-16.48 23.66 -16.48 23.66 -17.94 25.12 C-25.03 25.59 -25.03 25.59 -28.25 23.93 C-30.2 21.84 -31.53 19.61 -32.94 17.12 C-33.27 17.12 -33.6 17.12 -33.94 17.12 C-33.92 18.26 -33.9 19.39 -33.88 20.56 C-33.94 24.12 -33.94 24.12 -34.94 25.12 C-39.94 25.51 -42.94 25.23 -46.94 22.12 C-49.94 18.71 -49.94 18.71 -49.94 16.12 C-54.56 16.45 -59.18 16.78 -63.94 17.12 C-63.61 17.45 -63.28 17.78 -62.94 18.12 C-63.22 20.46 -63.56 22.8 -63.94 25.12 C-65.37 25.18 -66.81 25.21 -68.25 25.25 C-68.65 25.26 -68.65 25.26 -70.68 25.32 C-72.94 25.12 -72.94 25.12 -75.94 23.12 C-75.94 22.46 -75.94 21.8 -75.94 21.12 C-76.6 21.12 -77.26 21.12 -77.94 21.12 C-78.27 20.63 -78.27 20.63 -79.94 18.12 C-79.9 18.9 -79.86 19.69 -79.81 20.5 C-79.94 23.12 -79.94 23.12 -81.94 25.12 C-86.92 25.59 -89.95 25.2 -93.94 22.12 C-94.6 21.13 -95.26 20.14 -95.94 19.12 C-98.5 18.76 -98.5 18.76 -101.72 18.79 C-102.31 18.8 -102.31 18.8 -105.27 18.81 C-106.5 18.83 -107.73 18.85 -109 18.87 C-110.2 18.88 -111.41 18.88 -112.65 18.89 C-118.5 18.94 -124.25 19.15 -130.06 19.89 C-140.92 21.25 -140.92 21.25 -145.62 18.62 C-147.63 14.81 -147.48 12.41 -146.94 8.12 C-141.78 2.61 -133.4 3.53 -126.39 3.23 C-124.74 3.16 -123.1 3.07 -121.45 2.98 C-110.21 2.39 -100.34 3.24 -89.44 6.12 C-70.04 11.16 -44.11 13.16 -25.48 3.9 C-16.92 -0.25 -9.28 -0.42 0 0 Z " fill="#ED9A11" transform="translate(267.9375,375.87890625)"/>
<path d="M0 0 C1.02 0.97 2.03 1.97 3 3 C5.33 3.68 7.66 4.34 10 5 C11.35 5.98 12.68 6.98 14 8 C16.95 9.63 20.01 11.06 23.06 12.5 C23.91 12.9 24.77 13.31 25.64 13.72 C31.65 16.5 37.51 18.63 44 20 C45.31 20.35 46.63 20.71 47.94 21.06 C52.39 22.17 56.92 22.84 61.46 23.54 C64 24 64 24 66 25 C67.37 25.07 68.75 25.08 70.12 25.06 C70.76 25.05 70.76 25.05 74 25 C74.66 21.37 75.32 17.74 76 14 C75.28 13.85 75.28 13.85 71.62 13.06 C69.21 12.55 67.21 12.11 65 11 C65 10.34 65 9.68 65 9 C64.24 8.9 63.47 8.79 62.69 8.69 C59.8 7.95 58.74 7.38 57 5 C57 4.01 57 3.02 57 2 C57.66 2 58.32 2 59 2 C59 2.99 59 3.98 59 5 C59.66 5 60.32 5 61 5 C61 5.66 61 6.32 61 7 C68.92 7 76.84 7 85 7 C85 10.63 85 14.26 85 18 C84.34 18 83.68 18 83 18 C83 21.63 83 25.26 83 29 C85.64 28.67 88.28 28.34 91 28 C91.33 22.72 91.66 17.44 92 12 C92.99 12.66 93.98 13.32 95 14 C95.39 17.44 95.49 20.78 95.53 24.23 C95.59 26.16 95.79 28.08 96 30 C96.99 30.66 97.98 31.32 99 32 C99 32.66 99 33.32 99 34 C99.66 34 100.32 34 101 34 C101 38.62 101 43.24 101 48 C98.36 48 95.72 48 93 48 C93.47 47.28 93.95 46.56 94.44 45.81 C95.95 43.08 96.47 41.04 97 38 C96 37.87 95 37.73 93.97 37.6 C92.68 37.42 91.39 37.24 90.06 37.06 C88.77 36.89 87.49 36.71 86.16 36.54 C83 36 83 36 82 35 C79.5 34.79 77.01 34.62 74.5 34.5 C67.14 34.14 67.14 34.14 66 33 C64.3 32.64 62.59 32.34 60.88 32.05 C45.66 29.41 30.77 26.32 17 19 C17 18.34 17 17.68 17 17 C15.99 16.75 14.98 16.5 13.94 16.25 C9.87 15.1 6.6 13.2 3 11 C3 10.34 3 9.68 3 9 C2.57 9.02 2.57 9.02 0.38 9.12 C-3 9 -3 9 -5.71 8.01 C-9.54 6.83 -13.09 6.67 -17.06 6.69 C-17.41 6.68 -17.41 6.68 -19.17 6.64 C-23.68 6.63 -26.37 7.36 -30 10 C-31.01 10.62 -32.02 11.24 -33.06 11.88 C-36.99 14.72 -39.46 17.38 -41 22 C-41.66 22 -42.32 22 -43 22 C-49.28 36.88 -45.97 52.99 -42 68 C-41.34 68 -40.68 68 -40 68 C-39.48 69.13 -38.97 70.27 -38.44 71.44 C-33.3 81.52 -25.75 89.31 -16 95 C-10.03 96.48 -4.71 94.83 1 93 C2.32 93 3.64 93 5 93 C5 92.34 5 91.68 5 91 C5.34 90.9 5.34 90.9 7.06 90.41 C21.33 86.01 34.19 78.53 47 71 C47.33 71.99 47.66 72.98 48 74 C49.65 74 51.3 74 53 74 C53 77 53 77 51.79 78.57 C49.71 80.23 47.82 80.98 45.31 81.88 C41.16 83.45 37.63 85.35 33.92 87.78 C28.45 91.26 22.51 93.67 16.48 96 C14.21 96.92 12.07 97.97 9.88 99.06 C5.68 100.95 1.37 101.93 -3.12 102.81 C-3.79 102.95 -4.46 103.08 -5.15 103.22 C-12.39 104.53 -17.82 103.69 -23.83 99.64 C-28.15 96.37 -32.11 92.77 -36 89 C-36.36 88.66 -36.36 88.66 -38.17 86.91 C-49.22 75.43 -54.98 59.12 -55.44 43.31 C-54.93 29.32 -50.62 17.22 -41 7 C-29.16 -2.8 -14.69 -4.79 0 0 Z " fill="#037A5C" transform="translate(213,231)"/>
<path d="M0 0 C1.53 0.05 3.06 0.1 4.59 0.14 C8.6 0.27 12.62 0.42 16.63 0.59 C19.83 0.71 23.03 0.82 26.22 0.92 C36.18 1.23 46.12 1.64 56.06 2.12 C56.41 2.14 56.41 2.14 58.2 2.22 C62.78 2.43 67.36 2.69 71.94 2.96 C73.07 3.02 74.21 3.07 75.37 3.13 C81.7 3.55 85.85 4.46 91.06 8.12 C91.43 14.45 91.43 14.45 89.86 17.33 C88.06 19.12 88.06 19.12 85.79 19.59 C84.91 19.58 84.03 19.56 83.12 19.55 C82.15 19.54 81.17 19.53 80.16 19.52 C79.14 19.49 78.12 19.46 77.06 19.43 C76.07 19.42 75.08 19.41 74.06 19.4 C69.28 19.33 64.55 19.11 59.8 18.63 C52.65 17.93 45.49 17.8 38.31 17.62 C29.13 17.39 20 17.01 10.83 16.36 C4.27 15.94 -2.3 15.76 -8.88 15.56 C-10.25 15.52 -11.63 15.47 -13.01 15.43 C-16.32 15.32 -19.63 15.22 -22.94 15.12 C-25.94 9.5 -25.94 9.5 -25.94 6.12 C-26.6 5.79 -27.26 5.46 -27.94 5.12 C-18.55 0.17 -10.37 -0.47 0 0 Z " fill="#B15410" transform="translate(267.9375,375.87890625)"/>
<path d="M0 0 C2.38 1.56 2.38 1.56 4 4 C4.44 7.56 4.44 7.56 4 11 C3.51 11.48 3.03 11.97 2.53 12.47 C0.68 14.32 0.48 15.37 0.12 17.93 C0.06 18.32 0.06 18.32 -0.23 20.31 C-0.34 21.16 -0.45 22 -0.56 22.88 C-0.62 23.31 -0.62 23.31 -0.94 25.53 C-2.05 33.77 -2.85 42.04 -3.57 50.33 C-3.94 54.57 -4.45 58.78 -5 63 C-3.91 63.05 -2.83 63.1 -1.71 63.15 C-0.27 63.22 1.18 63.3 2.62 63.38 C2.98 63.39 2.98 63.39 4.79 63.47 C11.63 63.85 16.88 65.16 22 70 C24.52 73.48 24.16 76.82 24 81 C24.32 81.15 24.32 81.15 25.94 81.94 C28 83 28 83 29 84 C28.96 86.89 28.85 89.74 28.69 92.62 C28.65 93.42 28.62 94.22 28.58 95.04 C28.31 99.97 27.71 104.34 26 109 C23.62 110.62 23.62 110.62 21 111 C18.82 109.97 18.82 109.97 17 108 C16.83 104.8 16.83 104.8 17.25 100.88 C17.38 99.44 17.5 98.01 17.62 96.57 C17.68 95.82 17.75 95.08 17.82 94.31 C18.12 90.46 18.29 86.61 18.38 82.75 C18.41 82.04 18.45 81.32 18.49 80.59 C18.55 76.82 18.32 75.33 15.66 72.58 C11.84 70.31 8.78 69.82 4.41 69.54 C3.29 69.46 2.18 69.38 1.03 69.3 C-1.29 69.14 -3.61 68.99 -5.94 68.84 C-13.08 68.33 -19.99 67.45 -27 66 C-27.33 67.32 -27.66 68.64 -28 70 C-28 66.7 -28 63.4 -28 60 C-28.66 60 -29.32 60 -30 60 C-30 58.02 -30 56.04 -30 54 C-29.01 54 -28.02 54 -27 54 C-26.83 53.84 -26.83 53.84 -26 53 C-24.38 52.88 -22.75 52.82 -21.12 52.81 C-20.68 52.81 -20.68 52.81 -18.45 52.77 C-16 53 -16 53 -13 55 C-12.14 51.92 -11.75 48.97 -11.5 45.79 C-11.42 44.79 -11.33 43.79 -11.25 42.77 C-11.17 41.73 -11.08 40.69 -11 39.62 C-10.52 33.7 -10.03 27.86 -9 22 C-8.89 20.44 -8.83 18.88 -8.81 17.31 C-8.81 16.94 -8.81 16.94 -8.77 15.05 C-9 13 -9 13 -11 10 C-10.78 3.9 -10.78 3.9 -8.31 1.06 C-5.26 -0.34 -3.32 -0.48 0 0 Z " fill="#156A5A" transform="translate(348,145)"/>
<path d="M0 0 C4.88 -0.35 7.77 0.58 12 3 C12 3.66 12 4.32 12 5 C12.62 5.31 13.24 5.62 13.88 5.94 C15.25 6.62 16.62 7.31 18 8 C18 8.66 18 9.32 18 10 C18.66 10 19.32 10 20 10 C24.82 16.82 26.22 22.7 25 31 C23.32 36.42 20.35 40.34 16 44 C15.34 44 14.68 44 14 44 C14 44.66 14 45.32 14 46 C10.45 48.98 7.14 50.9 2.5 51.31 C1.68 51.21 0.85 51.11 0 51 C-0.03 50.47 -0.03 50.47 -0.19 47.81 C-1.14 43.33 -2.71 42.04 -6 39 C-6 38.01 -6 37.02 -6 36 C-6.66 36 -7.32 36 -8 36 C-7.51 31.65 -6.66 27.55 -5.56 23.31 C-4.22 18.13 -3.28 12.98 -2.53 7.69 C-1.99 4.94 -1.12 2.57 0 0 Z " fill="#EA9A0E" transform="translate(288,186)"/>
<path d="M0 0 C1.32 0.66 2.64 1.32 4 2 C3.59 13.31 3.06 24.6 2.12 35.88 C2.09 36.32 2.09 36.32 1.92 38.59 C1.38 44.77 0.56 50.98 -3.59 55.88 C-12.97 61.78 -25.81 58.95 -36.38 58.12 C-37.5 58.05 -38.62 57.97 -39.78 57.89 C-55.3 56.7 -55.3 56.7 -61 51 C-64.57 45.83 -64.32 41.04 -64 35 C-65.65 35.66 -67.3 36.32 -69 37 C-69 36.34 -69 35.68 -69 35 C-69.66 35 -70.32 35 -71 35 C-71.33 34.34 -71.66 33.68 -72 33 C-72.99 33 -73.98 33 -75 33 C-75.33 33.99 -75.66 34.98 -76 36 C-77.98 36 -79.96 36 -82 36 C-79.33 33.1 -76.63 31.65 -73.09 29.98 C-71.3 29.14 -69.55 28.2 -67.81 27.25 C-62.57 24.98 -56.56 25.83 -51 26 C-51 21.38 -51 16.76 -51 12 C-51.66 12 -52.32 12 -53 12 C-53 11.34 -53 10.68 -53 10 C-49.12 11.75 -49.12 11.75 -48 14 C-47.87 16.67 -47.96 19.32 -48 22 C-47.23 21.98 -46.47 21.95 -45.68 21.93 C-37.96 21.8 -30.42 22.21 -22.75 22.94 C-21.82 23.02 -20.89 23.11 -19.93 23.2 C-13.26 23.87 -13.26 23.87 -11 25 C-11.33 26.32 -11.66 27.64 -12 29 C-19.93 29.23 -27.63 28.51 -35.5 27.56 C-36.68 27.43 -37.86 27.29 -39.07 27.15 C-47.73 26.13 -47.73 26.13 -50 25 C-50 25.66 -50 26.32 -50 27 C-50.66 27 -51.32 27 -52 27 C-52.66 28.32 -53.32 29.64 -54 31 C-55.65 31 -57.3 31 -59 31 C-58.94 33.25 -58.85 35.5 -58.75 37.75 C-58.7 39 -58.66 40.26 -58.61 41.55 C-57.92 45.45 -56.94 46.48 -54 49 C-54 49.66 -54 50.32 -54 51 C-53.42 50.99 -53.42 50.99 -50.49 50.96 C-48.95 50.96 -47.41 50.95 -45.88 50.94 C-45.11 50.93 -44.35 50.92 -43.57 50.91 C-40.34 50.9 -37.33 50.94 -34.14 51.49 C-29.38 52.26 -24.64 52.22 -19.81 52.25 C-19.31 52.26 -19.31 52.26 -16.79 52.31 C-16.31 52.32 -16.31 52.32 -13.89 52.33 C-13.03 52.34 -12.16 52.35 -11.26 52.36 C-8.52 51.93 -7.66 51.18 -6 49 C-5.49 46.96 -5.49 46.96 -5.31 44.81 C-5.21 43.55 -5.11 42.3 -5 41 C-4.34 41 -3.68 41 -3 41 C-3 34.07 -3 27.14 -3 20 C-2.34 20 -1.68 20 -1 20 C-1.01 18.81 -1.02 17.62 -1.04 16.39 C-1.04 14.82 -1.05 13.25 -1.06 11.69 C-1.07 10.9 -1.08 10.12 -1.09 9.31 C-1.09 8.55 -1.09 7.79 -1.1 7.01 C-1.1 6.32 -1.11 5.62 -1.11 4.9 C-1 3 -1 3 0 0 Z " fill="#127156" transform="translate(365,253)"/>
<path d="M0 0 C4.76 2.63 7.05 6.26 8.75 11.38 C9.51 17.85 7.63 21.43 3.75 26.38 C1.02 29.58 -0.87 31.1 -5.02 31.92 C-10.62 32.29 -14.42 31.9 -18.81 28.25 C-22.8 24.12 -25.05 20.63 -25.56 14.81 C-25.05 9.16 -23.22 5.45 -19.25 1.38 C-12.73 -2.26 -6.79 -3.01 0 0 Z " fill="#ECF4F5" transform="translate(263.25,170.625)"/>
<path d="M0 0 C0.94 -0 1.89 -0.01 2.86 -0.01 C3.31 -0.01 3.31 -0.01 5.57 -0.01 C5.97 -0.01 5.97 -0.01 7.98 -0 C10.5 0.14 12.85 0.58 15.31 1.12 C14.65 1.45 13.99 1.79 13.31 2.12 C13.46 3.36 13.6 4.6 13.75 5.88 C13.83 6.57 13.91 7.27 14 7.98 C14.31 10.08 14.78 12.07 15.31 14.12 C10.53 14.56 5.75 14.99 0.96 15.41 C-0.66 15.55 -2.28 15.7 -3.9 15.84 C-28.92 18.11 -28.92 18.11 -33.38 15.62 C-35.38 11.81 -35.23 9.42 -34.69 5.12 C-27.55 -2.5 -9.7 0.03 0 0 Z " fill="#B15713" transform="translate(155.6875,378.875)"/>
<path d="M0 0 C0.33 0 0.66 0 1 0 C1.06 0.77 1.12 1.54 1.18 2.34 C1.27 3.34 1.35 4.34 1.44 5.38 C1.52 6.37 1.6 7.37 1.68 8.4 C2 11 2 11 3 13 C0.52 19.74 0.52 19.74 -2 21 C-2.49 23.4 -2.85 25.7 -3.12 28.12 C-3.17 28.48 -3.17 28.48 -3.38 30.28 C-5.44 49.13 -5.44 49.13 -3 54 C-4.95 53.45 -4.95 53.45 -7 52 C-7.61 48.74 -7.61 48.74 -7.75 44.88 C-7.81 43.59 -7.86 42.31 -7.92 40.99 C-7.95 40 -7.97 39.02 -8 38 C-8.33 38 -8.66 38 -9 38 C-9.66 41.96 -10.32 45.92 -11 50 C-13.64 50.33 -16.28 50.66 -19 51 C-19 47.37 -19 43.74 -19 40 C-18.34 40 -17.68 40 -17 40 C-17 36.37 -17 32.74 -17 29 C-17.45 29.04 -17.45 29.04 -19.71 29.25 C-26.97 29.87 -33.79 30.08 -41 29 C-41 28.34 -41 27.68 -41 27 C-41.66 27 -42.32 27 -43 27 C-43 25.02 -43 23.04 -43 21 C-42.34 21 -41.68 21 -41 21 C-41 19.35 -41 17.7 -41 16 C-39.68 15.67 -38.36 15.34 -37 15 C-37 11.7 -37 8.4 -37 5 C-35.68 4.67 -34.36 4.34 -33 4 C-33.66 6.97 -34.32 9.94 -35 13 C-34.34 13 -33.68 13 -33 13 C-31.97 14.65 -30.98 16.32 -30 18 C-29.44 18.45 -28.89 18.91 -28.31 19.38 C-26.18 22.02 -26.82 24.74 -27 28 C-18.81 26.23 -18.81 26.23 -15 23 C-14.34 23 -13.68 23 -13 23 C-13 22.34 -13 21.68 -13 21 C-10.88 19.05 -10.88 19.05 -8.12 16.88 C-7.22 16.15 -6.32 15.43 -5.38 14.68 C-3 13 -3 13 -1 13 C-1.01 12.23 -1.02 11.46 -1.04 10.66 C-1.04 9.66 -1.05 8.66 -1.06 7.62 C-1.07 6.63 -1.09 5.63 -1.1 4.6 C-1 2 -1 2 0 0 Z " fill="#097357" transform="translate(315,209)"/>
<path d="M0 0 C3.26 1.93 5.54 4 8.06 6.81 C8.72 7.47 9.38 8.13 10.06 8.81 C12.54 15.43 13.33 22.33 10.88 29.06 C8.78 32.24 6.66 35.02 4.06 37.81 C3.4 37.81 2.74 37.81 2.06 37.81 C2.06 38.47 2.06 39.13 2.06 39.81 C-2.09 41.81 -5.48 42.05 -10.06 42 C-11.28 41.99 -12.5 41.99 -13.76 41.98 C-16.94 41.81 -16.94 41.81 -19.94 40.81 C-19.94 40.15 -19.94 39.49 -19.94 38.81 C-20.56 38.73 -21.18 38.65 -21.81 38.56 C-23.94 37.81 -23.94 37.81 -25 35.81 C-25.31 35.15 -25.62 34.49 -25.94 33.81 C-26.93 33.48 -27.92 33.15 -28.94 32.81 C-32.92 27.35 -32.55 21.27 -31.94 14.81 C-30.24 8.35 -26.31 4.54 -20.94 0.81 C-14.68 -2.28 -6.54 -2.53 0 0 Z M-24.38 10.31 C-27.15 14.76 -27.38 18.58 -26.94 23.81 C-24.55 29.25 -21.34 34.05 -15.94 36.81 C-10.8 37.93 -6.16 38.06 -1.49 35.44 C3.54 31.27 6.65 27.03 7.5 20.44 C6.76 14.34 4.83 10.22 0 6.38 C-8.91 1.63 -17.43 3.19 -24.38 10.31 Z " fill="#067854" transform="translate(264.9375,165.1875)"/>
<path d="M0 0 C2.38 1.56 2.38 1.56 4 4 C4.44 7.56 4.44 7.56 4 11 C3.51 11.48 3.03 11.97 2.53 12.47 C0.68 14.32 0.48 15.37 0.12 17.93 C0.06 18.32 0.06 18.32 -0.23 20.31 C-0.34 21.16 -0.45 22 -0.56 22.88 C-0.62 23.31 -0.62 23.31 -0.94 25.53 C-2.05 33.77 -2.85 42.04 -3.57 50.33 C-3.94 54.57 -4.45 58.78 -5 63 C-7.31 62.67 -9.62 62.34 -12 62 C-12.13 54.34 -11.77 46.82 -11.06 39.19 C-11.02 38.69 -11.02 38.69 -10.8 36.17 C-10.37 31.4 -9.81 26.72 -9 22 C-8.89 20.44 -8.83 18.88 -8.81 17.31 C-8.8 16.57 -8.78 15.82 -8.77 15.05 C-9 13 -9 13 -11 10 C-10.78 3.9 -10.78 3.9 -8.31 1.06 C-5.26 -0.34 -3.32 -0.48 0 0 Z " fill="#292D3A" transform="translate(348,145)"/>
<path d="M0 0 C6.64 0.28 13.04 1.27 19.5 2.75 C20.19 2.89 20.89 3.04 21.6 3.19 C25.08 4.03 26.71 4.59 28.8 7.56 C29 7.96 29 7.96 30 10 C32.62 11.25 32.62 11.25 35 12 C35.16 12.17 35.16 12.17 36 13 C35.71 15.34 35.38 17.67 35 20 C33.56 20.05 32.13 20.09 30.69 20.12 C30.29 20.14 30.29 20.14 28.26 20.2 C26 20 26 20 23 18 C23 17.34 23 16.68 23 16 C22.34 16 21.68 16 21 16 C20.34 15.01 19.68 14.02 19 13 C19.04 13.78 19.08 14.57 19.12 15.38 C19 18 19 18 17 20 C12.02 20.47 8.99 20.08 5 17 C4.34 16.01 3.68 15.02 3 14 C0.62 13.49 0.62 13.49 -2.12 13.31 C-3.04 13.25 -3.95 13.18 -4.88 13.11 C-5.23 13.09 -5.23 13.09 -7 13 C-7 12.67 -7 12.34 -7 12 C-4.03 12 -1.06 12 2 12 C1.34 10.68 0.68 9.36 0 8 C-0.25 5.3 -0.09 2.72 0 0 Z " fill="#EE9C18" transform="translate(169,381)"/>
<path d="M0 0 C3.88 1.75 3.88 1.75 5 4 C5.13 6.67 5.04 9.32 5 12 C5.77 11.98 6.53 11.95 7.32 11.93 C15.04 11.8 22.58 12.21 30.25 12.94 C31.18 13.02 32.11 13.11 33.07 13.2 C39.74 13.87 39.74 13.87 42 15 C41.67 16.32 41.34 17.64 41 19 C33.07 19.23 25.37 18.51 17.5 17.56 C16.32 17.43 15.14 17.29 13.93 17.15 C5.27 16.13 5.27 16.13 3 15 C3 15.66 3 16.32 3 17 C2.34 17 1.68 17 1 17 C0.34 18.32 -0.32 19.64 -1 21 C-2.65 21 -4.3 21 -6 21 C-5.94 23.25 -5.85 25.5 -5.75 27.75 C-5.7 29 -5.66 30.26 -5.61 31.55 C-4.91 35.48 -3.93 36.44 -1 39 C-0.25 42.25 -0.25 42.25 0 45 C0.5 45.17 0.5 45.17 3 46 C-1.88 45.55 -4.52 44.48 -8 41 C-11.57 35.83 -11.32 31.04 -11 25 C-12.65 25.66 -14.3 26.32 -16 27 C-16 26.34 -16 25.68 -16 25 C-16.66 25 -17.32 25 -18 25 C-18.33 24.34 -18.66 23.68 -19 23 C-19.99 23 -20.98 23 -22 23 C-22.33 23.99 -22.66 24.98 -23 26 C-24.98 26 -26.96 26 -29 26 C-26.33 23.1 -23.63 21.65 -20.09 19.98 C-18.3 19.14 -16.55 18.2 -14.81 17.25 C-9.57 14.98 -3.56 15.83 2 16 C2 11.38 2 6.76 2 2 C1.34 2 0.68 2 0 2 C0 1.34 0 0.68 0 0 Z " fill="#0B7660" transform="translate(312,263)"/>
<path d="M0 0 C1.32 0.33 2.64 0.66 4 1 C3.67 2.32 3.34 3.64 3 5 C3.51 5.34 4.02 5.68 4.54 6.03 C13.34 12.23 18.31 19.91 22 30 C22 30.99 22 31.98 22 33 C17.71 33 13.42 33 9 33 C7.61 29.39 6.25 25.81 5.12 22.11 C3.01 15.23 0.35 9.74 -4 4 C-3.34 3.67 -2.68 3.34 -2 3 C-1.34 3.33 -0.68 3.66 0 4 C0 2.68 0 1.36 0 0 Z " fill="#F0F7F5" transform="translate(222,93)"/>
<path d="M0 0 C2 2 2 2 2.05 5.89 C1.96 7.49 1.86 9.09 1.75 10.69 C1.71 11.48 1.67 12.27 1.63 13.08 C1.33 17.99 0.69 22.37 -1 27 C-3.38 28.62 -3.38 28.62 -6 29 C-8.17 28 -8.17 28 -10 26 C-10.19 23.3 -10.15 21.1 -9.88 18.44 C-9.82 17.73 -9.76 17.01 -9.69 16.28 C-9.19 10.77 -8.33 5.37 -7 0 C-3.85 -1.05 -3.01 -1.07 0 0 Z " fill="#2DCC6F" transform="translate(375,227)"/>
<path d="M0 0 C0.99 2.64 1.98 5.28 3 8 C7.95 8.17 7.95 8.17 33 9 C33 9.33 33 9.66 33 10 C24.75 10 16.5 10 8 10 C8.33 10.5 8.33 10.5 10 13 C9.46 17.54 9.46 17.54 8 19 C0.91 19.47 0.91 19.47 -2.31 17.81 C-4.27 15.71 -5.64 13.52 -7 11 C-7.99 11.66 -8.98 12.32 -10 13 C-10 12.34 -10 11.68 -10 11 C-10.66 11 -11.32 11 -12 11 C-12 10.34 -12 9.68 -12 9 C-10.68 9 -9.36 9 -8 9 C-8.33 6.69 -8.66 4.38 -9 2 C-5.56 -0.29 -4.01 -0.18 0 0 Z " fill="#EB9B20" transform="translate(242,382)"/>
<path d="M0 0 C3.62 0.28 6.32 0.58 9.44 2.5 C11.8 6.27 11.87 9.68 11 14 C9.01 17.05 7.66 18.59 4.06 19.47 C-0.08 19.78 -1.62 19.31 -4.94 16.62 C-7.91 12.84 -8.39 10.82 -8 6 C-6.5 4.12 -6.5 4.12 -5 3 C-4.34 4.32 -3.68 5.64 -3 7 C-1.35 6.67 0.3 6.34 2 6 C1.49 3.83 1 2 0 0 Z " fill="#1A1E28" transform="translate(250,175)"/>
<path d="M0 0 C6.62 0.75 6.62 0.75 10 3 C10.47 4.18 10.95 5.35 11.44 6.56 C13 10 13 10 15.19 10.94 C15.79 10.96 16.38 10.98 17 11 C17 12.32 17 13.64 17 15 C17.66 15 18.32 15 19 15 C18.12 18.88 18.12 18.88 17 20 C12.01 20.38 9 20.09 5 17 C4.34 16.01 3.68 15.02 3 14 C0.62 13.49 0.62 13.49 -2.12 13.31 C-3.04 13.25 -3.95 13.18 -4.88 13.11 C-5.23 13.09 -5.23 13.09 -7 13 C-7 12.67 -7 12.34 -7 12 C-4.03 12 -1.06 12 2 12 C1.34 10.68 0.68 9.36 0 8 C-0.25 5.3 -0.09 2.72 0 0 Z " fill="#EF9C12" transform="translate(169,381)"/>
<path d="M0 0 C0.26 0.57 0.51 1.15 0.78 1.74 C2.12 4.21 3.67 6.05 5.56 8.12 C9.67 12.65 10.12 14.78 10 21 C10.66 21 11.32 21 12 21 C12 26.28 12 31.56 12 37 C10.68 36.67 9.36 36.34 8 36 C7.67 33.03 7.34 30.06 7 27 C6.67 30.63 6.34 34.26 6 38 C5.34 38.16 5.34 38.16 2 39 C2.33 38.26 2.66 37.51 3 36.75 C4.54 30.98 5.36 24.41 3.1 18.74 C2.14 17.11 1.08 15.55 0 14 C0 13.34 0 12.68 0 12 C-0.66 12 -1.32 12 -2 12 C-2 11.34 -2 10.68 -2 10 C-2.66 9.67 -3.32 9.34 -4 9 C-2.68 9 -1.36 9 0 9 C0 9.66 0 10.32 0 11 C0.66 11 1.32 11 2 11 C2 9.35 2 7.7 2 6 C1.34 6 0.68 6 0 6 C0 4.02 0 2.04 0 0 Z " fill="#097254" transform="translate(308,184)"/>
<path d="M0 0 C0.87 -0.03 1.75 -0.05 2.64 -0.08 C5.69 0.31 7.03 1.1 9.19 3.25 C9.44 6.44 9.44 6.44 9.19 9.25 C8.53 9.25 7.87 9.25 7.19 9.25 C7.19 10.9 7.19 12.55 7.19 14.25 C2.9 13.92 -1.39 13.59 -5.81 13.25 C-6.14 14.57 -6.47 15.89 -6.81 17.25 C-6.81 13.95 -6.81 10.65 -6.81 7.25 C-7.47 7.25 -8.13 7.25 -8.81 7.25 C-8.81 5.27 -8.81 3.29 -8.81 1.25 C-7.82 1.25 -6.83 1.25 -5.81 1.25 C-4.16 -0.4 -2.26 0.04 0 0 Z " fill="#445A67" transform="translate(326.8125,197.75)"/>
<path d="M0 0 C2.38 1.56 2.38 1.56 4 4 C4.44 7.56 4.44 7.56 4 11 C3.02 12.02 2.02 13.02 1 14 C0.31 17.69 0.31 17.69 0 21 C-0.33 21 -0.66 21 -1 21 C-1 19.02 -1 17.04 -1 15 C-2.09 14.92 -3.19 14.84 -4.31 14.75 C-8 14 -8 14 -10 12.38 C-11.47 8.88 -10.98 6.61 -10 3 C-7.09 -0.35 -4.3 -0.63 0 0 Z " fill="#EDA021" transform="translate(348,145)"/>
<path d="M0 0 C6.26 0.6 9.83 4.62 14 9 C20 16.71 20 16.71 20 20 C18.02 20.99 16.04 21.98 14 23 C13.7 22.49 13.39 21.98 13.08 21.46 C8.91 14.6 4.96 9.21 -2 5 C-1.12 1.12 -1.12 1.12 0 0 Z " fill="#21795B" transform="translate(226,93)"/>
<path d="M0 0 C8.14 -0.27 16.09 0.17 24.19 0.94 C25.12 1.02 26.05 1.11 27.01 1.2 C33.74 1.87 33.74 1.87 36 3 C35.67 4.32 35.34 5.64 35 7 C27.02 7.25 19.29 6.48 11.38 5.5 C10.18 5.36 8.99 5.21 7.75 5.07 C4.84 4.72 1.92 4.36 -1 4 C-0.67 2.68 -0.34 1.36 0 0 Z " fill="#566577" transform="translate(318,275)"/>
<path d="M0 0 C25.97 0.78 25.97 0.78 37 3 C37 4.32 37 5.64 37 7 C28.65 7.23 20.59 6.53 12.31 5.5 C11.12 5.36 9.93 5.21 8.71 5.07 C5.8 4.72 2.9 4.36 0 4 C0 2.68 0 1.36 0 0 Z " fill="#626F82" transform="translate(318,262)"/>
<path d="M0 0 C12.37 0.66 24.68 1.77 37 3 C37 4.32 37 5.64 37 7 C27.9 7.38 19.15 6.83 10.12 5.62 C9.14 5.5 8.16 5.37 7.15 5.24 C6.24 5.11 5.32 4.98 4.38 4.85 C3.97 4.79 3.97 4.79 1.9 4.5 C1.27 4.34 0.64 4.17 0 4 C-0.33 3.34 -0.66 2.68 -1 2 C-0.67 1.34 -0.34 0.68 0 0 Z " fill="#5D697C" transform="translate(319,249)"/>
<path d="M0 0 C0.99 0 1.98 0 3 0 C2.34 2.97 1.68 5.94 1 9 C1.66 9 2.32 9 3 9 C4.5 11.27 5.78 13.57 7 16 C5.68 15.67 4.36 15.34 3 15 C3 17.64 3 20.28 3 23 C-2.75 23.12 -2.75 23.12 -5 22 C-5 18.7 -5 15.4 -5 12 C-3.68 11.67 -2.36 11.34 -1 11 C-1.01 10.29 -1.02 9.58 -1.04 8.85 C-1.04 7.93 -1.05 7.01 -1.06 6.06 C-1.07 5.15 -1.09 4.23 -1.1 3.29 C-1 1 -1 1 0 0 Z " fill="#38703E" transform="translate(279,213)"/>
<path d="M0 0 C0.66 0 1.32 0 2 0 C2.14 2.08 2.23 4.17 2.31 6.25 C2.37 7.41 2.43 8.57 2.49 9.77 C2 13 2 13 -0.39 15.36 C-3.8 17.5 -5.51 18.14 -9.5 18.12 C-10.29 18.13 -11.09 18.13 -11.91 18.13 C-14 18 -14 18 -16 17 C-16.62 14.44 -16.62 14.44 -17 12 C-16.55 11.98 -16.55 11.98 -14.26 11.89 C-13.08 11.82 -11.9 11.76 -10.69 11.69 C-10.1 11.66 -10.1 11.66 -7.14 11.51 C-4 11 -4 11 -2.12 9.72 C-0.79 7.67 -0.51 6.24 -0.31 3.81 C-0.21 2.55 -0.11 1.3 0 0 Z " fill="#0C6450" transform="translate(360,294)"/>
<path d="M0 0 C1.53 3.07 0.55 5.7 0 9 C0.99 9.33 1.98 9.66 3 10 C3.39 10.8 3.78 11.61 4.19 12.44 C6.87 16.24 9.51 16.19 14 17 C13.67 17.78 13.34 18.57 13 19.38 C12 22 12 22 12 24 C14.97 24 17.94 24 21 24 C21 24.33 21 24.66 21 25 C10.94 26.06 10.94 26.06 6.53 23.65 C1.49 19.37 -1.72 15.17 -2.31 8.44 C-2.02 5.19 -1.41 2.91 0 0 Z " fill="#D0EBE7" transform="translate(240,177)"/>
<path d="M0 0 C6.93 0 13.86 0 21 0 C21.33 1.98 21.66 3.96 22 6 C15.73 6 9.46 6 3 6 C2.01 4.02 1.02 2.04 0 0 Z " fill="#B14B02" transform="translate(196,386)"/>
<path d="M0 0 C-0.96 14.78 -0.96 14.78 -2 21 C-4.31 21 -6.62 21 -9 21 C-7.33 5.71 -7.33 5.71 -4 1.44 C-2 0 -2 0 0 0 Z " fill="#E5F2F3" transform="translate(306,238)"/>
<path d="M0 0 C2.75 0.9 3.97 1.35 5.5 3.81 C5.28 7.46 5.12 9.2 2.5 11.81 C-0.6 12.14 -2.67 12.27 -5.44 10.75 C-7.17 7.6 -6.36 5.19 -5.5 1.81 C-2.5 -0.19 -2.5 -0.19 0 0 Z " fill="#2EC66C" transform="translate(329.5,220.1875)"/>
<path d="M0 0 C1.98 0.66 3.96 1.32 6 2 C6 4.31 6 6.62 6 9 C14.19 7.23 14.19 7.23 18 4 C18.66 4 19.32 4 20 4 C20 4.66 20 5.32 20 6 C11.32 11.98 2.12 11.43 -8 10 C-8 9.34 -8 8.68 -8 8 C-8.66 8 -9.32 8 -10 8 C-10 6.02 -10 4.04 -10 2 C-9.34 2 -8.68 2 -8 2 C-8 3.65 -8 5.3 -8 7 C-5.36 7.33 -2.72 7.66 0 8 C0 5.36 0 2.72 0 0 Z " fill="#40773D" transform="translate(282,228)"/>
<path d="M0 0 C0.66 0 1.32 0 2 0 C6.81 6.8 8.27 12.72 7 21 C5.93 23.98 4.67 26.28 3 29 C2.67 29 2.34 29 2 29 C2 20.42 2 11.84 2 3 C1.34 3 0.68 3 0 3 C0 2.01 0 1.02 0 0 Z " fill="#E49B14" transform="translate(306,196)"/>
<path d="M0 0 C0.66 0 1.32 0 2 0 C1.93 0.84 1.86 1.67 1.78 2.54 C-0.15 26.71 -0.15 26.71 2 31 C0.05 30.45 0.05 30.45 -2 29 C-2.61 25.74 -2.61 25.74 -2.75 21.88 C-2.81 20.59 -2.86 19.31 -2.92 17.99 C-2.95 17 -2.97 16.02 -3 15 C-3.33 15 -3.66 15 -4 15 C-4 12.36 -4 9.72 -4 7 C-3.01 7 -2.02 7 -1 7 C-0.67 4.69 -0.34 2.38 0 0 Z " fill="#0D6853" transform="translate(310,232)"/>
<path d="M0 0 C1.34 0.65 2.68 1.31 4 2 C4.35 5.4 4.52 8.61 4 12 C0.47 15.37 -1.11 16 -6 16 C-6 15.34 -6 14.68 -6 14 C-6.66 14 -7.32 14 -8 14 C-8 13.01 -8 12.02 -8 11 C-8.66 11 -9.32 11 -10 11 C-10.62 2.81 -10.62 2.81 -8.38 -0.12 C-5.18 -1.3 -3.26 -0.88 0 0 Z M-7.25 2.69 C-9 5 -9 5 -9.44 7.56 C-9 10 -9 10 -7.88 11.81 C-5.1 13.57 -3.21 13.47 0 13 C1.94 11.31 1.94 11.31 3 9 C2.86 6.11 2.38 4.53 0.69 2.19 C-2.32 0.07 -4.45 0.59 -7.25 2.69 Z " fill="#073021" transform="translate(332,219)"/>
<path d="M0 0 C0.33 1.65 0.66 3.3 1 5 C1.66 5 2.32 5 3 5 C3 7.97 3 10.94 3 14 C1 11 1 11 -0.69 8 C-4.29 3.32 -8.25 2.31 -13.94 1.31 C-14.95 1.21 -15.96 1.11 -17 1 C-17 0.67 -17 0.34 -17 0 C-11.3 -1.11 -5.62 -1.8 0 0 Z " fill="#1E7B5E" transform="translate(269,168)"/>
<path d="M0 0 C2.21 0.14 4.42 0.29 6.62 0.44 C7.85 0.52 9.08 0.6 10.35 0.68 C13.62 0.97 16.78 1.41 20 2 C20 3.32 20 4.64 20 6 C13.23 6.11 6.71 5.88 0 5 C0 4.67 0 4.34 0 4 C2.31 4 4.62 4 7 4 C6.67 3.34 6.34 2.68 6 2 C2.94 1.38 2.94 1.38 0 1 C0 0.67 0 0.34 0 0 Z " fill="#596477" transform="translate(335,263)"/>
<path d="M0 0 C0.33 0.66 0.66 1.32 1 2 C12.88 2 24.76 2 37 2 C37 2.33 37 2.66 37 3 C32.2 3.78 27.61 4.12 22.75 4.1 C22.1 4.1 21.44 4.09 20.77 4.09 C18.7 4.09 16.63 4.08 14.56 4.06 C13.15 4.06 11.74 4.05 10.32 4.05 C6.88 4.04 3.44 4.02 0 4 C0 2.68 0 1.36 0 0 Z " fill="#B75002" transform="translate(245,387)"/>
<path d="M0 0 C6.25 -0.48 6.25 -0.48 9.44 1.56 C11.52 4.82 11.29 7.21 11 11 C10.36 11.1 9.72 11.21 9.06 11.31 C8.38 11.54 7.7 11.77 7 12 C6.67 12.99 6.34 13.98 6 15 C5.99 14.34 5.97 13.67 5.96 12.99 C5.52 4.88 5.52 4.88 2.44 1.88 C1.63 1.26 0.83 0.64 0 0 Z " fill="#196454" transform="translate(361,215)"/>
<path d="M0 0 C1.32 0.66 2.64 1.32 4 2 C4.05 3.42 4.09 4.83 4.12 6.25 C4.15 7.04 4.17 7.83 4.2 8.64 C3.98 11.24 3.28 12.75 2 15 C1.32 16.66 0.65 18.33 0 20 C-0.33 20 -0.66 20 -1 20 C-1.03 17.23 -1.05 14.46 -1.06 11.69 C-1.07 11.29 -1.07 11.29 -1.09 9.31 C-1.09 8.55 -1.09 7.79 -1.1 7.01 C-1.1 6.32 -1.11 5.62 -1.11 4.9 C-1 3 -1 3 0 0 Z " fill="#087455" transform="translate(365,253)"/>
<path d="M0 0 C5.75 0.88 5.75 0.88 8 2 C8 4.31 8 6.62 8 9 C2.25 9.12 2.25 9.12 0 8 C0 5.36 0 2.72 0 0 Z " fill="#BF740D" transform="translate(274,227)"/>
<path d="M0 0 C0.74 0.76 1.49 1.53 2.25 2.31 C6.92 6.87 9.36 8.36 16 9 C14.68 9.33 13.36 9.66 12 10 C12 10.66 12 11.32 12 12 C7.81 11.4 3.99 10.43 0 9 C0 6.03 0 3.06 0 0 Z " fill="#167859" transform="translate(240,193)"/>
<path d="M0 0 C0.26 0.58 0.51 1.15 0.78 1.75 C2.53 4.97 4.96 7.41 7.44 10.1 C9 12 9 12 10 15 C9.42 14.69 8.85 14.38 8.25 14.06 C6.16 13.07 4.25 12.48 2 12 C2 12.66 2 13.32 2 14 C2.66 14 3.32 14 4 14 C4 15.65 4 17.3 4 19 C0 14.25 0 14.25 0 12 C-0.66 12 -1.32 12 -2 12 C-2 11.34 -2 10.68 -2 10 C-2.66 9.67 -3.32 9.34 -4 9 C-2.68 9 -1.36 9 0 9 C0 9.66 0 10.32 0 11 C0.66 11 1.32 11 2 11 C2 9.35 2 7.7 2 6 C1.34 6 0.68 6 0 6 C0 4.02 0 2.04 0 0 Z " fill="#277548" transform="translate(308,184)"/>
<path d="M0 0 C1.56 0.26 1.56 0.26 9.38 1.56 C9.81 1.63 9.81 1.63 12 2 C11.67 2.17 11.67 2.17 10 3 C10.66 5.31 11.32 7.62 12 10 C9.19 10.25 9.19 10.25 6 10 C3.47 7.55 2.78 5.35 2 2 C1.34 1.34 0.68 0.68 0 0 Z " fill="#BA5802" transform="translate(176,382)"/>
<path d="M0 0 C0 2.26 -0.01 4.51 -0.04 6.77 C-0.04 8.26 -0.05 9.76 -0.06 11.25 C-0.07 11.99 -0.08 12.73 -0.09 13.49 C-0.11 18.1 0.24 22.45 1 27 C-2.27 25.37 -2.73 23.41 -4 20 C-4.74 13 -4.44 7.19 -1 1 C-0.67 0.67 -0.34 0.34 0 0 Z " fill="#008458" transform="translate(237,172)"/>
<path d="M0 0 C0.33 0.99 0.66 1.98 1 3 C3.06 3.69 3.06 3.69 5 4 C4.53 4.41 4.06 4.82 3.57 5.25 C1.8 7.22 1.39 8.45 0.83 11.01 C0.66 11.77 0.49 12.53 0.31 13.31 C0.15 14.09 -0.02 14.88 -0.19 15.69 C-0.36 16.48 -0.54 17.28 -0.72 18.1 C-1.16 20.07 -1.58 22.03 -2 24 C-1.01 24.33 -0.02 24.66 1 25 C-0.32 25 -1.64 25 -3 25 C-3 21.37 -3 17.74 -3 14 C-2.34 14 -1.68 14 -1 14 C-1 10.37 -1 6.74 -1 3 C-1.99 2.67 -2.98 2.34 -4 2 C-2.68 1.34 -1.36 0.68 0 0 Z " fill="#197158" transform="translate(299,235)"/>
<path d="M0 0 C1.92 0.69 1.92 0.69 4 2 C4.86 4.28 4.86 4.28 5.31 6.94 C5.47 7.81 5.63 8.69 5.8 9.59 C6 12 6 12 5 15 C4.34 15 3.68 15 3 15 C3 15.66 3 16.32 3 17 C2.34 17 1.68 17 1 17 C0.34 18.32 -0.32 19.64 -1 21 C-1.33 21 -1.66 21 -2 21 C-2 19.35 -2 17.7 -2 16 C-0.68 16 0.64 16 2 16 C2 11.38 2 6.76 2 2 C1.34 2 0.68 2 0 2 C0 1.34 0 0.68 0 0 Z " fill="#156A58" transform="translate(312,263)"/>
<path d="M0 0 C0 2.31 0 4.62 0 7 C-1.98 7 -3.96 7 -6 7 C-6.25 6.38 -6.5 5.76 -6.75 5.12 C-8.22 2.63 -9.41 2.17 -12 1 C-10.38 0.64 -8.75 0.29 -7.12 -0.06 C-6.22 -0.26 -5.32 -0.46 -4.38 -0.66 C-2 -1 -2 -1 0 0 Z " fill="#A25C10" transform="translate(234,384)"/>
<path d="M0 0 C0.33 0.99 0.66 1.98 1 3 C0.34 3 -0.32 3 -1 3 C-1.25 3.8 -1.5 4.61 -1.75 5.44 C-2.16 6.28 -2.57 7.13 -3 8 C-4.32 8.33 -5.64 8.66 -7 9 C-7 12.63 -7 16.26 -7 20 C-6.34 20 -5.68 20 -5 20 C-5.33 20.99 -5.66 21.98 -6 23 C-7.49 21.95 -7.49 21.95 -9 20 C-9.29 16.64 -9.29 16.64 -9.19 12.81 C-9.16 11.54 -9.13 10.27 -9.11 8.96 C-9.07 7.98 -9.04 7.01 -9 6 C-8.03 5.71 -7.06 5.42 -6.06 5.12 C-3 4 -3 4 -2 2 C-1.34 2 -0.68 2 0 2 C0 1.34 0 0.68 0 0 Z " fill="#103F3F" transform="translate(315,278)"/>
<path d="M0 0 C13.2 0 26.4 0 40 0 C40 0.33 40 0.66 40 1 C28.12 1 16.24 1 4 1 C3.67 2.65 3.34 4.3 3 6 C0 2.25 0 2.25 0 0 Z " fill="#F9EBDD" transform="translate(250,392)"/>
<path d="M0 0 C7.75 -0.12 7.75 -0.12 10 1 C9.67 2.32 9.34 3.64 9 5 C2.57 5.12 -3.62 4.82 -10 4 C-10 3.67 -10 3.34 -10 3 C-9.22 3.01 -8.44 3.02 -7.63 3.04 C-6.62 3.04 -5.61 3.05 -4.56 3.06 C-4.06 3.07 -4.06 3.07 -1.5 3.1 C1 3 1 3 2 2 C1.34 1.34 0.68 0.68 0 0 Z " fill="#545E72" transform="translate(344,277)"/>
<path d="M0 0 C0.66 0 1.32 0 2 0 C6.93 6.98 7.64 12.57 7 21 C6.67 21 6.34 21 6 21 C6 18.03 6 15.06 6 12 C4.68 12.33 3.36 12.66 2 13 C2 9.7 2 6.4 2 3 C1.34 3 0.68 3 0 3 C0 2.01 0 1.02 0 0 Z " fill="#C9A12B" transform="translate(306,196)"/>
<path d="M0 0 C0.78 0.15 1.55 0.31 2.35 0.46 C7.02 1.15 11.66 1.36 16.38 1.56 C17.3 1.61 18.23 1.65 19.18 1.69 C21.46 1.8 23.73 1.9 26 2 C26 2.66 26 3.32 26 4 C27.98 4 29.96 4 32 4 C32 4.33 32 4.66 32 5 C24.73 5.13 24.73 5.13 21.28 4.53 C17.23 3.88 13.22 3.65 9.12 3.44 C8.34 3.39 7.56 3.35 6.75 3.31 C4.83 3.2 2.92 3.1 1 3 C0.67 2.01 0.34 1.02 0 0 Z " fill="#0E373B" transform="translate(310,301)"/>
<path d="M0 0 C1.23 -0.02 2.46 -0.04 3.73 -0.06 C4.31 -0.07 4.31 -0.07 7.28 -0.08 C8.34 -0.09 9.4 -0.1 10.5 -0.11 C11.35 0.01 12.19 0.13 13.06 0.25 C13.72 1.24 14.38 2.23 15.06 3.25 C13.74 3.25 12.42 3.25 11.06 3.25 C11.06 2.59 11.06 1.93 11.06 1.25 C7.17 1.39 3.27 1.54 -0.62 1.69 C-1.18 1.71 -1.18 1.71 -3.97 1.81 C-5.03 1.85 -6.1 1.89 -7.2 1.93 C-7.69 1.95 -7.69 1.95 -10.17 2.04 C-12.94 2.25 -12.94 2.25 -15.62 2.8 C-18.33 3.33 -20.28 2.93 -22.94 2.25 C-22.94 1.92 -22.94 1.59 -22.94 1.25 C-15.28 0.23 -7.72 0.03 0 0 Z " fill="#F9EBDF" transform="translate(158.9375,393.75)"/>
<path d="M0 0 C0.33 0 0.66 0 1 0 C1.06 1.13 1.12 2.27 1.18 3.44 C1.27 4.96 1.35 6.48 1.44 8 C1.48 8.74 1.52 9.49 1.56 10.25 C1.84 15.21 2.34 20.08 3 25 C2.34 25 1.68 25 1 25 C-0.82 19.56 -1.28 14.84 -1.19 9.12 C-1.19 8.74 -1.19 8.74 -1.19 6.79 C-1.14 1.14 -1.14 1.14 0 0 Z " fill="#017C6F" transform="translate(165,264)"/>
<path d="M0 0 C5.13 -0.1 9.95 -0.04 15 1 C15 1.33 15 1.66 15 2 C10.71 2 6.42 2 2 2 C2 2.66 2 3.32 2 4 C4.64 4.33 7.28 4.66 10 5 C10 5.33 10 5.66 10 6 C7.36 6 4.72 6 2 6 C2 8.31 2 10.62 2 13 C3.32 13.33 4.64 13.66 6 14 C4.35 14 2.7 14 1 14 C0.87 13.3 0.73 12.6 0.6 11.88 C0.51 11.43 0.51 11.43 0.06 9.12 C-0.11 8.22 -0.29 7.32 -0.46 6.38 C-1 4 -1 4 -2 2 C-1.34 2 -0.68 2 0 2 C0 1.34 0 0.68 0 0 Z " fill="#24404B" transform="translate(316,261)"/>
<path d="M0 0 C6.93 0 13.86 0 21 0 C21 0.99 21 1.98 21 3 C16.71 3 12.42 3 8 3 C8 2.67 8 2.34 8 2 C5.36 1.67 2.72 1.34 0 1 C0 0.67 0 0.34 0 0 Z " fill="#955514" transform="translate(196,386)"/>
<path d="M0 0 C3.35 2.23 4.82 3.26 5.81 7.25 C5.87 8.16 5.94 9.06 6 10 C6.99 10.33 7.98 10.66 9 11 C4.16 10.55 1.5 9.4 -2 6 C-2 5.34 -2 4.68 -2 4 C-1.34 4 -0.68 4 0 4 C0 2.68 0 1.36 0 0 Z " fill="#247462" transform="translate(306,298)"/>
<path d="M0 0 C3 2 3 2 4 5 C4.66 4.34 5.32 3.68 6 3 C6.18 8.22 5.97 12.07 4 17 C3.34 17 2.68 17 2 17 C1.94 16.11 1.88 15.22 1.82 14.3 C1.73 13.13 1.65 11.96 1.56 10.75 C1.48 9.59 1.4 8.43 1.32 7.23 C1.07 4.69 0.72 2.44 0 0 Z " fill="#18A77B" transform="translate(275,177)"/>
<path d="M0 0 C0.33 0 0.66 0 1 0 C1 3.3 1 6.6 1 10 C0.67 10 0.34 10 0 10 C-0.03 10.61 -0.05 11.23 -0.08 11.86 C-0.55 18.55 -0.55 18.55 -3.06 21.06 C-3.38 21.22 -3.38 21.22 -5 22 C-4.37 16.87 -3.32 12.03 -1.94 7.06 C-1.75 6.38 -1.56 5.69 -1.37 4.99 C-0.92 3.33 -0.46 1.66 0 0 Z " fill="#D4F1ED" transform="translate(287,322)"/>
<path d="M0 0 C1.49 0.01 2.98 0.02 4.46 0.04 C5.22 0.04 5.98 0.04 6.76 0.05 C8.64 0.06 10.52 0.08 12.4 0.1 C12.4 0.43 12.4 0.76 12.4 1.1 C7.02 2.01 1.86 2.21 -3.6 2.1 C-3.6 2.76 -3.6 3.42 -3.6 4.1 C-4.89 4.63 -6.18 5.15 -7.47 5.66 C-7.83 5.81 -7.83 5.81 -9.65 6.54 C-11.6 7.1 -11.6 7.1 -13.6 6.1 C-12.96 5.75 -12.32 5.4 -11.66 5.04 C-10.84 4.58 -10.01 4.13 -9.16 3.66 C-8.34 3.21 -7.51 2.76 -6.66 2.29 C-2.83 0.08 -2.83 0.08 0 0 Z " fill="#11A9B6" transform="translate(191.59765625,236.90234375)"/>
<path d="M0 0 C1.03 3.2 1.11 3.76 -0.38 7 C-0.91 7.99 -1.45 8.98 -2 10 C-2.69 12.38 -2.69 12.38 -3 14 C-3.66 14 -4.32 14 -5 14 C-5.66 15.65 -6.32 17.3 -7 19 C-7.66 19 -8.32 19 -9 19 C-7.61 14.37 -5.7 10.35 -3.38 6.12 C-2.74 4.97 -2.11 3.82 -1.46 2.63 C-0.98 1.76 -0.5 0.9 0 0 Z " fill="#297A60" transform="translate(155,180)"/>
<path d="M0 0 C1.79 -0.03 3.58 -0.05 5.38 -0.06 C6.37 -0.07 7.37 -0.09 8.4 -0.1 C11 0 11 0 13 1 C13 1.99 13 2.98 13 4 C3.63 4.16 3.63 4.16 1 3 C0.67 2.01 0.34 1.02 0 0 Z " fill="#037353" transform="translate(345,209)"/>
<path d="M0 0 C0.33 0.99 0.66 1.98 1 3 C-1.11 6.83 -2.8 9.5 -7 11 C-7 11.66 -7 12.32 -7 13 C-8.32 13.33 -9.64 13.66 -11 14 C-8.94 10.34 -6.64 7.29 -3.81 4.19 C-3.1 3.4 -2.38 2.61 -1.64 1.79 C-1.1 1.2 -0.56 0.61 0 0 Z " fill="#2D7E63" transform="translate(175,155)"/>
<path d="M0 0 C2.31 0.33 4.62 0.66 7 1 C7 1.33 7 1.66 7 2 C5.35 2 3.7 2 2 2 C1.67 3.65 1.34 5.3 1 7 C1.66 7 2.32 7 3 7 C4.43 9.35 5.09 10.48 4.62 13.25 C4.42 13.83 4.21 14.4 4 15 C3.67 14.67 3.34 14.34 3 14 C1.32 13.77 -0.37 13.59 -2.06 13.44 C-2.98 13.35 -3.9 13.27 -4.85 13.18 C-5.56 13.12 -6.27 13.06 -7 13 C-7 12.67 -7 12.34 -7 12 C-4.03 12 -1.06 12 2 12 C1.34 10.68 0.68 9.36 0 8 C-0.25 5.3 -0.09 2.72 0 0 Z " fill="#DCA140" transform="translate(169,381)"/>
<path d="M0 0 C0.66 0.99 1.32 1.98 2 3 C-2.64 7.9 -7.49 12.09 -13 16 C-13.66 15.67 -14.32 15.34 -15 15 C-14.67 14.34 -14.34 13.68 -14 13 C-13.34 13 -12.68 13 -12 13 C-12 12.34 -12 11.68 -12 11 C-10.68 10.67 -9.36 10.34 -8 10 C-8 9.34 -8 8.68 -8 8 C-6.68 7.67 -5.36 7.34 -4 7 C-4 6.34 -4 5.68 -4 5 C-3.34 5 -2.68 5 -2 5 C-2 4.34 -2 3.68 -2 3 C-1.34 3 -0.68 3 0 3 C0 2.01 0 1.02 0 0 Z " fill="#327D68" transform="translate(270,359)"/>
<path d="M0 0 C3.3 0 6.6 0 10 0 C10 1.32 10 2.64 10 4 C10.66 4.33 11.32 4.66 12 5 C7.71 4.67 3.42 4.34 -1 4 C0.32 3.67 1.64 3.34 3 3 C3 2.34 3 1.68 3 1 C2.01 0.67 1.02 0.34 0 0 Z " fill="#1B755F" transform="translate(334,307)"/>
<path d="M0 0 C1.73 -0.03 3.46 -0.05 5.19 -0.06 C6.15 -0.07 7.11 -0.09 8.11 -0.1 C10.86 -0 13.32 0.38 16 1 C13.63 3.19 12.48 3.99 9.2 4.07 C8.23 3.95 7.25 3.82 6.25 3.69 C5.27 3.57 4.28 3.45 3.27 3.32 C2.52 3.22 1.77 3.11 1 3 C0.67 2.01 0.34 1.02 0 0 Z " fill="#667184" transform="translate(333,277)"/>
<path d="M0 0 C0.3 0.1 0.3 0.1 1.81 0.62 C0.49 0.95 -0.83 1.29 -2.19 1.62 C-2.19 4.6 -2.19 7.56 -2.19 10.62 C-3.52 11.29 -4.85 11.96 -6.19 12.62 C-6.19 11.96 -6.19 11.31 -6.19 10.62 C-6.85 10.62 -7.51 10.62 -8.19 10.62 C-8.19 9.96 -8.19 9.31 -8.19 8.62 C-6.87 8.62 -5.55 8.62 -4.19 8.62 C-4.52 6.31 -4.85 4 -5.19 1.62 C-2.19 -0.38 -2.19 -0.38 0 0 Z " fill="#DC9D2B" transform="translate(238.1875,382.375)"/>
<path d="M0 0 C17.86 -0.18 17.86 -0.18 26 1 C26 1.33 26 1.66 26 2 C23.19 2.17 23.19 2.17 9 3 C9 2.34 9 1.68 9 1 C6.03 1 3.06 1 0 1 C0 0.67 0 0.34 0 0 Z " fill="#C98C5B" transform="translate(307,378)"/>
<path d="M0 0 C5.21 2.53 8.39 6.62 12 11 C11.34 11.66 10.68 12.32 10 13 C9.34 12.67 8.68 12.34 8 12 C8 10.68 8 9.36 8 8 C7.42 7.92 6.84 7.83 6.25 7.75 C3.32 6.77 1.95 5.36 0 3 C0 2.01 0 1.02 0 0 Z " fill="#286E57" transform="translate(210,91)"/>
<path d="M0 0 C3.96 0.33 7.92 0.66 12 1 C12 1.66 12 2.32 12 3 C3.43 4.29 3.43 4.29 0 3 C0 2.01 0 1.02 0 0 Z " fill="#097057" transform="translate(344,307)"/>
<path d="M0 0 C2 2 2 2 2.12 5.12 C2.08 6.07 2.04 7.02 2 8 C1.67 6.68 1.34 5.36 1 4 C-1.64 3.67 -4.28 3.34 -7 3 C-7 2.01 -7 1.02 -7 0 C-3.85 -1.05 -3.01 -1.07 0 0 Z " fill="#41C580" transform="translate(375,227)"/>
<path d="M0 0 C3.3 0.33 6.6 0.66 10 1 C8.68 1.33 7.36 1.66 6 2 C6 3.65 6 5.3 6 7 C5.34 7 4.68 7 4 7 C4 6.01 4 5.02 4 4 C2.68 4 1.36 4 0 4 C0 2.68 0 1.36 0 0 Z " fill="#DF9816" transform="translate(186,385)"/>
<path d="M0 0 C0.66 0 1.32 0 2 0 C5.34 3.44 6.89 6.16 7 11 C5.56 12.88 5.56 12.88 4 14 C2.84 10.53 2.93 7.64 3 4 C2.34 4 1.68 4 1 4 C0.67 2.68 0.34 1.36 0 0 Z " fill="#04835B" transform="translate(269,169)"/>
<path d="M0 0 C-0.33 0.17 -0.33 0.17 -2 1 C-2 1.66 -2 2.32 -2 3 C-7.61 3 -13.22 3 -19 3 C-19 2.67 -19 2.34 -19 2 C-18.69 1.97 -18.69 1.97 -17.1 1.82 C-16.69 1.77 -16.69 1.77 -14.62 1.56 C-13.81 1.48 -13 1.4 -12.16 1.32 C-2.85 -0.05 -2.85 -0.05 0 0 Z " fill="#B36322" transform="translate(352,392)"/>
<path d="M0 0 C-3 2 -3 2 -5.5 3.38 C-9.32 5.86 -11.11 8.93 -13 13 C-13 11.02 -13 9.04 -13 7 C-12.34 7 -11.68 7 -11 7 C-10.97 6.7 -10.97 6.7 -10.81 5.19 C-10 3 -10 3 -7.75 1.25 C-4.88 -0.06 -3.11 -0.27 0 0 Z " fill="#25765D" transform="translate(251,169)"/>
<path d="M0 0 C0.43 0.08 0.43 0.08 2.62 0.5 C5.81 0.97 8.78 1.08 12 1 C11.34 3.97 10.68 6.94 10 10 C9.67 10 9.34 10 9 10 C9 8.02 9 6.04 9 4 C7.89 3.9 6.77 3.79 5.62 3.69 C5.03 3.57 5.03 3.57 2 3 C1.34 2.01 0.68 1.02 0 0 Z " fill="#C59A47" transform="translate(338,156)"/>
<path d="M0 0 C1.32 0.66 2.64 1.32 4 2 C4 5.2 3.26 7.09 2 10 C-0.64 10 -3.28 10 -6 10 C-6 9.67 -6 9.34 -6 9 C-4.02 8.67 -2.04 8.34 0 8 C0 5.36 0 2.72 0 0 Z " fill="#ECDB9F" transform="translate(233,392)"/>
<path d="M0 0 C0.99 0.33 1.98 0.66 3 1 C3.05 2.46 3.09 3.92 3.12 5.38 C3.15 6.19 3.17 7 3.2 7.84 C3 10 3 10 1 12 C0 11 0 11 -0.1 8.5 C-0.09 7.99 -0.09 7.99 -0.06 5.44 C-0.05 4.43 -0.04 3.41 -0.04 2.37 C-0.02 1.59 -0.01 0.81 0 0 Z " fill="#0C784C" transform="translate(366,254)"/>
<path d="M0 0 C7.1 -0.31 12.68 -0.45 19 3 C15.01 4.33 11.82 3.38 7.81 2.56 C7.06 2.41 6.31 2.27 5.54 2.12 C3.69 1.75 1.85 1.38 0 1 C0 0.67 0 0.34 0 0 Z " fill="#01845A" transform="translate(249,164)"/>
<path d="M0 0 C1.32 0.33 2.64 0.66 4 1 C2.68 3.31 1.36 5.62 0 8 C0.66 8 1.32 8 2 8 C1.67 9.32 1.34 10.64 1 12 C0.18 10.68 0.18 10.68 -4 4 C-3.34 3.67 -2.68 3.34 -2 3 C-1.34 3.33 -0.68 3.66 0 4 C0 2.68 0 1.36 0 0 Z " fill="#DFF3ED" transform="translate(222,93)"/>
<path d="M0 0 C0.87 0.33 1.73 0.66 2.62 1 C8.56 2.75 14.88 2.15 21 2 C21 2.66 21 3.32 21 4 C14.73 4 8.46 4 2 4 C1.34 2.68 0.68 1.36 0 0 Z " fill="#BA6C23" transform="translate(197,388)"/>
<path d="M0 0 C0.33 0 0.66 0 1 0 C1.39 4.44 0.45 7.28 -2 11 C-4.62 11.75 -4.62 11.75 -7 12 C-7.33 12.66 -7.66 13.32 -8 14 C-8.66 13.34 -9.32 12.68 -10 12 C-4.25 8 -4.25 8 -2 8 C-1.86 7.42 -1.71 6.85 -1.56 6.25 C-1.04 4.17 -0.52 2.08 0 0 Z " fill="#C5E9E3" transform="translate(365,299)"/>
<path d="M0 0 C0.33 0 0.66 0 1 0 C1 1.65 1 3.3 1 5 C1.66 5 2.32 5 3 5 C3.29 13.57 3.29 13.57 1 17 C0.01 11.29 -0.1 5.79 0 0 Z " fill="#3E3B50" transform="translate(337,183)"/>
<path d="M0 0 C1.32 0.33 2.64 0.66 4 1 C3.38 8.5 3.38 8.5 0 13 C0 8.71 0 4.42 0 0 Z " fill="#267C62" transform="translate(362,294)"/>
<path d="M0 0 C1.68 0.29 3.34 0.62 5 1 C4.01 1.33 3.02 1.66 2 2 C2.33 3.98 2.66 5.96 3 8 C1.35 7.01 -0.3 6.02 -2 5 C-1.12 1.12 -1.12 1.12 0 0 Z " fill="#348268" transform="translate(226,93)"/>
<path d="M0 0 C0.33 0.17 0.33 0.17 2 1 C2 1.99 2 2.98 2 4 C3.32 4.33 4.64 4.66 6 5 C6 7.31 6 9.62 6 12 C5.67 11.34 5.34 10.68 5 10 C4.34 10 3.68 10 3 10 C2.01 6.7 1.02 3.4 0 0 Z " fill="#0FA7B6" transform="translate(168,289)"/>
<path d="M0 0 C0.99 0 1.98 0 3 0 C2.34 2.97 1.68 5.94 1 9 C1.66 9 2.32 9 3 9 C2.67 9.66 2.34 10.32 2 11 C1.01 10.67 0.02 10.34 -1 10 C-1.03 8.52 -1.05 7.04 -1.06 5.56 C-1.07 4.74 -1.09 3.92 -1.1 3.07 C-1 1 -1 1 0 0 Z " fill="#537D3F" transform="translate(279,213)"/>
<path d="M0 0 C0.66 0.66 1.32 1.32 2 2 C1.34 2 0.68 2 0 2 C-0.33 2.99 -0.66 3.98 -1 5 C-4.21 6.89 -6.25 8 -10 8 C-8.71 6.85 -7.42 5.71 -6.12 4.56 C-5.77 4.24 -5.77 4.24 -3.95 2.63 C-2 1 -2 1 0 0 Z " fill="#1F7659" transform="translate(188,145)"/>
<path d="M0 0 C-2.06 2.5 -2.06 2.5 -5 5 C-8.81 5.31 -8.81 5.31 -12 5 C-8.44 1.05 -5.39 -1.8 0 0 Z " fill="#14A278" transform="translate(215,142)"/>
<path d="M0 0 C0.33 0 0.66 0 1 0 C1 5.28 1 10.56 1 16 C-0.32 16.33 -1.64 16.66 -3 17 C-2.69 16.24 -2.38 15.47 -2.06 14.69 C-0.66 9.83 -0.34 5.03 0 0 Z " fill="#4A722A" transform="translate(313,206)"/>
<path d="M0 0 C1.59 2.39 2.65 4.31 3.69 6.94 C3.96 7.61 4.23 8.28 4.51 8.96 C5.08 11.33 4.76 12.72 4 15 C2 13 2 13 1.88 9.88 C1.92 8.93 1.96 7.98 2 7 C1.34 7 0.68 7 0 7 C0 4.69 0 2.38 0 0 Z " fill="#3B7E6B" transform="translate(302,161)"/>
<path d="M0 0 C2.46 3.69 3.01 6.7 4 11 C2.68 11 1.36 11 0 11 C0 7.37 0 3.74 0 0 Z " fill="#D4EFEA" transform="translate(132,336)"/>
<path d="M0 0 C0.83 2.37 1.13 3.62 0.33 6.04 C-0.03 6.7 -0.38 7.37 -0.75 8.06 C-0.92 8.4 -0.92 8.4 -1.8 10.1 C-3.01 12.02 -4.33 13.46 -6 15 C-5.33 11.93 -4.3 9.23 -3 6.38 C-2.65 5.6 -2.3 4.82 -1.94 4.02 C-1.31 2.67 -0.67 1.33 0 0 Z " fill="#169E75" transform="translate(155,201)"/>
<path d="M0 0 C1.32 0 2.64 0 4 0 C4 0.66 4 1.32 4 2 C5.32 2.33 6.64 2.66 8 3 C7.44 3.14 7.44 3.14 4.62 3.88 C1 5 1 5 -1 7 C-1.62 5.19 -1.62 5.19 -2 3 C-1.34 2.01 -0.68 1.02 0 0 Z " fill="#E1EDF1" transform="translate(320,195)"/>
<path d="M0 0 C0.33 0.99 0.66 1.98 1 3 C0.76 3.22 0.76 3.22 -0.44 4.31 C-2 6 -2 6 -3 9 C-5.56 10.69 -5.56 10.69 -8 12 C-6.76 8.56 -5.44 5.75 -3 3 C-2.34 3 -1.68 3 -1 3 C-0.67 2.01 -0.34 1.02 0 0 Z " fill="#15A476" transform="translate(177,167)"/>
<path d="M0 0 C2.06 0.44 2.06 0.44 4 1 C4.33 2.32 4.66 3.64 5 5 C3.35 5.33 1.7 5.66 0 6 C-0.38 4.34 -0.71 2.68 -1 1 C-0.67 0.67 -0.34 0.34 0 0 Z " fill="#1F7F5E" transform="translate(241,108)"/>
<path d="M0 0 C3.3 0 6.6 0 10 0 C10 0.99 10 1.98 10 3 C11.32 3.66 12.64 4.32 14 5 C9.16 4.01 4.52 3.04 0 1 C0 0.67 0 0.34 0 0 Z " fill="#027E73" transform="translate(236,252)"/>
<path d="M0 0 C4.29 0.99 8.58 1.98 13 3 C13 3.33 13 3.66 13 4 C8.71 3.67 4.42 3.34 0 3 C0 2.01 0 1.02 0 0 Z " fill="#20735B" transform="translate(250,126)"/>
<path d="M0 0 C1.56 0.26 1.56 0.26 9.38 1.56 C9.81 1.63 9.81 1.63 12 2 C10 4 10 4 6.56 4.38 C3 4 3 4 1.06 2 C0.71 1.34 0.36 0.68 0 0 Z " fill="#826322" transform="translate(176,382)"/>
<path d="M0 0 C0.82 0.17 0.82 0.17 5 1 C5.69 4.31 5.69 4.31 6 8 C4.56 9.94 4.56 9.94 3 11 C2.34 10.67 1.68 10.34 1 10 C1.66 9.01 2.32 8.02 3 7 C3.38 5.34 3.73 3.68 4 2 C2.68 1.67 1.36 1.34 0 1 C0 0.67 0 0.34 0 0 Z " fill="#028376" transform="translate(306,267)"/>
<path d="M0 0 C0.66 0.33 1.32 0.66 2 1 C1.67 2.65 1.34 4.3 1 6 C-0.98 6.66 -2.96 7.32 -5 8 C-1.12 1.12 -1.12 1.12 0 0 Z " fill="#2C7D64" transform="translate(161,172)"/>
<path d="M0 0 C0.66 0.33 1.32 0.66 2 1 C0.38 2.71 -1.29 4.37 -3 6 C-3.66 6 -4.32 6 -5 6 C-5 6.66 -5 7.32 -5 8 C-6.32 8.33 -7.64 8.66 -9 9 C-9 8.34 -9 7.68 -9 7 C-7.38 5.61 -5.71 4.28 -4 3 C-3.24 2.42 -2.47 1.84 -1.69 1.25 C-1.13 0.84 -0.57 0.43 0 0 Z " fill="#16A676" transform="translate(195,151)"/>
<path d="M0 0 C0.33 0.99 0.66 1.98 1 3 C0.34 3 -0.32 3 -1 3 C-1 3.99 -1 4.98 -1 6 C-1.66 6 -2.32 6 -3 6 C-3 6.66 -3 7.32 -3 8 C-4.32 8 -5.64 8 -7 8 C-7 7.34 -7 6.68 -7 6 C-5.47 4.49 -5.47 4.49 -3.5 2.88 C-2.85 2.34 -2.2 1.8 -1.53 1.24 C-1.03 0.83 -0.52 0.42 0 0 Z " fill="#35753B" transform="translate(309,224)"/>
<path d="M0 0 C0.33 0 0.66 0 1 0 C1 2.64 1 5.28 1 8 C-0.98 8.33 -2.96 8.66 -5 9 C-3.35 6.03 -1.7 3.06 0 0 Z " fill="#307C68" transform="translate(271,189)"/>
<path d="M0 0 C2.5 2.94 3.47 5.18 4 9 C2.68 9 1.36 9 0 9 C0 6.03 0 3.06 0 0 Z " fill="#E5F3EF" transform="translate(240,116)"/>
<path d="M0 0 C2 2 2 2 2 5 C1.34 5 0.68 5 0 5 C0 6.65 0 8.3 0 10 C-1.32 9.67 -2.64 9.34 -4 9 C-2.68 6.03 -1.36 3.06 0 0 Z " fill="#CCECE6" transform="translate(280,346)"/>
<path d="M0 0 C0 0.66 0 1.32 0 2 C-7.29 5.43 -7.29 5.43 -12 5 C-12 4.34 -12 3.68 -12 3 C-10.38 2.5 -8.75 2 -7.12 1.5 C-6.22 1.22 -5.32 0.94 -4.38 0.66 C-2 0 -2 0 0 0 Z " fill="#028176" transform="translate(230,319)"/>
<path d="M0 0 C0 0.66 0 1.32 0 2 C-0.66 2 -1.32 2 -2 2 C-2.33 2.99 -2.66 3.98 -3 5 C-4.98 5 -6.96 5 -9 5 C-6.46 2.2 -3.92 0 0 0 Z " fill="#047E78" transform="translate(292,284)"/>
<path d="M0 0 C0.66 0 1.32 0 2 0 C1.67 4.62 1.34 9.24 1 14 C0.67 14 0.34 14 0 14 C0 10.37 0 6.74 0 3 C-0.66 2.67 -1.32 2.34 -2 2 C-1.34 1.34 -0.68 0.68 0 0 Z " fill="#BAE7E1" transform="translate(304,238)"/>
<path d="M0 0 C0.66 0 1.32 0 2 0 C2 2.31 2 4.62 2 7 C2.66 7.33 3.32 7.66 4 8 C2.68 8.33 1.36 8.66 0 9 C0 6.03 0 3.06 0 0 Z " fill="#047553" transform="translate(368,218)"/>
<path d="M0 0 C0.66 0.66 1.32 1.32 2 2 C0.68 4.31 -0.64 6.62 -2 9 C-2.66 7.68 -3.32 6.36 -4 5 C-2.68 3.35 -1.36 1.7 0 0 Z " fill="#E5F8F3" transform="translate(156,175)"/>
<path d="M0 0 C0.66 0.33 1.32 0.66 2 1 C0.71 1.84 -0.58 2.67 -1.88 3.5 C-2.59 3.96 -3.31 4.43 -4.05 4.91 C-6 6 -6 6 -8 6 C-7 3 -7 3 -3.56 1.25 C-2.39 0.84 -1.21 0.43 0 0 Z " fill="#15ACC3" transform="translate(254,304)"/>
<path d="M0 0 C0.66 0.33 1.32 0.66 2 1 C1.38 1.41 0.76 1.82 0.12 2.25 C-2.07 4.06 -2.93 5.41 -4 8 C-5 7 -5 7 -5.06 4.44 C-5.04 3.63 -5.02 2.83 -5 2 C-2.62 0.94 -2.62 0.94 0 0 Z " fill="#D7F1EB" transform="translate(297,289)"/>
<path d="M0 0 C0.66 0.66 1.32 1.32 2 2 C1.97 4.73 1.44 7.3 1 10 C0.34 10 -0.32 10 -1 10 C-1.12 3.38 -1.12 3.38 0 0 Z " fill="#F1FDFB" transform="translate(241,176)"/>
<path d="M0 0 C0.82 0.17 0.82 0.17 5 1 C5 1.99 5 2.98 5 4 C5.66 4 6.32 4 7 4 C7 4.66 7 5.32 7 6 C5.19 5.81 5.19 5.81 3 5 C1.25 2.44 1.25 2.44 0 0 Z " fill="#347A63" transform="translate(231,102)"/>
<path d="M0 0 C2.01 0.29 4.01 0.62 6 1 C5.67 1.66 5.34 2.32 5 3 C3.35 3 1.7 3 0 3 C-0.33 3.99 -0.66 4.98 -1 6 C-1.04 4.33 -1.04 2.67 -1 1 C-0.67 0.67 -0.34 0.34 0 0 Z " fill="#367963" transform="translate(204,89)"/>
<path d="M0 0 C0.99 0.33 1.98 0.66 3 1 C3 1.99 3 2.98 3 4 C3.66 4.33 4.32 4.66 5 5 C3.68 5.99 2.36 6.98 1 8 C0.34 7.67 -0.32 7.34 -1 7 C-0.67 6.67 -0.34 6.34 0 6 C0.04 4 0.04 2 0 0 Z " fill="#F8EAC0" transform="translate(187,393)"/>
<path d="M0 0 C0 0.99 0 1.98 0 3 C-3.84 4.48 -6.06 5.22 -10 4 C-8.71 3.33 -7.42 2.66 -6.12 2 C-5.41 1.63 -4.69 1.26 -3.95 0.88 C-2 0 -2 0 0 0 Z " fill="#02837B" transform="translate(240,314)"/>
<path d="M0 0 C0.66 0 1.32 0 2 0 C2.12 2.88 2.12 2.88 2 6 C1.34 6.66 0.68 7.32 0 8 C-0.33 7.67 -0.66 7.34 -1 7 C-0.71 4.66 -0.38 2.33 0 0 Z " fill="#3AB870" transform="translate(324,222)"/>
<path d="M0 0 C2.31 0 4.62 0 7 0 C6.25 1.94 6.25 1.94 5 4 C2.88 4.75 2.88 4.75 1 5 C0.84 4.18 0.84 4.18 0 0 Z " fill="#E7E4EE" transform="translate(247,194)"/>
<path d="M0 0 C0.99 0 1.98 0 3 0 C3 1.65 3 3.3 3 5 C2.34 5 1.68 5 1 5 C1 5.66 1 6.32 1 7 C0.34 7 -0.32 7 -1 7 C-0.67 4.69 -0.34 2.38 0 0 Z " fill="#E59F37" transform="translate(187,389)"/>
<path d="M0 0 C0 0.99 0 1.98 0 3 C-2.64 3 -5.28 3 -8 3 C-4.94 0.38 -4.27 0 0 0 Z " fill="#845E21" transform="translate(250,378)"/>
<path d="M0 0 C0.99 0.17 0.99 0.17 6 1 C6 1.99 6 2.98 6 4 C6.66 4 7.32 4 8 4 C8 4.66 8 5.32 8 6 C4.63 4.56 2.49 2.67 0 0 Z " fill="#10A8B1" transform="translate(184,316)"/>
<path d="M0 0 C0.25 0.56 0.5 1.11 0.75 1.69 C2.22 4.4 4.03 6.64 6 9 C5.01 9 4.02 9 3 9 C2.67 8.01 2.34 7.02 2 6 C1.34 6 0.68 6 0 6 C0 4.02 0 2.04 0 0 Z " fill="#367664" transform="translate(308,184)"/>
<path d="M0 0 C2.88 -0.12 2.88 -0.12 6 0 C6.66 0.66 7.32 1.32 8 2 C6.02 2 4.04 2 2 2 C2 2.66 2 3.32 2 4 C1.34 4 0.68 4 0 4 C0 2.68 0 1.36 0 0 Z " fill="#9D902B" transform="translate(288,186)"/>
<path d="M0 0 C0.66 0.33 1.32 0.66 2 1 C1.67 1.99 1.34 2.98 1 4 C-1.31 4.33 -3.62 4.66 -6 5 C-4.07 2.98 -2.37 1.58 0 0 Z " fill="#357E67" transform="translate(197,138)"/>
<path d="M0 0 C2.15 2.62 3.4 4.64 4 8 C2.68 7.67 1.36 7.34 0 7 C0 4.69 0 2.38 0 0 Z " fill="#078383" transform="translate(172,299)"/>
<path d="M0 0 C0.33 0 0.66 0 1 0 C1.33 2.31 1.66 4.62 2 7 C1.01 7.66 0.02 8.32 -1 9 C-1.1 2.85 -1.1 2.85 -1 1 C-0.67 0.67 -0.34 0.34 0 0 Z " fill="#E6FAF9" transform="translate(301,241)"/>
<path d="M0 0 C1.32 0.33 2.64 0.66 4 1 C4 2.65 4 4.3 4 6 C3.67 6.16 3.67 6.16 2 7 C2 5.68 2 4.36 2 3 C1.34 3 0.68 3 0 3 C0 2.01 0 1.02 0 0 Z " fill="#10754E" transform="translate(282,228)"/>
<path d="M0 0 C-0.33 0.99 -0.66 1.98 -1 3 C-2.98 3 -4.96 3 -7 3 C-7.33 2.34 -7.66 1.68 -8 1 C-5.24 0.4 -2.84 0 0 0 Z " fill="#38B879" transform="translate(333,229)"/>
<path d="M0 0 C0.69 1.69 0.69 1.69 1 4 C-0.31 6.75 -0.31 6.75 -2 9 C-2.66 9 -3.32 9 -4 9 C-2.8 5.92 -1.52 2.94 0 0 Z " fill="#3E826B" transform="translate(155,180)"/>
</svg>
