<?xml version="1.0" encoding="UTF-8"?>
<!-- Generator: visioncortex VTracer 0.6.12 -->
<svg version="1.1" xmlns="http://www.w3.org/2000/svg" width="512" height="512">
<path d="M0 0 C168.96 0 337.92 0 512 0 C512 168.96 512 337.92 512 512 C343.04 512 174.08 512 0 512 C0 343.04 0 174.08 0 0 Z " fill="#FBFBFB" transform="translate(0,0)"/>
<path d="M0 0 C1.12 0.5 2.24 0.99 3.39 1.5 C24.81 12.05 39.13 31.52 47.75 53.38 C52.51 68.06 55.4 83.42 57.25 98.73 C57.35 99.55 57.45 100.38 57.55 101.23 C58.05 105.31 58.51 109.39 58.91 113.47 C59.76 121.23 60.7 127.31 66.3 133.19 C71.37 138.58 73.53 146.16 75.75 153.06 C75.96 153.71 76.17 154.36 76.39 155.03 C81.78 172.66 81.44 196.02 73.68 212.87 C70.25 218.58 65.5 222.87 58.93 224.52 C57 224.81 57 224.81 54 225 C53.9 225.66 53.8 226.31 53.7 226.99 C51.19 237.86 45.99 248.37 39 257 C38.53 257.63 38.06 258.26 37.58 258.91 C30.83 267.53 22.12 271.54 12 275 C12.56 275.02 13.11 275.04 13.69 275.06 C60.93 276.82 60.93 276.82 76.5 278 C77.47 278.07 78.45 278.14 79.45 278.21 C94.07 279.42 94.07 279.42 98.06 282.69 C99.45 286.1 99.58 288.35 99 292 C96.89 294.89 96.21 295.79 93 297 C90.51 297.01 90.51 297.01 87.55 296.69 C81.78 296.15 76.03 295.75 70.25 295.46 C69.37 295.42 68.5 295.38 67.6 295.33 C65.79 295.24 63.98 295.16 62.17 295.07 C59.47 294.94 56.76 294.8 54.05 294.66 C44.94 294.21 35.85 293.91 26.72 293.88 C25.86 293.87 25 293.87 24.11 293.86 C18.12 293.88 18.12 293.88 17 295 C9.54 295.36 9.54 295.36 6 293 C3.68 292.61 1.34 292.27 -1 292 C-1 292.66 -1 293.32 -1 294 C-3.78 295.39 -5.92 295.18 -9 295 C-9.6 294.67 -10.2 294.34 -10.82 294 C-13.65 292.7 -15.89 292.74 -19.01 292.73 C-19.58 292.73 -19.58 292.73 -22.5 292.73 C-23.09 292.73 -23.09 292.73 -26.12 292.75 C-27.33 292.74 -28.54 292.73 -29.78 292.73 C-30.93 292.73 -32.07 292.73 -33.26 292.73 C-34.31 292.74 -35.36 292.74 -36.45 292.74 C-39 293 -39 293 -41 295 C-42.88 295.23 -42.88 295.23 -45 295.19 C-45.7 295.18 -46.4 295.17 -47.12 295.17 C-49 295 -49 295 -51 294 C-51 293.34 -51 292.68 -51 292 C-53.64 292 -56.28 292 -59 292 C-59 292.66 -59 293.32 -59 294 C-61.81 295.4 -64.06 294.64 -67.08 294.27 C-73.35 293.69 -79.65 293.81 -85.94 293.81 C-86.69 293.81 -87.45 293.81 -88.23 293.81 C-101.34 293.81 -114.38 294.37 -127.45 295.29 C-133.88 295.73 -140.3 296.13 -146.73 296.31 C-147.84 296.35 -148.95 296.39 -150.1 296.43 C-153.68 295.9 -154.8 294.81 -157 292 C-157.78 289.24 -157.66 286.79 -157 284 C-151.9 278.32 -144.86 278.75 -137.73 278.25 C-136.82 278.18 -135.92 278.12 -134.99 278.05 C-132.05 277.84 -129.12 277.64 -126.19 277.44 C-125.2 277.37 -124.21 277.3 -123.19 277.23 C-108.43 276.22 -93.79 275.58 -79 276 C-79 274.35 -79 272.7 -79 271 C-79.74 270.73 -80.47 270.46 -81.23 270.19 C-94.68 264.42 -103.58 250.08 -109 237 C-109.51 234.93 -109.98 232.85 -110.38 230.75 C-110.98 228.1 -110.98 228.1 -112 226 C-114.46 224.71 -116.71 224.2 -119.43 223.65 C-124.28 222.42 -127.48 219.28 -130.21 215.18 C-139.57 197.77 -139.53 172.72 -134.45 153.95 C-131.33 143.71 -126.67 133.67 -119 126 C-118.51 123.72 -118.12 121.42 -117.78 119.11 C-117.68 118.42 -117.57 117.73 -117.47 117.01 C-117.14 114.78 -116.82 112.55 -116.5 110.31 C-116.29 108.86 -116.07 107.4 -115.86 105.95 C-114.83 98.96 -113.86 91.96 -112.95 84.95 C-109.09 55.78 -97.66 27.39 -73.8 8.99 C-52.3 -6.32 -24.66 -11.05 0 0 Z " fill="#14B680" transform="translate(285,107)"/>
<path d="M0 0 C1.12 0.5 2.24 0.99 3.39 1.5 C24.81 12.05 39.13 31.52 47.75 53.38 C52.51 68.06 55.4 83.42 57.25 98.73 C57.35 99.55 57.45 100.38 57.55 101.23 C58.05 105.31 58.51 109.39 58.91 113.47 C59.76 121.23 60.7 127.31 66.3 133.19 C71.37 138.58 73.53 146.16 75.75 153.06 C75.96 153.71 76.17 154.36 76.39 155.03 C81.78 172.66 81.44 196.02 73.68 212.87 C70.25 218.58 65.5 222.87 58.93 224.52 C57 224.81 57 224.81 54 225 C53.9 225.66 53.8 226.31 53.7 226.99 C51.19 237.86 45.99 248.37 39 257 C38.53 257.63 38.06 258.26 37.58 258.91 C30.83 267.53 22.12 271.54 12 275 C12.56 275.02 13.11 275.04 13.69 275.06 C60.93 276.82 60.93 276.82 76.5 278 C77.47 278.07 78.45 278.14 79.45 278.21 C94.07 279.42 94.07 279.42 98.06 282.69 C99.45 286.1 99.58 288.35 99 292 C96.89 294.89 96.21 295.79 93 297 C90.51 297.01 90.51 297.01 87.55 296.69 C81.78 296.15 76.03 295.75 70.25 295.46 C69.37 295.42 68.5 295.38 67.6 295.33 C65.79 295.24 63.98 295.16 62.17 295.07 C59.47 294.94 56.76 294.8 54.05 294.66 C44.94 294.21 35.85 293.91 26.72 293.88 C25.86 293.87 25 293.87 24.11 293.86 C18.12 293.88 18.12 293.88 17 295 C9.54 295.36 9.54 295.36 6 293 C3.68 292.61 1.34 292.27 -1 292 C-1 292.66 -1 293.32 -1 294 C-3.78 295.39 -5.92 295.18 -9 295 C-9.6 294.67 -10.2 294.34 -10.82 294 C-13.65 292.7 -15.89 292.74 -19.01 292.73 C-19.58 292.73 -19.58 292.73 -22.5 292.73 C-23.09 292.73 -23.09 292.73 -26.12 292.75 C-27.33 292.74 -28.54 292.73 -29.78 292.73 C-30.93 292.73 -32.07 292.73 -33.26 292.73 C-34.31 292.74 -35.36 292.74 -36.45 292.74 C-39 293 -39 293 -41 295 C-42.88 295.23 -42.88 295.23 -45 295.19 C-45.7 295.18 -46.4 295.17 -47.12 295.17 C-49 295 -49 295 -51 294 C-51 293.34 -51 292.68 -51 292 C-53.64 292 -56.28 292 -59 292 C-59 292.66 -59 293.32 -59 294 C-61.81 295.4 -64.06 294.64 -67.08 294.27 C-73.35 293.69 -79.65 293.81 -85.94 293.81 C-86.69 293.81 -87.45 293.81 -88.23 293.81 C-101.34 293.81 -114.38 294.37 -127.45 295.29 C-133.88 295.73 -140.3 296.13 -146.73 296.31 C-147.84 296.35 -148.95 296.39 -150.1 296.43 C-153.68 295.9 -154.8 294.81 -157 292 C-157.78 289.24 -157.66 286.79 -157 284 C-151.9 278.32 -144.86 278.75 -137.73 278.25 C-136.82 278.18 -135.92 278.12 -134.99 278.05 C-132.05 277.84 -129.12 277.64 -126.19 277.44 C-125.2 277.37 -124.21 277.3 -123.19 277.23 C-108.43 276.22 -93.79 275.58 -79 276 C-79 274.35 -79 272.7 -79 271 C-79.74 270.73 -80.47 270.46 -81.23 270.19 C-94.68 264.42 -103.58 250.08 -109 237 C-109.51 234.93 -109.98 232.85 -110.38 230.75 C-110.98 228.1 -110.98 228.1 -112 226 C-114.46 224.71 -116.71 224.2 -119.43 223.65 C-124.28 222.42 -127.48 219.28 -130.21 215.18 C-139.57 197.77 -139.53 172.72 -134.45 153.95 C-131.33 143.71 -126.67 133.67 -119 126 C-118.51 123.72 -118.12 121.42 -117.78 119.11 C-117.68 118.42 -117.57 117.73 -117.47 117.01 C-117.14 114.78 -116.82 112.55 -116.5 110.31 C-116.29 108.86 -116.07 107.4 -115.86 105.95 C-114.83 98.96 -113.86 91.96 -112.95 84.95 C-109.09 55.78 -97.66 27.39 -73.8 8.99 C-52.3 -6.32 -24.66 -11.05 0 0 Z M-81 31 C-97.88 52.53 -108.8 89.94 -106 117 C-105.01 117.66 -104.02 118.32 -103 119 C-102.74 122.02 -102.68 124.84 -102.74 127.86 C-102.75 128.77 -102.76 129.67 -102.76 130.6 C-102.79 133.5 -102.83 136.41 -102.88 139.31 C-103.12 158.54 -102.96 177.59 -100.44 196.69 C-98.15 214.19 -98.15 214.19 -99 219 C-99.5 219.33 -99.5 219.33 -102 221 C-98.92 235.35 -92.14 250.1 -80.18 259.13 C-73.46 263.33 -66.77 265.59 -59 267 C-58.16 267.17 -57.32 267.34 -56.45 267.52 C-51.97 268.14 -47.57 268.2 -43.05 268.24 C-42.09 268.25 -41.12 268.25 -40.13 268.26 C-38.08 268.28 -36.04 268.29 -33.99 268.3 C-31.94 268.31 -29.89 268.33 -27.83 268.36 C-7.59 268.65 12.14 268.2 27.69 253.88 C35.22 245.95 42.3 234.45 43.22 223.31 C43 221 43 221 41 219 C40.05 211.5 41.5 203.62 42.44 196.19 C42.71 193.99 42.98 191.8 43.25 189.61 C43.37 188.65 43.49 187.69 43.61 186.7 C44.65 176.83 45.14 167.06 45.1 157.14 C45.1 155.98 45.09 154.82 45.09 153.63 C45.09 149.98 45.08 146.33 45.06 142.69 C45.06 140.19 45.05 137.7 45.05 135.21 C45.04 129.14 45.02 123.07 45 117 C45.99 117 46.98 117 48 117 C48.31 109.44 48.43 98.85 45 92 C44.7 89.77 44.44 87.54 44.19 85.31 C41.5 63.78 33.66 44.8 20 28 C19.69 27.59 19.69 27.59 18.13 25.52 C8.68 14.35 -6.33 7.05 -20.8 5.75 C-46.27 4.43 -64.15 11.02 -81 31 Z " fill="#09795B" transform="translate(285,107)"/>
<path d="M0 0 C5.73 3.27 9.7 7.12 12.16 13.32 C13.59 19.27 14.21 26.72 11.79 32.45 C11.62 32.71 11.62 32.71 10.81 34.03 C11.07 33.95 11.07 33.95 12.39 33.54 C15.48 32.89 18.4 32.94 21.56 32.97 C22.14 32.97 22.14 32.97 25.11 33 C26 33.01 26.89 33.02 27.81 33.03 C27.48 32.04 27.15 31.05 26.81 30.03 C25.37 13.79 25.37 13.79 30.95 6.87 C36.89 1 41.57 -2.1 50.06 -2.22 C58.45 -2.12 63.88 0.29 70.01 5.95 C74.9 11.6 76.48 18.37 76.12 25.72 C75.21 32.42 71.63 37.51 66.81 42.03 C60.78 46.35 55.86 47.16 48.56 47.09 C47.3 47.08 46.03 47.08 44.73 47.07 C43.77 47.05 42.8 47.04 41.81 47.03 C37.67 55.34 37.67 55.34 37.37 60.03 C36.79 66.54 33.16 72.03 28.62 76.59 C25 79.41 21.76 79.92 17.23 79.6 C11.97 78.36 9.17 75.17 6.34 70.72 C3.79 65.98 2.25 61.43 1.28 56.15 C0.56 52.89 -0.78 50.05 -2.19 47.03 C-3.09 47.08 -3.98 47.12 -4.9 47.17 C-13.73 47.44 -21.35 47.26 -28.25 41.23 C-34.18 34.87 -36.88 28.6 -36.6 19.87 C-35.46 11.94 -31.26 6.45 -25.25 1.41 C-17.93 -3.48 -7.98 -3.58 0 0 Z " fill="#0D7A58" transform="translate(236.19140625,175.96875)"/>
<path d="M0 0 C0.7 0.27 1.41 0.53 2.13 0.8 C3.12 1.16 4.11 1.51 5.12 1.88 C6.08 2.22 7.03 2.57 8.01 2.93 C20.39 6.58 33.27 6.31 46.05 6.26 C49.13 6.25 52.2 6.26 55.28 6.27 C64.12 6.28 72.6 6.2 81.29 4.45 C86.68 3.56 92.12 3.75 97.56 3.81 C98.82 3.82 100.08 3.83 101.37 3.84 C118.99 3.99 136.56 4.66 154.12 5.94 C155.19 6.01 156.25 6.09 157.34 6.16 C173.04 7.39 173.04 7.39 177.06 10.69 C178.45 14.1 178.58 16.35 178 20 C175.89 22.89 175.21 23.79 172 25 C169.51 25.01 169.51 25.01 166.55 24.69 C160.78 24.15 155.03 23.75 149.25 23.46 C148.37 23.42 147.5 23.38 146.6 23.33 C144.79 23.24 142.98 23.16 141.17 23.07 C138.47 22.94 135.76 22.8 133.05 22.66 C123.94 22.21 114.85 21.91 105.72 21.88 C105.29 21.88 105.29 21.88 103.11 21.86 C97.12 21.88 97.12 21.88 96 23 C88.54 23.36 88.54 23.36 85 21 C82.68 20.61 80.34 20.27 78 20 C78 20.66 78 21.32 78 22 C75.22 23.39 73.08 23.18 70 23 C69.4 22.67 68.8 22.34 68.18 22 C65.35 20.7 63.11 20.74 59.99 20.73 C58.84 20.73 57.69 20.73 56.5 20.73 C55.31 20.73 54.11 20.74 52.88 20.75 C51.67 20.74 50.46 20.73 49.22 20.73 C48.65 20.73 48.65 20.73 45.74 20.73 C44.69 20.74 43.64 20.74 42.55 20.74 C40 21 40 21 38 23 C36.12 23.23 36.12 23.23 34 23.19 C33.3 23.18 32.6 23.17 31.88 23.17 C30 23 30 23 28 22 C28 21.34 28 20.68 28 20 C25.36 20 22.72 20 20 20 C20 20.66 20 21.32 20 22 C17.19 23.4 14.94 22.64 11.92 22.27 C5.65 21.69 -0.65 21.81 -6.94 21.81 C-7.69 21.81 -8.45 21.81 -9.23 21.81 C-22.34 21.81 -35.38 22.37 -48.45 23.29 C-54.88 23.73 -61.3 24.13 -67.73 24.31 C-68.84 24.35 -69.95 24.39 -71.1 24.43 C-74.68 23.9 -75.8 22.81 -78 20 C-78.78 17.24 -78.66 14.79 -78 12 C-72.9 6.32 -65.86 6.75 -58.73 6.25 C-57.82 6.18 -56.92 6.12 -55.99 6.05 C-53.05 5.84 -50.12 5.64 -47.19 5.44 C-46.2 5.37 -45.21 5.3 -44.19 5.23 C-29.43 4.22 -14.79 3.58 0 4 C0 2.68 0 1.36 0 0 Z " fill="#E99718" transform="translate(206,379)"/>
<path d="M0 0 C3.96 1.45 5.61 2.23 7.5 6.06 C7.91 6.87 8.32 7.68 8.75 8.52 C9.16 9.34 9.57 10.16 10 11 C10.85 12.42 11.71 13.83 12.56 15.25 C22.22 32.59 22.22 55.46 18.05 74.46 C16.42 79.96 14.03 84.1 9.13 87.18 C6.59 88.16 4.59 88.27 1.88 88.25 C1.44 88.25 1.44 88.25 -0.76 88.27 C-3 88 -3 88 -5 86 C-5.01 83.45 -4.91 81.03 -4.69 78.5 C-4.64 77.81 -4.59 77.12 -4.54 76.41 C-4.15 71.29 -4.15 71.29 -3 69 C-2.79 66.7 -2.63 64.4 -2.5 62.09 C-2.46 61.38 -2.42 60.67 -2.38 59.95 C-2.25 57.61 -2.12 55.27 -2 52.94 C-1.96 52.14 -1.91 51.35 -1.87 50.53 C-0.95 33.7 -0.41 16.85 0 0 Z " fill="#06ADC9" transform="translate(337,236)"/>
<path d="M0 0 C0.33 0 0.66 0 1 0 C1.02 1.28 1.04 2.56 1.06 3.87 C1.14 8.73 1.23 13.59 1.32 18.44 C1.36 20.53 1.39 22.61 1.42 24.69 C1.7 42.66 2.47 60.62 5.63 78.34 C6.04 81.26 6.06 84.06 6 87 C2.27 89.49 -1.67 89.64 -6 89 C-11.38 86.62 -13.13 83.48 -15.19 78.23 C-15.46 77.5 -15.73 76.76 -16 76 C-16.39 74.97 -16.78 73.94 -17.19 72.88 C-22.69 53.4 -19.46 30.24 -9.78 12.8 C-7.02 8.15 -3.8 3.85 0 0 Z " fill="#06AFCA" transform="translate(174,235)"/>
<path d="M0 0 C23.43 -0.17 46.75 0.24 70.12 1.94 C71.19 2.01 72.25 2.09 73.34 2.16 C89.04 3.39 89.04 3.39 93.06 6.69 C94.45 10.1 94.58 12.35 94 16 C91.89 18.89 91.2 19.79 88 21 C85.54 21.01 85.54 21.01 82.61 20.69 C76.63 20.12 70.68 19.76 64.68 19.5 C63.77 19.46 62.86 19.42 61.92 19.38 C58.13 19.21 54.33 19.04 50.53 18.88 C47.73 18.75 44.92 18.63 42.12 18.5 C41.26 18.46 40.41 18.43 39.52 18.39 C38.72 18.36 37.93 18.32 37.1 18.28 C36.75 18.27 36.75 18.27 34.99 18.19 C32.91 17.99 31.02 17.51 29 17 C26.41 16.78 23.84 16.59 21.25 16.44 C20.55 16.39 19.86 16.35 19.14 16.31 C17.42 16.2 15.71 16.1 14 16 C13.73 15.19 13.46 14.39 13.18 13.56 C12.79 12.71 12.4 11.87 12 11 C11.03 10.69 10.06 10.38 9.06 10.06 C6 9 6 9 4.12 6 C3 3 3 3 3 1 C2.01 0.67 1.02 0.34 0 0 Z " fill="#B45610" transform="translate(290,383)"/>
<path d="M0 0 C0.25 0.74 0.51 1.47 0.77 2.23 C1.11 3.21 1.46 4.18 1.81 5.19 C2.15 6.15 2.49 7.11 2.83 8.11 C3.98 10.95 5.39 13.39 7 16 C-1.49 16.53 -9.99 17.05 -18.48 17.56 C-22.43 17.8 -26.37 18.05 -30.32 18.29 C-34.14 18.53 -37.96 18.76 -41.78 18.99 C-43.22 19.08 -44.67 19.17 -46.11 19.26 C-50.74 19.55 -55.37 19.79 -60 20 C-60.65 20.03 -60.65 20.03 -63.97 20.19 C-65.22 20.23 -66.47 20.27 -67.75 20.3 C-68.31 20.32 -68.31 20.32 -71.11 20.42 C-74.69 19.9 -75.81 18.81 -78 16 C-78.78 13.24 -78.66 10.79 -78 8 C-72.9 2.32 -65.86 2.75 -58.73 2.25 C-57.82 2.18 -56.92 2.12 -55.99 2.05 C-53.05 1.84 -50.12 1.64 -47.19 1.44 C-46.2 1.37 -45.21 1.3 -44.19 1.23 C-29.43 0.22 -14.79 -0.42 0 0 Z " fill="#B45712" transform="translate(206,383)"/>
<path d="M0 0 C5.38 2.47 9.06 5.96 11.74 11.32 C12.44 17.61 12.96 23.56 9.11 28.88 C7.43 30.73 7.43 30.73 5.74 32.32 C4.87 33.14 4.01 33.97 3.11 34.82 C-2.04 37.11 -6.73 37.26 -12.26 36.32 C-18.24 33.63 -22.92 28.42 -25.26 22.32 C-26.13 17.36 -25.88 13.61 -23.7 9.07 C-16.88 1.37 -10.62 -3.21 0 0 Z " fill="#EEF4F5" transform="translate(231.26171875,180.68359375)"/>
<path d="M0 0 C5.31 3.15 9.75 7.12 11.74 13.09 C12.58 19.18 11.71 23.34 8.17 28.37 C6.25 30.69 4.24 32.43 1.74 34.09 C1.14 34.51 0.55 34.92 -0.07 35.34 C-5.56 37.22 -11.11 36.38 -16.36 34.21 C-20.21 31.94 -23.45 28.47 -24.9 24.21 C-25.87 18.48 -26.18 13.01 -23.63 7.72 C-17.22 0.64 -9.68 -3.88 0 0 Z " fill="#F1F5F6" transform="translate(294.2578125,180.90625)"/>
<path d="M0 0 C0.66 0.25 1.31 0.51 1.99 0.77 C11.17 4.09 20.38 5.59 30 7 C30.16 7.82 30.16 7.82 31 12 C32.11 12.29 33.23 12.58 34.38 12.88 C38 14 38 14 40 16 C40.25 18.5 40.25 18.5 40 21 C38 23 38 23 36.12 23.23 C35.42 23.22 34.72 23.2 34 23.19 C33.3 23.18 32.6 23.17 31.88 23.17 C30 23 30 23 28 22 C28 21.34 28 20.68 28 20 C25.36 20 22.72 20 20 20 C20 20.66 20 21.32 20 22 C17.22 23.39 14.99 22.7 12 22.32 C8.15 21.91 4.3 21.67 0.44 21.44 C0.07 21.42 0.07 21.42 -1.77 21.31 C-3.51 21.2 -5.26 21.1 -7 21 C-7 20.67 -7 20.34 -7 20 C-4.85 19.83 -4.85 19.83 6 19 C5.6 18.38 5.6 18.38 3.56 15.25 C0.18 10.05 -0.12 6.2 0 0 Z " fill="#ED9A14" transform="translate(206,379)"/>
<path d="M0 0 C0.78 -0.02 1.56 -0.03 2.37 -0.05 C7.72 -0.05 11.41 0.89 16.19 3.31 C14.88 7.55 13.24 11.39 11.19 15.31 C10.53 15.31 9.87 15.31 9.19 15.31 C9.11 16.32 9.02 17.33 8.94 18.38 C8.35 22.69 6.5 25.66 4.19 29.31 C2.21 29.31 0.23 29.31 -1.81 29.31 C-7.77 17.4 -7.77 17.4 -8.82 15.3 C-9.71 13.51 -10.64 11.74 -11.56 9.97 C-12.89 7.16 -13.08 5.38 -12.81 2.31 C-8.83 -0.38 -4.62 -0.02 0 0 Z " fill="#E59A13" transform="translate(254.8125,216.6875)"/>
<path d="M0 0 C9.57 0 19.14 0 29 0 C29.66 2.31 30.32 4.62 31 7 C31.66 8.65 32.32 10.3 33 12 C25.41 12 17.82 12 10 12 C9.34 10.68 8.68 9.36 8 8 C6.82 7.53 5.65 7.05 4.44 6.56 C3.3 6.05 2.17 5.53 1 5 C0.84 4.18 0.84 4.18 0 0 Z " fill="#B0540D" transform="translate(236,386)"/>
<path d="M0 0 C7.77 -0.67 7.77 -0.67 11.44 2.38 C14.99 6.01 14.99 6.01 15.02 9.02 C14.46 15.39 14.46 15.39 12.12 18.5 C8.19 21.28 4.71 21.48 0 21 C-4.28 18.54 -4.28 18.54 -6 16 C-6.77 12.99 -6.99 10.1 -7 7 C-6.34 6.67 -5.68 6.34 -5 6 C-4.67 6.5 -4.67 6.5 -3 9 C-1.35 8.67 0.3 8.34 2 8 C2.2 4.28 2.15 3.23 0 0 Z " fill="#141C2B" transform="translate(288,188)"/>
<path d="M0 0 C8.67 -0.44 8.67 -0.44 13 3 C15.67 7 15.83 10.29 15 15 C12.82 17.76 11.13 19.44 8 21 C0.87 21.7 0.87 21.7 -2.94 18.62 C-6.46 14.15 -6.09 11.57 -6 6 C-5.34 5.67 -4.68 5.34 -4 5 C-3.34 6.32 -2.68 7.64 -2 9 C-0.35 8.67 1.3 8.34 3 8 C3 6.35 3 4.7 3 3 C2.01 2.67 1.02 2.34 0 2 C0 1.34 0 0.68 0 0 Z " fill="#141B2A" transform="translate(225,188)"/>
<path d="M0 0 C3.57 0.58 6.78 1.32 10 3 C11.19 5.3 11.67 7.4 12.22 9.92 C13 12 13 12 14.68 13.08 C15.32 13.3 15.96 13.52 16.62 13.75 C17.74 14.16 18.85 14.57 20 15 C21.12 17.5 21.12 17.5 21 20 C19.72 21.67 19.72 21.67 18 23 C14.31 22.75 14.31 22.75 11.96 22.39 C8.13 21.88 4.3 21.66 0.44 21.44 C-0.29 21.39 -1.02 21.35 -1.77 21.31 C-3.51 21.2 -5.26 21.1 -7 21 C-7 20.67 -7 20.34 -7 20 C-4.85 19.83 -4.85 19.83 6 19 C5.6 18.38 5.6 18.38 3.56 15.25 C0.18 10.05 -0.12 6.2 0 0 Z " fill="#EC9919" transform="translate(206,379)"/>
<path d="M0 0 C3.07 -0.35 5.94 -0.53 9 0 C11.25 2.88 11.25 2.88 13 6 C15.62 7.25 15.62 7.25 18 8 C18.66 8.66 19.32 9.32 20 10 C19.75 12.56 19.75 12.56 19 15 C16.22 16.39 14.08 16.18 11 16 C10.4 15.67 9.8 15.35 9.18 15.01 C6.35 13.7 4.04 13.68 0.92 13.59 C-0.24 13.55 -1.4 13.51 -2.59 13.47 C-3.8 13.44 -5.01 13.41 -6.25 13.38 C-7.47 13.34 -8.69 13.3 -9.95 13.26 C-12.97 13.16 -15.98 13.08 -19 13 C-19 12.67 -19 12.34 -19 12 C-11.41 12 -3.82 12 4 12 C3.34 10.85 3.34 10.85 0 5 C-0.25 2.06 -0.25 2.06 0 0 Z " fill="#E9951A" transform="translate(265,386)"/>
<path d="M0 0 C3.66 0.03 6.68 0.4 10 2 C12.41 5.78 13.7 9.73 15 14 C15.33 14.66 15.66 15.32 16 16 C14.35 16 12.7 16 11 16 C10.79 15.22 10.59 14.43 10.38 13.62 C8.52 10.09 6.7 10.21 3 9 C0.36 5.66 0 4.35 0 0 Z " fill="#B7590C" transform="translate(216,383)"/>
<path d="M0 0 C0.27 0.76 0.53 1.52 0.8 2.3 C1.16 3.29 1.51 4.29 1.88 5.31 C2.05 5.81 2.05 5.81 2.93 8.3 C4 11 4 11 6 14 C3.69 14.31 3.69 14.31 1 14 C-0.04 12.36 -1.04 10.69 -2 9 C-2.82 8.69 -3.65 8.38 -4.5 8.06 C-8 6.57 -8.59 4.41 -10 1 C-6.62 -0.04 -3.52 -0.08 0 0 Z " fill="#B15809" transform="translate(284,385)"/>
<path d="M0 0 C3.88 4.26 3.61 8.17 3.48 13.72 C2.76 18.66 0.72 21.75 -3 25 C-5.88 26.5 -5.88 26.5 -8 27 C-8 26.34 -8 25.68 -8 25 C-7.34 25 -6.68 25 -6 25 C-6 24.34 -6 23.68 -6 23 C-5.34 23 -4.68 23 -4 23 C-4 22.34 -4 21.68 -4 21 C-4.99 20.67 -5.98 20.34 -7 20 C-6.2 19.55 -5.39 19.09 -4.56 18.62 C-2 17 -2 17 -1 15 C-0.77 12.45 -0.58 9.93 -0.44 7.38 C-0.42 7.02 -0.42 7.02 -0.31 5.23 C-0.2 3.49 -0.1 1.74 0 0 Z " fill="#E0EBEE" transform="translate(240,188)"/>
<path d="M0 0 C2.7 2.46 3.83 4.32 4.2 8.05 C4.31 13.17 3.76 16.51 1 21 C-0.32 20.01 -1.64 19.02 -3 18 C-2.5 17.3 -2.01 16.6 -1.5 15.88 C0.51 12.01 0.51 9 -0.56 4.81 C-1 3 -1 3 0 0 Z " fill="#E3F2F3" transform="translate(302,188)"/>
<path d="M0 0 C-0.66 0.66 -1.32 1.32 -2 2 C2.62 2.33 2.62 2.33 26 4 C26 4.33 26 4.66 26 5 C13.31 5.18 0.67 4.62 -12 4 C-11 2 -11 2 -9 1.11 C-8.6 0.98 -8.6 0.98 -6.56 0.31 C-5.76 0.04 -4.96 -0.23 -4.13 -0.51 C-2 -1 -2 -1 0 0 Z " fill="#F3DAC8" transform="translate(308,379)"/>
<path d="M0 0 C2 1.19 2 1.19 4 3 C4.38 5.56 4.38 5.56 4 8 C3.34 8.66 2.68 9.32 2 10 C-0.62 9.62 -0.62 9.62 -3 9 C-3 7.68 -3 6.36 -3 5 C-3.66 4.67 -4.32 4.34 -5 4 C-3.35 2.68 -1.7 1.36 0 0 Z " fill="#EAEBEE" transform="translate(287,188)"/>
<path d="M0 0 C1.88 3.27 2.49 6.28 3 10 C3.33 10 3.66 10 4 10 C4 15.28 4 20.56 4 26 C3.67 26 3.34 26 3 26 C2.49 22.61 2 19.21 1.5 15.81 C1.36 14.85 1.21 13.89 1.07 12.9 C0.93 11.97 0.8 11.04 0.66 10.08 C0.53 9.23 0.4 8.37 0.28 7.5 C-0 4.98 -0.05 2.53 0 0 Z " fill="#028277" transform="translate(176,290)"/>
<path d="M0 0 C1.95 2.92 3.46 5.85 5 9 C5.33 9.66 5.66 10.32 6 11 C4.35 11 2.7 11 1 11 C0.77 10.2 0.55 9.39 0.31 8.56 C-0.12 7.72 -0.55 6.87 -1 6 C-3.62 5.19 -3.62 5.19 -6 5 C-6 4.67 -6 4.34 -6 4 C-4.02 4 -2.04 4 0 4 C0 2.68 0 1.36 0 0 Z " fill="#C16208" transform="translate(226,388)"/>
<path d="M0 0 C2.34 2.48 2.98 3.78 3.29 7.23 C3.26 8.39 3.22 9.55 3.19 10.75 C3.16 11.92 3.13 13.09 3.11 14.3 C3.07 15.19 3.04 16.08 3 17 C0.66 14.52 0.02 13.22 -0.29 9.77 C-0.28 9.19 -0.28 9.19 -0.19 6.25 C-0.16 5.08 -0.13 3.91 -0.11 2.7 C-0.07 1.81 -0.04 0.92 0 0 Z " fill="#C2DED8" transform="translate(240,188)"/>
<path d="M0 0 C0.99 0.33 1.98 0.66 3 1 C2.84 1.26 2.84 1.26 2.01 2.55 C0.64 5.87 0.81 8.67 0.88 12.25 C0.89 13.51 0.91 14.78 0.93 16.08 C0.95 17.04 0.98 18.01 1 19 C0.34 19 -0.32 19 -1 19 C-1.03 16.02 -1.05 13.04 -1.06 10.06 C-1.07 9.21 -1.08 8.36 -1.09 7.49 C-1.09 6.68 -1.09 5.87 -1.1 5.04 C-1.1 4.29 -1.11 3.54 -1.11 2.77 C-1 1 -1 1 0 0 Z " fill="#34806B" transform="translate(269,187)"/>
<path d="M0 0 C0.33 0.99 0.66 1.98 1 3 C-6.11 10.67 -6.11 10.67 -11 12 C-11.66 11.34 -12.32 10.68 -13 10 C-12.4 9.7 -11.79 9.39 -11.17 9.08 C-6.46 6.61 -3 4.56 0 0 Z " fill="#DCF0ED" transform="translate(357,321)"/>
<path d="M0 0 C2.17 3.26 4.07 6.59 6 10 C4.35 10 2.7 10 1 10 C0.01 8.02 -0.98 6.04 -2 4 C-1.34 4 -0.68 4 0 4 C0 2.68 0 1.36 0 0 Z " fill="#C26608" transform="translate(284,389)"/>
<path d="M0 0 C-1.5 2 -1.5 2 -4 4 C-6.76 4.36 -9.2 4.19 -12 4 C-11 2 -11 2 -9 1.11 C-8.6 0.98 -8.6 0.98 -6.56 0.31 C-5.76 0.04 -4.96 -0.23 -4.13 -0.51 C-2 -1 -2 -1 0 0 Z " fill="#CFDBCD" transform="translate(308,379)"/>
<path d="M0 0 C2.25 2.05 3 3.01 4 6 C4.07 7.56 4.09 9.13 4.06 10.69 C4.05 11.5 4.04 12.3 4.04 13.14 C4.02 13.75 4.01 14.37 4 15 C3.67 15 3.34 15 3 15 C2.67 12.36 2.34 9.72 2 7 C1.34 7 0.68 7 0 7 C-0.93 3.99 -1.04 3.13 0 0 Z " fill="#BEDBD8" transform="translate(302,188)"/>
<path d="M0 0 C3 4 3 4 4 7 C3.34 7 2.68 7 2 7 C2 8.65 2 10.3 2 12 C1.34 12 0.68 12 0 12 C0 8.04 0 4.08 0 0 Z " fill="#1B7C60" transform="translate(206,203)"/>
<path d="M0 0 C0.33 0 0.66 0 1 0 C1.03 1.62 1.05 3.25 1.06 4.88 C1.07 5.78 1.09 6.68 1.1 7.62 C1 10 1 10 0 12 C-0.99 11.67 -1.98 11.34 -3 11 C-2.01 7.37 -1.02 3.74 0 0 Z " fill="#F3F6F8" transform="translate(241,196)"/>
<path d="M0 0 C0.33 0 0.66 0 1 0 C1.33 5.28 1.66 10.56 2 16 C0.68 16 -0.64 16 -2 16 C-1.34 10.72 -0.68 5.44 0 0 Z " fill="#16A376" transform="translate(249,194)"/>
<path d="M0 0 C1.56 1.75 1.56 1.75 3 4 C2.88 6.19 2.88 6.19 2 8 C1.01 8.33 0.02 8.66 -1 9 C-1.1 2.85 -1.1 2.85 -1 1 C-0.67 0.67 -0.34 0.34 0 0 Z " fill="#2F343C" transform="translate(220,193)"/>
<path d="M0 0 C0.33 0.99 0.66 1.98 1 3 C-1.31 5.06 -1.31 5.06 -4 7 C-4.99 6.67 -5.98 6.34 -7 6 C-4.69 4.02 -2.38 2.04 0 0 Z " fill="#287F66" transform="translate(207,120)"/>
<path d="M0 0 C2.97 0 5.94 0 9 0 C9 0.66 9 1.32 9 2 C5.62 2.84 3.33 3.11 0 2 C0 1.34 0 0.68 0 0 Z " fill="#E19818" transform="translate(265,386)"/>
<path d="M0 0 C0.33 0 0.66 0 1 0 C1.37 4.55 1.37 4.55 -0.5 6.81 C-1 7.2 -1.49 7.6 -2 8 C-2.99 7.67 -3.98 7.34 -5 7 C-4.19 5.83 -3.38 4.66 -2.56 3.5 C-2.11 2.85 -1.66 2.2 -1.19 1.53 C-0.8 1.03 -0.41 0.52 0 0 Z " fill="#277C63" transform="translate(199,127)"/>
<path d="M0 0 C0.33 0 0.66 0 1 0 C2 7.62 2 7.62 2 11 C1.34 10.67 0.68 10.34 0 10 C-0.45 7.97 -0.45 7.97 -0.69 5.5 C-0.77 4.69 -0.86 3.87 -0.95 3.03 C-0.97 2.36 -0.98 1.69 -1 1 C-0.67 0.67 -0.34 0.34 0 0 Z " fill="#343841" transform="translate(282,194)"/>
<path d="M0 0 C0.99 0.33 1.98 0.66 3 1 C1.38 3.04 -0.29 5.04 -2 7 C-2.66 7 -3.32 7 -4 7 C-4 6.34 -4 5.68 -4 5 C-3.34 5 -2.68 5 -2 5 C-2 4.01 -2 3.02 -2 2 C-1.34 2 -0.68 2 0 2 C0 1.34 0 0.68 0 0 Z " fill="#277964" transform="translate(320,364)"/>
</svg>
