<?xml version="1.0" encoding="UTF-8"?>
<!-- Generator: visioncortex VTracer 0.6.12 -->
<svg version="1.1" xmlns="http://www.w3.org/2000/svg" width="512" height="512">
<path d="M0 0 C168.96 0 337.92 0 512 0 C512 168.96 512 337.92 512 512 C343.04 512 174.08 512 0 512 C0 343.04 0 174.08 0 0 Z " fill="#FBFBFB" transform="translate(0,0)"/>
<path d="M0 0 C12.64 0.65 22.16 10.63 30.12 19.44 C33 22.72 33 22.72 33 25 C33.65 24.98 34.31 24.96 34.98 24.94 C55.89 24.36 71.78 26.2 88.31 40.31 C94.82 46.48 99.19 53.08 102.81 61.25 C105.46 66.81 108.16 68.7 113.53 71.45 C119.04 74.91 122.09 80.71 124.44 86.62 C126.06 96.38 124.33 104.7 119.02 113.14 C116.52 116.62 114.03 119.97 111 123 C111.37 124.79 111.37 124.79 112 127 C112.09 128.81 112.13 130.62 112.12 132.44 C112.13 133.36 112.13 134.29 112.13 135.25 C112 138 112 138 111.29 140.22 C110.88 144.13 112.44 146.82 114.18 150.2 C114.52 150.88 114.85 151.55 115.2 152.25 C116.26 154.4 117.35 156.54 118.44 158.69 C119.52 160.84 120.59 163 121.67 165.16 C122.34 166.5 123.01 167.84 123.69 169.18 C126 173.78 126 173.78 126 176 C127.05 175.42 128.1 174.85 129.18 174.25 C143.13 166.79 143.13 166.79 149.04 167.4 C154.18 168.97 158.03 171.54 161 176 C161.8 176.31 162.61 176.62 163.44 176.94 C168.66 179.1 170.4 184.56 172.69 189.44 C173.01 190.09 173.33 190.75 173.66 191.42 C175.8 195.98 176.92 199.3 175.27 204.14 C174.88 208.31 176.6 211.38 178.37 215.04 C178.72 215.8 179.08 216.56 179.44 217.35 C180.57 219.78 181.72 222.2 182.88 224.62 C184.02 227.06 185.15 229.49 186.29 231.92 C187 233.43 187.71 234.94 188.42 236.45 C191.48 242.91 192.8 247.86 192 255 C188.61 261.78 183.29 265.08 176.56 268.16 C176.26 268.3 176.26 268.3 174.74 269.01 C172.83 269.89 170.91 270.76 169 271.62 C167.72 272.22 166.43 272.81 165.15 273.4 C148.46 281.07 148.46 281.07 141 280 C133.81 276.34 130.56 270.61 127.46 263.41 C127.14 262.68 126.82 261.94 126.48 261.19 C125.44 258.82 124.41 256.44 123.38 254.06 C122.3 251.62 121.23 249.17 120.15 246.73 C119.44 245.1 118.73 243.48 118.02 241.86 C114.7 234.29 111.28 226.77 107.83 219.26 C107.47 218.46 107.1 217.66 106.72 216.84 C106.41 216.16 106.1 215.49 105.78 214.79 C105 213 105 213 104 210 C103.89 210.66 103.79 211.33 103.68 212.01 C96.2 258.82 96.2 258.82 77 273 C75.46 273.89 73.9 274.76 72.34 275.62 C71.53 276.07 70.71 276.51 69.88 276.97 C69.57 277.14 69.57 277.14 68 278 C68.89 278.03 69.78 278.07 70.7 278.1 C79.22 278.42 87.75 278.74 96.28 279.07 C100.66 279.24 105.04 279.4 109.42 279.57 C126.36 280.2 143.31 280.84 160.23 281.91 C161.38 281.98 162.53 282.04 163.72 282.11 C164.76 282.18 165.81 282.25 166.88 282.33 C167.78 282.38 168.68 282.44 169.61 282.5 C172.46 283.1 173.92 283.97 176 286 C176.71 290.27 176.47 292.27 174.12 295.94 C166.89 300.71 154.92 297.66 146.62 297.06 C127.14 295.67 107.79 294.85 88.25 294.94 C86.27 294.94 84.29 294.95 82.31 294.95 C77.54 294.96 72.77 294.98 68 295 C68.33 295.33 68.66 295.66 69 296 C69.19 298.44 69.19 298.44 69 301 C67 303 67 303 63.19 303.44 C59.66 303.36 59.09 303.08 56.19 300.69 C55.47 299.8 54.74 298.91 54 298 C53.4 297.4 52.8 296.8 52.19 296.19 C51.8 295.8 51.4 295.4 51 295 C51.23 295.93 51.45 296.86 51.69 297.81 C52 301 52 301 51 302.94 C47.75 304.66 45.48 303.9 42 303 C38.21 300.56 37.06 299.12 35 295 C29.72 295 24.44 295 19 295 C19.66 295.33 20.32 295.66 21 296 C21.12 298.88 21.12 298.88 21 302 C19 304 19 304 16.31 304.5 C11.64 303.8 9.27 301.25 6 298 C5.53 298.8 5.05 299.61 4.56 300.44 C3 303 3 303 2 304 C-4.05 303.88 -4.05 303.88 -6.5 301.61 C-7 301.07 -7.49 300.53 -8.01 299.97 C-12.77 295.73 -17.65 296.29 -23.75 296.56 C-24.77 296.58 -25.79 296.6 -26.84 296.62 C-32.79 296.76 -38.69 297.2 -44.61 297.77 C-56.39 298.9 -56.39 298.9 -60.69 296.5 C-62.69 292.69 -62.54 290.29 -62 286 C-58.77 282.52 -54.87 282.3 -50.38 281.88 C-49.64 281.8 -48.91 281.72 -48.15 281.64 C-39.79 280.8 -31.4 280.37 -23 280 C-23.95 279.59 -24.91 279.18 -25.89 278.75 C-27.15 278.17 -28.42 277.58 -29.69 277 C-30.31 276.73 -30.94 276.47 -31.58 276.19 C-42.79 270.91 -46.98 254.84 -51 244 C-53.05 237.76 -54.58 231.41 -56 225 C-56.16 224.31 -56.31 223.61 -56.48 222.9 C-67.39 174.12 -59.28 115.49 -32.75 73 C-23.07 58.15 -10.07 43.03 6 35 C4.58 26.59 -3.01 19.27 -9.62 14.42 C-12.92 12.45 -16.35 11.22 -20.03 10.12 C-22 9 -22 9 -22.84 6.45 C-22.9 5.64 -22.95 4.83 -23 4 C-22 3 -22 3 -19.19 2.56 C-11.23 2.73 -3.79 7.86 1.75 13.19 C14 26.36 14 26.36 14 31 C14.39 30.86 14.39 30.86 16.34 30.12 C17.34 29.75 18.34 29.38 19.38 29 C20.37 28.63 21.37 28.26 22.4 27.88 C25 27 25 27 27 27 C20.1 18.7 12.66 10.5 2.12 7.06 C0 6 0 6 -0.88 3.44 C-0.92 2.63 -0.96 1.83 -1 1 C-0.67 0.67 -0.34 0.34 0 0 Z " fill="#087659" transform="translate(183,98)"/>
<path d="M0 0 C0.55 0 0.55 0 3.34 0.03 C17.36 0.32 26.95 4.51 37.31 13.94 C38.06 14.76 38.8 15.59 39.56 16.44 C40.09 16.99 40.61 17.55 41.16 18.12 C41.43 18.42 41.43 18.42 42.81 19.94 C43.31 20.48 43.81 21.03 44.33 21.59 C45.56 23.44 45.56 23.44 46.56 28.44 C42.6 28.77 38.64 29.1 34.56 29.44 C34.46 36.55 34.39 43.67 34.34 50.79 C34.32 53.21 34.3 55.63 34.26 58.04 C34.21 61.53 34.19 65.01 34.17 68.5 C34.15 69.57 34.13 70.65 34.11 71.76 C34.11 78.5 35.16 82.61 38.56 88.44 C38.56 89.1 38.56 89.76 38.56 90.44 C25.43 95.16 12.23 98.6 -1.44 101.44 C-2.15 101.62 -2.87 101.8 -3.61 101.99 C-7.87 102.67 -12.11 102.61 -16.42 102.65 C-18.41 102.68 -20.4 102.71 -22.38 102.73 C-25.5 102.78 -28.62 102.81 -31.73 102.84 C-34.75 102.87 -37.77 102.91 -40.79 102.96 C-41.71 102.96 -42.63 102.97 -43.57 102.97 C-54.99 103.18 -63.11 106.42 -71.35 114.25 C-80.12 123.47 -81.87 134.33 -81.65 146.65 C-80.81 161.65 -71.36 175.26 -60.56 185.19 C-53.33 191.19 -45.29 195.38 -36.44 198.44 C-36.12 198.55 -36.12 198.55 -34.49 199.12 C-28.34 200.98 -21.76 201.57 -15.44 200.44 C-12.2 198.65 -9.51 196.66 -6.68 194.29 C-4.44 192.44 -4.44 192.44 -1.44 191.44 C-1.44 190.78 -1.44 190.12 -1.44 189.44 C-0.07 188.13 -0.07 188.13 1.88 186.56 C15.1 175.22 24.33 161.26 33.54 146.64 C36.44 142.04 39.37 137.45 42.31 132.88 C42.88 131.98 43.45 131.09 44.03 130.17 C44.3 129.75 44.3 129.75 45.67 127.62 C46.16 126.86 46.64 126.11 47.14 125.33 C48.56 123.44 48.56 123.44 51.56 121.44 C51.73 133.9 51.3 146.2 50.31 158.62 C50.25 159.47 50.18 160.32 50.11 161.19 C49.04 174.77 47.51 188.12 44.56 201.44 C44.42 202.14 44.27 202.84 44.12 203.57 C41.41 216.42 35.36 224.12 24.57 231.38 C19.48 234.65 14.17 237.2 8.56 239.44 C7.74 239.78 6.93 240.12 6.08 240.46 C-14.08 248.25 -38.22 245.62 -58.31 239.12 C-59.19 238.84 -60.07 238.56 -60.98 238.27 C-68.16 235.81 -75.1 233.4 -78.98 226.5 C-79.7 224.97 -80.39 223.43 -81.06 221.88 C-81.25 221.46 -81.25 221.46 -82.2 219.35 C-86.14 210.27 -89.02 201.02 -91.44 191.44 C-91.54 191.06 -91.54 191.06 -92.07 189.12 C-104.03 144.69 -95.67 87.85 -72.98 48.18 C-62.9 31.2 -49.27 16.34 -31.62 7.25 C-31.31 7.08 -31.31 7.08 -29.69 6.24 C-20.06 1.46 -10.69 -0.1 0 0 Z " fill="#11B17E" transform="translate(228.4375,132.5625)"/>
<path d="M0 0 C0.33 0.33 0.33 0.33 2 2 C1.92 5.98 1.64 8.26 -1 11.31 C-1.23 11.51 -1.23 11.51 -2.37 12.54 C-10.8 20.1 -16.62 29.21 -22.58 38.73 C-24.93 42.49 -27.34 46.21 -29.75 49.94 C-29.98 50.29 -29.98 50.29 -31.15 52.1 C-40.86 67.07 -51.19 81.54 -65 93 C-65.82 93.73 -66.64 94.46 -67.48 95.21 C-68.33 95.95 -69.18 96.68 -70.06 97.44 C-70.45 97.78 -70.45 97.78 -72.41 99.5 C-77.6 102.51 -83.01 100.97 -88.51 99.53 C-105.97 94.57 -118 85.29 -127.6 69.77 C-131.33 62.41 -132.52 56.34 -132.5 48.06 C-132.53 47.12 -132.56 46.19 -132.59 45.22 C-132.61 37.05 -130.16 31.55 -124.75 25.48 C-115.89 17.99 -109.24 15.77 -97.62 16.04 C-95.97 16.07 -94.32 16.09 -92.67 16.12 C-91.81 16.13 -90.96 16.14 -90.08 16.15 C-74.96 16.35 -60.67 16.04 -46 12 C-45.19 11.79 -44.39 11.59 -43.56 11.38 C-38.14 9.97 -32.83 8.31 -27.54 6.48 C-26.89 6.26 -26.25 6.04 -25.58 5.81 C-22.92 4.89 -20.25 3.97 -17.59 3.03 C-15.62 2.34 -13.64 1.66 -11.66 0.98 C-10.5 0.58 -9.34 0.17 -8.15 -0.24 C-4.9 -1.02 -3.14 -1.06 0 0 Z " fill="#07AECD" transform="translate(286,226)"/>
<path d="M0 0 C3.57 3.16 5.4 6.38 7.45 10.66 C7.76 11.3 8.06 11.93 8.38 12.58 C9.02 13.91 9.65 15.25 10.28 16.58 C11.25 18.63 12.23 20.67 13.22 22.71 C18 32.7 18 32.7 18 35 C19.05 34.42 20.1 33.85 21.18 33.25 C36.51 25.04 36.51 25.04 43 27 C46.04 28.29 48.58 29.73 51 32 C52.06 34.75 52.06 34.75 52 37 C51.67 37.33 51.34 37.66 51 38 C51.4 43.33 52.94 47.59 55.31 52.31 C57.27 56.29 59.12 60.24 60.71 64.38 C62.58 69.13 64.71 73.74 66.89 78.35 C67.61 79.88 68.32 81.4 69.04 82.93 C70.15 85.29 71.26 87.64 72.38 89.99 C73.48 92.29 74.56 94.6 75.64 96.91 C75.98 97.61 76.32 98.3 76.66 99.01 C78.91 103.91 79.5 107.61 79 113 C75.76 117.38 71.53 119.55 66.69 121.81 C65.26 122.5 63.84 123.18 62.42 123.86 C61.69 124.21 60.96 124.56 60.21 124.92 C58.01 126 55.84 127.13 53.68 128.29 C52.98 128.66 52.28 129.03 51.55 129.41 C50.22 130.12 48.9 130.83 47.58 131.56 C42.7 134.1 39.36 134.74 34 134 C29.63 130.76 27.41 126.52 25.12 121.69 C24.78 120.99 24.44 120.29 24.09 119.56 C20.84 112.82 17.86 105.96 14.9 99.09 C13.64 96.18 12.36 93.28 11.07 90.38 C10.4 88.88 9.73 87.38 9.07 85.87 C7.33 81.94 5.55 78.03 3.71 74.14 C3.34 73.34 2.97 72.54 2.59 71.72 C1.89 70.2 1.17 68.69 0.44 67.19 C-1.86 62.21 -2.47 58.49 -2 53 C0.47 48.48 3.64 47 8.29 45.29 C10 44 10 44 10.76 41.29 C11.04 37.41 10.3 35.58 8.58 32.12 C8.05 31.04 7.52 29.95 6.97 28.83 C6.4 27.71 5.83 26.59 5.25 25.44 C4.97 24.88 4.97 24.88 3.58 22.03 C-0.49 13.81 -0.49 13.81 -2.73 10.27 C-3.15 9.52 -3.57 8.77 -4 8 C-3.31 5.94 -3.31 5.94 -2 4 C-1.63 3.26 -1.26 2.51 -0.88 1.75 C-0.59 1.17 -0.3 0.59 0 0 Z " fill="#1B2839" transform="translate(291,239)"/>
<path d="M0 0 C1.47 0.01 2.94 0.02 4.4 0.03 C26.38 0.29 48.36 1.57 70.31 2.68 C71.52 2.74 72.73 2.8 73.98 2.87 C77.3 3.04 80.62 3.23 83.94 3.44 C84.46 3.46 84.46 3.46 87.09 3.6 C88.06 3.67 89.04 3.73 90.04 3.8 C90.89 3.85 91.74 3.9 92.62 3.95 C95.43 4.54 96.88 5.45 98.94 7.44 C99.65 11.71 99.4 13.71 97.06 17.38 C89.82 22.15 77.86 19.1 69.56 18.5 C50.08 17.11 30.73 16.29 11.19 16.38 C9.21 16.38 7.23 16.38 5.25 16.39 C0.48 16.4 -4.29 16.42 -9.06 16.44 C-8.73 16.77 -8.4 17.1 -8.06 17.44 C-7.88 19.88 -7.88 19.88 -8.06 22.44 C-10.06 24.44 -10.06 24.44 -13.88 24.88 C-17.41 24.8 -17.97 24.51 -20.88 22.12 C-21.24 21.68 -21.24 21.68 -23.06 19.44 C-23.66 18.84 -24.26 18.24 -24.88 17.62 C-25.27 17.23 -25.66 16.84 -26.06 16.44 C-25.84 17.37 -25.61 18.29 -25.38 19.25 C-25.06 22.44 -25.06 22.44 -26.06 24.38 C-29.31 26.1 -31.58 25.34 -35.06 24.44 C-38.85 21.99 -40 20.56 -42.06 16.44 C-47.34 16.44 -52.62 16.44 -58.06 16.44 C-57.4 16.77 -56.74 17.1 -56.06 17.44 C-55.94 20.31 -55.94 20.31 -56.06 23.44 C-58.06 25.44 -58.06 25.44 -60.75 25.94 C-65.42 25.23 -67.79 22.69 -71.06 19.44 C-71.54 20.24 -72.01 21.05 -72.5 21.88 C-74.06 24.44 -74.06 24.44 -75.06 25.44 C-81.12 25.32 -81.12 25.32 -83.56 23.05 C-84.06 22.51 -84.56 21.96 -85.07 21.41 C-89.84 17.16 -94.72 17.73 -100.81 18 C-101.83 18.02 -102.85 18.04 -103.91 18.06 C-109.85 18.2 -115.75 18.63 -121.67 19.21 C-133.45 20.34 -133.45 20.34 -137.75 17.94 C-139.75 14.13 -139.61 11.73 -139.06 7.44 C-135.88 4.05 -132.11 3.7 -127.69 3.25 C-127.32 3.21 -127.32 3.21 -125.47 3.01 C-119.2 2.41 -112.93 2.2 -106.62 2.12 C-105.73 2.11 -104.83 2.09 -103.9 2.07 C-98.34 2.08 -93.71 2.93 -88.44 4.68 C-84.95 5.79 -81.42 6.44 -77.81 7.06 C-77.14 7.18 -76.48 7.3 -75.79 7.43 C-73.88 7.77 -71.97 8.11 -70.06 8.44 C-69.1 8.62 -68.13 8.81 -67.14 9 C-55.42 10.67 -43.81 9.8 -32.31 7.19 C-31.41 6.98 -30.51 6.78 -29.57 6.57 C-25.46 5.55 -21.95 4.47 -18.3 2.29 C-12.57 -0.71 -6.31 -0.11 0 0 Z " fill="#F09B14" transform="translate(260.0625,376.5625)"/>
<path d="M0 0 C0.62 -0 0.62 -0 3.75 -0.02 C5.14 -0.01 6.52 0.01 7.91 0.02 C8.27 0.02 8.27 0.02 10.08 0.03 C27.39 0.11 44.69 1.01 61.97 1.84 C62.32 1.85 62.32 1.85 64.1 1.94 C68.85 2.17 73.6 2.4 78.35 2.64 C78.95 2.67 78.95 2.67 82.02 2.83 C85.34 3 88.65 3.2 91.97 3.4 C92.49 3.43 92.49 3.43 95.12 3.56 C96.1 3.63 97.07 3.69 98.07 3.76 C98.93 3.81 99.78 3.86 100.65 3.91 C103.47 4.5 104.91 5.41 106.97 7.4 C107.68 11.67 107.44 13.67 105.1 17.34 C98.05 21.99 86.7 19.09 78.61 18.48 C67.85 17.72 57.11 17.16 46.33 16.8 C44.06 16.72 41.78 16.64 39.51 16.56 C27.08 16.12 27.08 16.12 21.03 15.95 C17.18 15.84 13.34 15.7 9.49 15.55 C8.04 15.5 6.6 15.46 5.15 15.42 C3.16 15.37 1.16 15.29 -0.83 15.21 C-1.96 15.17 -3.09 15.14 -4.25 15.1 C-7.03 14.4 -7.03 14.4 -8.9 12.02 C-10.1 9.24 -10.28 7.39 -10.03 4.4 C-10.69 4.07 -11.35 3.74 -12.03 3.4 C-7.83 1.04 -4.81 0.02 0 0 Z " fill="#B15510" transform="translate(252.02734375,376.6015625)"/>
<path d="M0 0 C4.51 1.2 6.49 2.09 9 6 C10.29 8.47 11.51 10.92 12.69 13.44 C13.01 14.09 13.33 14.75 13.66 15.42 C15.8 19.98 16.92 23.3 15.27 28.14 C14.88 32.31 16.6 35.38 18.37 39.04 C18.72 39.8 19.08 40.56 19.44 41.35 C20.57 43.78 21.72 46.2 22.88 48.62 C24.02 51.06 25.15 53.49 26.29 55.92 C27 57.43 27.71 58.94 28.42 60.45 C31.48 66.91 32.8 71.86 32 79 C28.61 85.78 23.29 89.08 16.56 92.16 C16.26 92.3 16.26 92.3 14.74 93.01 C12.83 93.89 10.91 94.76 9 95.62 C7.72 96.22 6.43 96.81 5.15 97.4 C-11.54 105.07 -11.54 105.07 -19 104 C-26.19 100.34 -29.44 94.61 -32.54 87.41 C-32.86 86.68 -33.18 85.94 -33.52 85.19 C-34.56 82.82 -35.59 80.44 -36.62 78.06 C-37.34 76.43 -38.05 74.81 -38.77 73.18 C-39.84 70.74 -40.91 68.31 -41.98 65.87 C-44.93 59.14 -47.94 52.44 -51 45.75 C-51.41 44.84 -51.83 43.93 -52.26 43 C-53.17 41 -54.08 39 -55 37 C-54.67 36.83 -54.67 36.83 -53 36 C-53 36.66 -53 37.32 -53 38 C-52.34 38 -51.68 38 -51 38 C-51 36.68 -51 35.36 -51 34 C-51.66 34 -52.32 34 -53 34 C-53 32.02 -53 30.04 -53 28 C-51.23 30.66 -49.93 33.14 -48.6 36.03 C-48.13 37.06 -47.65 38.08 -47.17 39.14 C-46.66 40.25 -46.15 41.36 -45.62 42.5 C-45.1 43.65 -44.57 44.79 -44.02 45.98 C-39.65 55.5 -35.39 65.06 -31.19 74.66 C-28.82 80.04 -26.39 85.38 -23.84 90.66 C-23.6 91.15 -23.6 91.15 -22.41 93.62 C-21 96 -21 96 -18 98 C-11.87 98.57 -7.89 97.48 -2.5 94.5 C-1.11 93.76 0.28 93.03 1.67 92.3 C2.38 91.92 3.09 91.54 3.82 91.15 C6.01 89.99 8.22 88.9 10.45 87.83 C10.81 87.65 10.81 87.65 12.63 86.77 C14.01 86.11 15.39 85.45 16.77 84.79 C23.67 81.41 23.67 81.41 26 78 C26.47 72.02 25.53 67.85 22.89 62.44 C22.72 62.09 22.72 62.09 21.9 60.32 C21.2 58.83 20.5 57.35 19.79 55.86 C18.68 53.54 17.58 51.21 16.49 48.87 C15.03 45.73 13.56 42.59 12.09 39.46 C9.18 33.25 6.35 27.01 3.56 20.75 C3.11 19.75 2.66 18.76 2.19 17.73 C-0 12.8 -1.84 8.43 -2 3 C-1.34 2.01 -0.68 1.02 0 0 Z " fill="#13705C" transform="translate(343,274)"/>
<path d="M0 0 C10.29 -0.11 18.39 2.78 26 10 C30.28 15.25 30.74 19.93 30.51 26.65 C29.29 34.68 24.54 41.36 18.68 46.83 C17 48 17 48 14.06 48.44 C13.38 48.29 12.7 48.15 12 48 C11.77 47.22 11.55 46.44 11.32 45.63 C9.64 42.28 8.36 42.13 4.91 40.87 C2.19 39.34 0.37 38.26 -0.54 35.18 C-1.29 29.51 -0.91 23.81 -0.62 18.12 C-0.57 16.37 -0.53 14.61 -0.49 12.86 C-0.38 8.57 -0.21 4.29 0 0 Z " fill="#E99B12" transform="translate(270,169)"/>
<path d="M0 0 C6.46 2.57 10.52 7.12 14 13 C15.76 18.61 15.6 24.12 13.81 29.69 C10.72 35.35 7.38 39.64 1.43 42.3 C-4.55 44.03 -10.92 44.34 -16.7 41.82 C-22.91 37.85 -27.34 33.35 -29 26 C-29.77 19.06 -28.96 13.81 -25 8 C-22.75 5.5 -22.75 5.5 -21 4 C-20.34 4.33 -19.68 4.66 -19 5 C-19.32 5.22 -19.32 5.22 -20.95 6.36 C-24.06 10.37 -23.67 14.31 -23.75 19.25 C-23.78 20.19 -23.81 21.12 -23.84 22.09 C-23.91 24.39 -23.96 26.69 -24 29 C-23.01 29 -22.02 29 -21 29 C-19.66 30.66 -18.32 32.33 -17 34 C-13.48 36.83 -10.58 37.48 -6.05 37.29 C-1.35 36.63 2.02 35.01 5.31 31.62 C8.49 26.68 9.61 22.94 9 17 C7.04 11.7 4.06 8.63 -1 6 C-2.32 6 -3.64 6 -5 6 C-4.59 6.35 -4.59 6.35 -2.5 8.12 C0 11 0 11 0.56 13.94 C-0.19 18.02 -2.06 21.06 -5 24 C-8.72 24.61 -12.46 25.02 -15.71 22.87 C-18.14 20.19 -18.98 18.21 -19.31 14.62 C-19.21 13.76 -19.11 12.89 -19 12 C-16.69 12.33 -14.38 12.66 -12 13 C-11.45 10.92 -11 9.16 -11 7 C-11.99 6.67 -12.98 6.34 -14 6 C-14 5.34 -14 4.68 -14 4 C-14.66 3.67 -15.32 3.34 -16 3 C-16 2.34 -16 1.68 -16 1 C-11.28 -1.36 -5.11 -0.57 0 0 Z " fill="#11775C" transform="translate(244,157)"/>
<path d="M0 0 C0.94 -0.01 1.88 -0.02 2.85 -0.03 C3.74 -0.02 4.63 -0.02 5.55 -0.02 C6.33 -0.01 7.12 -0.01 7.93 -0.01 C10.81 0.31 12.75 0.76 15.25 2.25 C16.18 5.07 16.18 5.07 16.56 8.38 C16.7 9.47 16.84 10.57 16.99 11.7 C17.07 12.54 17.16 13.38 17.25 14.25 C12.47 14.68 7.68 15.11 2.9 15.53 C1.28 15.68 -0.34 15.82 -1.97 15.97 C-26.98 18.24 -26.98 18.24 -31.44 15.75 C-33.44 11.94 -33.29 9.54 -32.75 5.25 C-29.56 1.86 -25.8 1.51 -21.38 1.06 C-20.65 0.98 -19.92 0.9 -19.17 0.82 C-12.79 0.21 -6.41 0.04 0 0 Z " fill="#B15610" transform="translate(153.75,378.75)"/>
<path d="M0 0 C4.51 1.2 6.49 2.09 9 6 C10.29 8.47 11.51 10.92 12.69 13.44 C13.01 14.09 13.33 14.75 13.66 15.42 C15.8 19.98 16.92 23.3 15.27 28.14 C14.88 32.31 16.6 35.38 18.37 39.04 C18.72 39.8 19.08 40.56 19.44 41.35 C20.57 43.78 21.72 46.2 22.88 48.62 C24.02 51.06 25.15 53.49 26.29 55.92 C27 57.43 27.71 58.94 28.42 60.45 C31.48 66.91 32.8 71.86 32 79 C29.79 83.41 27.08 86.25 23 89 C20.69 89.75 20.69 89.75 19 90 C19 89.34 19 88.68 19 88 C19.66 87.84 19.66 87.84 23 87 C23 86.34 23 85.68 23 85 C22.34 85 21.68 85 21 85 C22 82 22 82 24.06 80.31 C26.4 77.52 26.35 75.73 26.26 72.17 C25.84 68.63 24.43 65.6 22.89 62.44 C22.56 61.74 22.24 61.04 21.9 60.32 C21.2 58.83 20.5 57.35 19.79 55.86 C18.68 53.54 17.58 51.21 16.49 48.87 C15.03 45.73 13.56 42.59 12.09 39.46 C9.18 33.25 6.35 27.01 3.56 20.75 C3.11 19.75 2.66 18.76 2.19 17.73 C-0 12.8 -1.84 8.43 -2 3 C-1.34 2.01 -0.68 1.02 0 0 Z " fill="#1C745E" transform="translate(343,274)"/>
<path d="M0 0 C3.56 -0.54 5.64 0.13 8.56 2.06 C13.22 5.68 15.63 9.49 16.5 15.44 C15.64 21.55 12.99 27.18 8 31 C3.53 33.03 -1.14 34.03 -6 33 C-10.21 30.81 -13.22 28.08 -16 24.25 C-17.73 18.63 -18.05 13.28 -15.56 7.88 C-15.05 7.26 -14.53 6.64 -14 6 C-13.67 6 -13.34 6 -13 6 C-12.95 6.31 -12.95 6.31 -12.67 7.86 C-12.51 8.67 -12.35 9.48 -12.19 10.31 C-12.04 11.11 -11.89 11.91 -11.73 12.74 C-10.9 15.32 -10.19 16.4 -8 18 C-4.91 18.73 -2.1 18.69 1 18 C3.87 15.06 4.81 13.02 5.56 9 C4.78 4.82 2.91 3.06 0 0 Z " fill="#F2F7F8" transform="translate(238,162)"/>
<path d="M0 0 C0.15 0.55 0.15 0.55 0.94 3.31 C1.58 5.55 2.26 7.79 3 10 C10.92 10 18.84 10 27 10 C27 10.33 27 10.66 27 11 C21.06 11.33 15.12 11.66 9 12 C9.16 12.17 9.16 12.17 10 13 C10.19 15.44 10.19 15.44 10 18 C8 20 8 20 4.19 20.44 C0.66 20.36 0.09 20.08 -2.81 17.69 C-3.53 16.8 -4.26 15.91 -5 15 C-5.6 14.4 -6.2 13.8 -6.81 13.19 C-7.2 12.8 -7.6 12.4 -8 12 C-7.77 12.93 -7.55 13.86 -7.31 14.81 C-7 18 -7 18 -8 19.94 C-11.25 21.66 -13.52 20.9 -17 20 C-19.81 18.56 -19.81 18.56 -22 16 C-22.99 12.7 -23.56 9.41 -24 6 C-21.36 5.67 -18.72 5.34 -16 5 C-15.34 6.32 -14.68 7.64 -14 9 C-12.02 9 -10.04 9 -8 9 C-8 6.69 -8 4.38 -8 2 C-4.91 0.24 -3.77 0 0 0 Z " fill="#EB9D1E" transform="translate(242,381)"/>
<path d="M0 0 C0.33 0.6 0.66 1.2 1 1.81 C3.35 4.39 5.59 5 8.83 6.11 C16.78 9.37 23.45 16.67 29 23 C29 23.66 29 24.32 29 25 C27.4 25.67 25.79 26.34 24.19 27 C23.29 27.37 22.4 27.74 21.48 28.12 C19 29 19 29 16 29 C14.49 27.16 14.49 27.16 12.88 24.62 C8.3 17.78 2.86 11.77 -3 6 C-2.01 4.02 -1.02 2.04 0 0 Z " fill="#F0F8F9" transform="translate(181,100)"/>
<path d="M0 0 C3.94 3.94 5.89 8.28 8.31 13.25 C8.79 14.18 9.27 15.11 9.77 16.07 C13.54 23.81 13.54 23.81 12.58 28.02 C10.8 31.37 9.89 32.18 6.38 33.44 C5.56 33.75 4.74 34.05 3.9 34.37 C3.27 34.58 2.65 34.79 2 35 C2 34.34 2 33.68 2 33 C1.34 33 0.68 33 0 33 C0 32.34 0 31.68 0 31 C-1.32 30.67 -2.64 30.34 -4 30 C-4 27.36 -4 24.72 -4 22 C-3.34 22 -2.68 22 -2 22 C-1.34 14.74 -0.68 7.48 0 0 Z " fill="#425665" transform="translate(290,253)"/>
<path d="M0 0 C4.51 1.2 6.49 2.09 9 6 C10.29 8.47 11.51 10.92 12.69 13.44 C13.01 14.09 13.33 14.75 13.66 15.42 C15.37 19.06 16.56 21.96 16 26 C14.5 28.31 14.5 28.31 13 30 C10.3 29.39 8.5 28.71 6.87 26.4 C5.77 24.34 4.78 22.25 3.81 20.12 C3.47 19.4 3.13 18.68 2.78 17.94 C2.14 16.59 1.5 15.25 0.88 13.89 C0.26 12.55 -0.41 11.23 -1.09 9.92 C-2.26 7.45 -2.28 5.7 -2 3 C-1.34 2.01 -0.68 1.02 0 0 Z " fill="#32C671" transform="translate(343,274)"/>
<path d="M0 0 C5.08 3.39 5.08 3.39 6.59 6.64 C6.36 9.64 5.42 10.9 3.41 13.08 C3.1 12.6 3.1 12.6 1.53 10.14 C-0.59 7.08 -0.59 7.08 -2.59 6.08 C-12.95 5.16 -21.16 10.24 -30.12 14.91 C-32.59 16.08 -32.59 16.08 -34.59 16.08 C-34.84 13.77 -34.84 13.77 -34.59 11.08 C-30.69 7.68 -26.02 5.64 -21.41 3.39 C-20.59 2.98 -19.78 2.56 -18.94 2.13 C-12.58 -0.95 -6.85 -2.42 0 0 Z " fill="#146E5B" transform="translate(336.59375,266.91796875)"/>
<path d="M0 0 C4.8 0.11 8.08 0.34 12.06 3.19 C14.4 6.58 14.74 7.96 14 12 C12.5 14.56 11.11 16.89 9 19 C5.28 19.61 1.54 20.02 -1.71 17.87 C-4.14 15.19 -4.98 13.21 -5.31 9.62 C-5.21 8.76 -5.11 7.89 -5 7 C-2.69 7.33 -0.38 7.66 2 8 C2.55 5.92 3 4.16 3 2 C2.01 1.67 1.02 1.34 0 1 C0 0.67 0 0.34 0 0 Z " fill="#1A1F2E" transform="translate(230,162)"/>
<path d="M0 0 C3.23 0.21 6.06 0.61 9 2 C10.7 4.87 11.42 7.74 12 11 C12.99 11 13.98 11 15 11 C15 11.66 15 12.32 15 13 C15.66 13 16.32 13 17 13 C17.04 15.33 17.04 17.67 17 20 C16.67 20.33 16.34 20.66 16 21 C11.4 20.91 8.97 20.23 5.81 17 C1.31 12.69 -4.05 13.02 -10 13 C-10 12.67 -10 12.34 -10 12 C-6.04 12 -2.08 12 2 12 C1.34 10.35 0.68 8.7 0 7 C-0.08 4.67 -0.09 2.33 0 0 Z " fill="#EF9C18" transform="translate(169,381)"/>
<path d="M0 0 C6.65 0.11 13.52 3.96 18.29 8.39 C19.94 10.31 19.94 10.31 22.19 13.44 C21.86 13.93 21.86 13.93 20.19 16.44 C19.53 16.44 18.87 16.44 18.19 16.44 C17.86 17.1 17.53 17.76 17.19 18.44 C16.97 18.21 16.97 18.21 15.86 17.08 C10.87 12.33 6.16 9.95 -0.37 7.77 C-2.81 6.44 -2.81 6.44 -3.72 3.85 C-3.74 3.45 -3.74 3.45 -3.81 1.44 C-2.81 0.44 -2.81 0.44 0 0 Z " fill="#0E765A" transform="translate(163.8125,100.5625)"/>
<path d="M0 0 C-1 3 -1 3 -3.85 4.58 C-5.1 5.15 -6.36 5.7 -7.62 6.25 C-8.99 6.86 -10.35 7.47 -11.72 8.08 C-12.42 8.39 -13.13 8.71 -13.86 9.03 C-15.97 9.99 -18.07 10.99 -20.16 12.01 C-20.82 12.33 -21.49 12.66 -22.17 12.99 C-23.45 13.61 -24.72 14.23 -25.99 14.87 C-29.47 16.54 -32.13 17.36 -36 17 C-35.91 15.22 -35.91 15.22 -35 13 C-32.83 11.63 -30.83 10.56 -28.52 9.51 C-28.19 9.36 -28.19 9.36 -26.54 8.58 C-25.16 7.93 -23.77 7.29 -22.38 6.66 C-20.26 5.69 -18.16 4.7 -16.05 3.69 C-14.71 3.07 -13.36 2.45 -12.02 1.82 C-11.39 1.53 -10.76 1.23 -10.11 0.92 C-6.35 -0.77 -3.96 -1.3 0 0 Z " fill="#58657B" transform="translate(350,320)"/>
<path d="M0 0 C3.99 1.37 6.96 3.05 10 6 C10 7.32 10 8.64 10 10 C11.98 9.67 13.96 9.34 16 9 C16 9.66 16 10.32 16 11 C9.2 12.9 3.08 14.41 -4 14 C-4 10.04 -4 6.08 -4 2 C-2.68 2 -1.36 2 0 2 C0 1.34 0 0.68 0 0 Z " fill="#30713E" transform="translate(272,207)"/>
<path d="M0 0 C-0.25 1.86 -0.25 1.86 -1 4 C-2.71 5.22 -2.71 5.22 -4.94 6.22 C-5.75 6.59 -6.56 6.97 -7.4 7.36 C-8.26 7.73 -9.12 8.11 -10 8.5 C-10.83 8.88 -11.65 9.26 -12.5 9.64 C-14.17 10.4 -15.83 11.15 -17.5 11.89 C-19.18 12.64 -20.86 13.39 -22.53 14.16 C-23.32 14.53 -24.11 14.89 -24.93 15.27 C-25.64 15.59 -26.35 15.92 -27.08 16.26 C-29.46 17.18 -31.48 17.33 -34 17 C-34 16.01 -34 15.02 -34 14 C-29.97 11.99 -25.93 10 -21.88 8.02 C-20.51 7.34 -19.14 6.66 -17.77 5.98 C-15.79 5 -13.81 4.03 -11.83 3.06 C-11.22 2.76 -10.61 2.45 -9.99 2.13 C-6.51 0.45 -3.87 -0.36 0 0 Z " fill="#59657C" transform="translate(354,331)"/>
<path d="M0 0 C0 0.99 0 1.98 0 3 C-4.2 4.98 -8.4 6.96 -12.6 8.93 C-14.03 9.6 -15.45 10.27 -16.88 10.94 C-18.93 11.91 -20.99 12.88 -23.05 13.84 C-23.68 14.14 -24.32 14.44 -24.97 14.75 C-27.94 16.14 -30.77 17.38 -34 18 C-34.33 16.68 -34.66 15.36 -35 14 C-30.99 11.99 -26.97 10 -22.94 8.02 C-21.57 7.34 -20.21 6.66 -18.84 5.98 C-16.88 5 -14.9 4.03 -12.93 3.06 C-12.33 2.76 -11.72 2.45 -11.1 2.13 C-7.24 0.27 -4.27 -0.32 0 0 Z " fill="#59647A" transform="translate(344,308)"/>
<path d="M0 0 C6.86 0.35 13.53 3.83 18.62 8.31 C18.85 8.59 18.85 8.59 20 10 C19.67 10.5 19.67 10.5 18 13 C18.99 13.99 19.98 14.98 21 16 C20.67 16.99 20.34 17.98 20 19 C19.5 18.54 19.01 18.08 18.5 17.61 C13.44 13.04 8.69 9.2 2.12 7.06 C0 6 0 6 -0.88 3.44 C-0.92 2.63 -0.96 1.83 -1 1 C-0.67 0.67 -0.34 0.34 0 0 Z " fill="#1C7960" transform="translate(183,98)"/>
<path d="M0 0 C4.09 1.36 5.55 3.52 8 7 C7.81 9.38 7.81 9.38 7 11 C4.09 11.81 2.54 12.22 -0.31 11.06 C-0.87 10.71 -1.43 10.36 -2 10 C-4.26 13.59 -4.21 16.57 -4.12 20.75 C-4.11 21.92 -4.09 23.09 -4.07 24.3 C-4.05 25.19 -4.02 26.08 -4 27 C-4.66 27 -5.32 27 -6 27 C-6.18 23.81 -6.28 20.63 -6.38 17.44 C-6.43 16.54 -6.48 15.65 -6.53 14.72 C-6.64 9.69 -6.32 6.75 -2.98 2.85 C-2.01 1.87 -1.02 0.92 0 0 Z " fill="#047757" transform="translate(226,159)"/>
<path d="M0 0 C3.17 2.65 4.5 5.84 6.19 9.56 C6.45 10.14 6.45 10.14 7.79 13.07 C9 16 9 16 9 18 C7.35 18.5 7.35 18.5 -1 21 C-1.1 13.92 -0.75 7.04 0 0 Z " fill="#E8F0F1" transform="translate(290,253)"/>
<path d="M0 0 C3.5 0.25 3.5 0.25 5.5 2.25 C5.81 5.75 5.81 5.75 5.5 9.25 C2.05 11.55 0.55 11.59 -3.5 11.25 C-5.5 9.25 -5.5 9.25 -5.75 5.75 C-5.41 0.98 -4.77 0.34 0 0 Z " fill="#31C36C" transform="translate(306.5,291.75)"/>
<path d="M0 0 C4.6 0.11 7.3 1.19 10.75 4.38 C11.81 6.88 11.81 6.88 11.75 9.38 C10.31 11.69 10.31 11.69 8.75 13.38 C8.13 12.41 7.51 11.44 6.88 10.44 C4.75 7.38 4.75 7.38 2.75 6.38 C1.04 6.31 -0.67 6.29 -2.38 6.31 C-3.29 6.32 -4.2 6.33 -5.13 6.34 C-5.48 6.35 -5.48 6.35 -7.25 6.38 C-6.3 1.64 -4.88 0.08 0 0 Z " fill="#126D57" transform="translate(331.25,266.625)"/>
<path d="M0 0 C0.66 0.33 1.32 0.66 2 1 C1.35 1.54 0.71 2.08 0.04 2.63 C-2.49 5.57 -2.53 7.03 -2.61 10.86 C-2.64 11.97 -2.67 13.09 -2.71 14.24 C-2.71 14.82 -2.71 14.82 -2.75 17.75 C-2.78 18.92 -2.81 20.1 -2.84 21.31 C-2.91 24.21 -2.96 27.1 -3 30 C-6.76 27.49 -6.99 26.36 -8 22 C-8.78 15.07 -7.96 9.81 -4 4 C-1.75 1.5 -1.75 1.5 0 0 Z " fill="#057E5C" transform="translate(223,161)"/>
<path d="M0 0 C3.19 1.22 5.31 3.04 7.69 5.44 C8.29 6.03 8.89 6.63 9.51 7.25 C11 9 11 9 12 12 C11.06 15.19 11.06 15.19 10 18 C8.68 17.67 7.36 17.34 6 17 C6.66 17 7.32 17 8 17 C7.8 16.78 7.8 16.78 6.76 15.64 C3.7 12.22 1.51 9.4 0 5 C-0.66 4.34 -1.32 3.68 -2 3 C-2 2.34 -2 1.68 -2 1 C-1.34 0.67 -0.68 0.34 0 0 Z " fill="#17775C" transform="translate(202,108)"/>
<path d="M0 0 C6.6 0 13.2 0 20 0 C20.33 1.32 20.66 2.64 21 4 C14.4 4 7.8 4 1 4 C0.67 2.68 0.34 1.36 0 0 Z " fill="#AE510E" transform="translate(196,387)"/>
<path d="M0 0 C5.75 0.88 5.75 0.88 8 2 C8 2.66 8 3.32 8 4 C8.66 4 9.32 4 10 4 C10 5.32 10 6.64 10 8 C7.24 9.8 6.11 10.01 2.75 9.62 C2.3 9.52 2.3 9.52 0 9 C0 6.03 0 3.06 0 0 Z " fill="#9F7828" transform="translate(268,210)"/>
<path d="M0 0 C6.58 2.91 10.58 6.69 14 13 C13.67 13.16 13.67 13.16 12 14 C12 13.34 12 12.68 12 12 C11.34 12 10.68 12 10 12 C10 11.01 10 10.02 10 9 C9.34 9 8.68 9 8 9 C8 11.31 8 13.62 8 16 C6.85 15.05 5.71 14.09 4.56 13.12 C3.92 12.59 3.29 12.06 2.63 11.51 C1 10 1 10 0 8 C1.32 7.34 2.64 6.68 4 6 C4 5.01 4 4.02 4 3 C2.68 2.67 1.36 2.34 0 2 C0 1.34 0 0.68 0 0 Z " fill="#227455" transform="translate(290,166)"/>
<path d="M0 0 C0.99 0.66 1.98 1.32 3 2 C3 2.66 3 3.32 3 4 C3.66 4 4.32 4 5 4 C3.51 8.61 1.27 11.49 -2 15 C-2.99 15.33 -3.98 15.66 -5 16 C-4.67 15.01 -4.34 14.02 -4 13 C-4.99 12.34 -5.98 11.68 -7 11 C-6.22 10.11 -5.43 9.23 -4.62 8.31 C-2.43 5.69 -1.06 3.28 0 0 Z " fill="#0C7C5D" transform="translate(253,181)"/>
<path d="M0 0 C6.33 2.27 6.33 2.27 9 5.19 C10.19 8.54 9.87 10.62 9.26 14.06 C8.93 16.54 9.33 18.61 10 21 C7.18 17.63 5.54 13.96 3.88 9.94 C3.61 9.31 3.35 8.69 3.07 8.04 C1.96 5.38 0.91 2.74 0 0 Z " fill="#166E58" transform="translate(350,301)"/>
<path d="M0 0 C-0.66 0 -1.32 0 -2 0 C-1.67 2.64 -1.34 5.28 -1 8 C-3.31 8 -5.62 8 -8 8 C-9.46 5.35 -10 4.11 -10 1 C-3.71 -1.43 -3.71 -1.43 0 0 Z " fill="#AC5D12" transform="translate(236,383)"/>
<path d="M0 0 C2.64 0.33 5.28 0.66 8 1 C8.33 3.64 8.66 6.28 9 9 C6.12 9.19 6.12 9.19 3 9 C0.87 5.81 0.5 3.73 0 0 Z " fill="#A85A11" transform="translate(178,383)"/>
<path d="M0 0 C0.63 -0.01 0.63 -0.01 3.81 -0.04 C7 0.19 7 0.19 9 2.19 C6.69 2.19 4.38 2.19 2 2.19 C2 2.85 2 3.51 2 4.19 C-1.63 4.19 -5.26 4.19 -9 4.19 C-9 3.2 -9 2.21 -9 1.19 C-6.03 -0.3 -3.3 0.02 0 0 Z " fill="#047B5B" transform="translate(237,156.8125)"/>
<path d="M0 0 C1.32 0.33 2.64 0.66 4 1 C-1.8 6.95 -1.8 6.95 -5.38 7.1 C-6.29 7.09 -7.19 7.07 -8.12 7.06 C-9.04 7.05 -9.95 7.04 -10.88 7.04 C-11.58 7.02 -12.28 7.01 -13 7 C-12 5 -12 5 -9.75 3.88 C-7 3 -7 3 -4.31 3.06 C-3.55 3.04 -2.79 3.02 -2 3 C-1.34 2.01 -0.68 1.02 0 0 Z " fill="#047858" transform="translate(246,193)"/>
<path d="M0 0 C-0.33 0.17 -0.33 0.17 -2 1 C-2 2.32 -2 3.64 -2 5 C-7.75 8 -7.75 8 -10 8 C-10.25 5.69 -10.25 5.69 -10 3 C-7 -0.34 -4.32 -0.29 0 0 Z " fill="#106758" transform="translate(312,275)"/>
<path d="M0 0 C1.65 0.33 3.3 0.66 5 1 C4.67 1.17 4.67 1.17 3 2 C3 5.96 3 9.92 3 14 C-1.29 13.67 -5.58 13.34 -10 13 C-10 12.67 -10 12.34 -10 12 C-6.04 12 -2.08 12 2 12 C1.34 10.35 0.68 8.7 0 7 C-0.08 4.67 -0.09 2.33 0 0 Z " fill="#E4A243" transform="translate(169,381)"/>
<path d="M0 0 C0.78 0.04 1.57 0.08 2.38 0.12 C3 2.5 3 2.5 3.38 5.12 C2.72 5.78 2.06 6.44 1.38 7.12 C-1.25 6.75 -1.25 6.75 -3.62 6.12 C-4.25 4.25 -4.25 4.25 -4.62 2.12 C-2.62 0.12 -2.62 0.12 0 0 Z " fill="#E2E7EB" transform="translate(230.625,163.875)"/>
<path d="M0 0 C0.33 0.99 0.66 1.98 1 3 C-1.79 5.94 -4.77 8.56 -8 11 C-9.32 11 -10.64 11 -12 11 C-12 11.66 -12 12.32 -12 13 C-13.32 13.33 -14.64 13.66 -16 14 C-13.17 10.1 -10.44 7.77 -6.31 5.31 C-1.1 2.2 -1.1 2.2 0 0 Z " fill="#257560" transform="translate(190,131)"/>
<path d="M0 0 C-3.09 1.76 -4.23 2 -8 2 C-7.65 2.58 -7.3 3.15 -6.94 3.75 C-5.85 6.36 -6.07 7.39 -7 10 C-7.33 9.34 -7.66 8.68 -8 8 C-14.6 7.67 -21.2 7.34 -28 7 C-28 6.67 -28 6.34 -28 6 C-21.73 6 -15.46 6 -9 6 C-9.33 4.35 -9.66 2.7 -10 1 C-6.59 0.22 -3.49 -0.1 0 0 Z " fill="#CB8B39" transform="translate(226,385)"/>
<path d="M0 0 C0.99 0.33 1.98 0.66 3 1 C-1.02 5.79 -4.97 10.25 -10 14 C-10.66 14 -11.32 14 -12 14 C-12 13.34 -12 12.68 -12 12 C-11.34 12 -10.68 12 -10 12 C-10 11.34 -10 10.68 -10 10 C-8.68 9.67 -7.36 9.34 -6 9 C-6 8.01 -6 7.02 -6 6 C-5.34 6 -4.68 6 -4 6 C-4 5.34 -4 4.68 -4 4 C-3.34 4 -2.68 4 -2 4 C-2 3.34 -2 2.68 -2 2 C-1.34 2 -0.68 2 0 2 C0 1.34 0 0.68 0 0 Z " fill="#2A7762" transform="translate(270,357)"/>
<path d="M0 0 C2.64 2.64 2.92 4.62 3.13 8.29 C3.13 9.06 3.13 9.83 3.12 10.62 C3.13 11.4 3.13 12.18 3.13 12.98 C3 15 3 15 2 17 C1.34 17 0.68 17 0 17 C0 11.39 0 5.78 0 0 Z " fill="#01805C" transform="translate(256,168)"/>
<path d="M0 0 C0.5 0 0.5 0 3.04 0.01 C5.49 0.03 7.93 0.04 10.38 0.06 C10.38 0.39 10.38 0.72 10.38 1.06 C4.44 1.06 -1.5 1.06 -7.62 1.06 C-7.62 1.72 -7.62 2.38 -7.62 3.06 C-9.94 2.9 -9.94 2.9 -21.62 2.06 C-21.62 1.73 -21.62 1.4 -21.62 1.06 C-14.39 0.18 -7.28 -0.06 0 0 Z " fill="#B57443" transform="translate(153.625,378.9375)"/>
<path d="M0 0 C0.99 0.33 1.98 0.66 3 1 C-11.6 9.04 -11.6 9.04 -19 8 C-19.33 7.34 -19.66 6.68 -20 6 C-19.23 5.9 -18.45 5.8 -17.66 5.7 C-12.55 4.97 -8.01 4.28 -3.44 1.81 C-2.3 1.21 -1.17 0.62 0 0 Z " fill="#0D393E" transform="translate(344,365)"/>
<path d="M0 0 C0 0.33 0 0.66 0 1 C-1.09 1.06 -2.19 1.12 -3.31 1.19 C-7 2 -7 2 -8.94 4.56 C-9.29 5.37 -9.64 6.17 -10 7 C-12.96 6.39 -14.38 5.75 -17 4 C-11.03 0.52 -6.88 -0.57 0 0 Z " fill="#1E7762" transform="translate(334,266)"/>
<path d="M0 0 C2.64 0.66 5.28 1.32 8 2 C8 3.32 8 4.64 8 6 C5.36 6 2.72 6 0 6 C0 4.02 0 2.04 0 0 Z " fill="#CC740D" transform="translate(270,212)"/>
<path d="M0 0 C-0.66 1.32 -1.32 2.64 -2 4 C-2.7 3.96 -3.4 3.92 -4.12 3.88 C-7.38 4.02 -9.96 4.87 -13 6 C-13.33 4.68 -13.66 3.36 -14 2 C-12.23 1.66 -10.46 1.33 -8.69 1 C-7.7 0.81 -6.72 0.63 -5.7 0.44 C-3 0 -3 0 0 0 Z " fill="#1F7761" transform="translate(246,193)"/>
<path d="M0 0 C0.33 0.99 0.66 1.98 1 3 C-1.49 6.98 -5.08 10.44 -9 13 C-9.66 12.67 -10.32 12.34 -11 12 C-9.54 10.37 -8.08 8.75 -6.62 7.12 C-5.81 6.22 -5 5.32 -4.16 4.38 C-2.81 2.89 -1.42 1.42 0 0 Z " fill="#297663" transform="translate(171,146)"/>
<path d="M0 0 C0.66 0 1.32 0 2 0 C2 0.66 2 1.32 2 2 C2.66 2 3.32 2 4 2 C3.49 4.17 3 6 2 8 C1.93 9.71 1.92 11.42 1.94 13.12 C1.95 14.04 1.96 14.95 1.96 15.88 C1.98 16.58 1.99 17.28 2 18 C1.34 18.33 0.68 18.66 0 19 C0 12.73 0 6.46 0 0 Z " fill="#166358" transform="translate(288,284)"/>
<path d="M0 0 C0.66 0.33 1.32 0.66 2 1 C2 1.99 2 2.98 2 4 C2.66 4 3.32 4 4 4 C4 5.98 4 7.96 4 10 C3.01 10 2.02 10 1 10 C-0.8 7.24 -1.01 6.11 -0.62 2.75 C-0.42 1.84 -0.21 0.94 0 0 Z " fill="#0C7059" transform="translate(368,334)"/>
<path d="M0 0 C5.01 1.43 6.94 3.98 10 8 C9.34 8.66 8.68 9.32 8 10 C7.01 9.67 6.02 9.34 5 9 C4.67 8.01 4.34 7.02 4 6 C3.32 5.32 2.64 4.64 1.94 3.94 C1.3 3.3 0.66 2.66 0 2 C0 1.34 0 0.68 0 0 Z " fill="#047C5B" transform="translate(246,159)"/>
<path d="M0 0 C0.99 0 1.98 0 3 0 C5.36 2.53 6 3.47 6 7 C4.33 7.04 2.67 7.04 1 7 C0 6 0 6 -0.06 2.94 C-0.04 1.97 -0.02 1 0 0 Z " fill="#16735A" transform="translate(220,186)"/>
<path d="M0 0 C0.99 0.33 1.98 0.66 3 1 C2.67 1.68 2.35 2.37 2.01 3.07 C0.83 6.49 0.8 9.21 0.88 12.81 C0.89 13.97 0.91 15.14 0.93 16.33 C0.95 17.21 0.98 18.09 1 19 C0.34 19 -0.32 19 -1 19 C-1.03 16.02 -1.05 13.04 -1.06 10.06 C-1.07 9.21 -1.08 8.36 -1.09 7.49 C-1.09 6.68 -1.09 5.87 -1.1 5.04 C-1.1 4.29 -1.11 3.54 -1.11 2.77 C-1 1 -1 1 0 0 Z " fill="#387E6C" transform="translate(221,167)"/>
<path d="M0 0 C1.98 0.33 1.98 0.33 12 2 C12 2.33 12 2.66 12 3 C9.36 3.33 6.72 3.66 4 4 C4 4.66 4 5.32 4 6 C6.31 6 8.62 6 11 6 C11 6.33 11 6.66 11 7 C8.03 7 5.06 7 2 7 C1.34 4.69 0.68 2.38 0 0 Z " fill="#1F7866" transform="translate(322,371)"/>
<path d="M0 0 C2.64 0 5.28 0 8 0 C4.6 2.75 0.52 6 -4 6 C-4 5.34 -4 4.68 -4 4 C-3.34 4 -2.68 4 -2 4 C-1.34 2.68 -0.68 1.36 0 0 Z " fill="#1A7660" transform="translate(338,371)"/>
<path d="M0 0 C3 1 3 1 4 3 C4.04 5.33 4.04 7.67 4 10 C3.34 10 2.68 10 2 10 C2 9.01 2 8.02 2 7 C1.34 7 0.68 7 0 7 C0 4.69 0 2.38 0 0 Z " fill="#08745B" transform="translate(310,351)"/>
<path d="M0 0 C0.33 0 0.66 0 1 0 C1.2 3.72 1.15 4.77 -1 8 C-1.66 8 -2.32 8 -3 8 C-3.33 9.32 -3.66 10.64 -4 12 C-4.99 11.67 -5.98 11.34 -7 11 C-5.86 9.16 -4.71 7.33 -3.56 5.5 C-2.92 4.48 -2.29 3.46 -1.63 2.41 C-1.36 2.01 -1.36 2.01 0 0 Z " fill="#037C76" transform="translate(251,282)"/>
<path d="M0 0 C0.93 2.5 1.04 3.83 0.38 6.44 C-1.29 9.55 -3.42 11.62 -6 14 C-6.66 13.67 -7.32 13.34 -8 13 C-7.51 12.23 -7.01 11.46 -6.5 10.66 C-5.86 9.66 -5.22 8.66 -4.56 7.62 C-3.92 6.63 -3.29 5.63 -2.63 4.6 C-1 2 -1 2 0 0 Z " fill="#18A47B" transform="translate(265,274)"/>
<path d="M0 0 C0 0.66 0 1.32 0 2 C-1.32 2.33 -2.64 2.66 -4 3 C-4 3.66 -4 4.32 -4 5 C-6.64 5.33 -9.28 5.66 -12 6 C-10.66 3.32 -9.28 3.05 -6.56 1.88 C-5.76 1.52 -4.96 1.17 -4.13 0.8 C-2 0 -2 0 0 0 Z " fill="#057458" transform="translate(366,359)"/>
<path d="M0 0 C0.99 0.17 0.99 0.17 6 1 C5.17 3.5 4.21 5.67 3 8 C2.67 8 2.34 8 2 8 C2 6.02 2 4.04 2 2 C1.34 2 0.68 2 0 2 C0 1.34 0 0.68 0 0 Z " fill="#E9B862" transform="translate(184,392)"/>
<path d="M0 0 C0.66 0.33 1.32 0.66 2 1 C0.72 5.99 -1.17 8.58 -5 12 C-5 11.01 -5 10.02 -5 9 C-4.34 9 -3.68 9 -3 9 C-3 8.01 -3 7.02 -3 6 C-2.34 6 -1.68 6 -1 6 C-1.02 5.2 -1.04 4.39 -1.06 3.56 C-1 1 -1 1 0 0 Z " fill="#2A7765" transform="translate(303,203)"/>
<path d="M0 0 C3.12 0.49 6 1 9 2 C8.67 3.65 8.34 5.3 8 7 C6.66 6.02 5.33 5.04 4 4.06 C3.26 3.52 2.51 2.97 1.75 2.41 C1.17 1.94 0.59 1.48 0 1 C0 0.67 0 0.34 0 0 Z " fill="#257965" transform="translate(243,162)"/>
<path d="M0 0 C1.32 0 2.64 0 4 0 C4 0.66 4 1.32 4 2 C3.01 2 2.02 2 1 2 C1 2.99 1 3.98 1 5 C2.32 5 3.64 5 5 5 C5 5.66 5 6.32 5 7 C3.35 6.67 1.7 6.34 0 6 C-0.38 4.34 -0.71 2.68 -1 1 C-0.67 0.67 -0.34 0.34 0 0 Z " fill="#3A806C" transform="translate(183,98)"/>
<path d="M0 0 C-0.33 0.99 -0.66 1.98 -1 3 C-4.65 4.62 -7.19 5.46 -11 4 C-7.35 1.67 -4.38 0 0 0 Z " fill="#1C745D" transform="translate(208,126)"/>
<path d="M0 0 C3.29 3.11 5.84 6.02 8 10 C6.68 9.67 5.36 9.34 4 9 C4 8.01 4 7.02 4 6 C3.34 6 2.68 6 2 6 C1.34 5.34 0.68 4.68 0 4 C0 2.68 0 1.36 0 0 Z " fill="#2A7964" transform="translate(186,114)"/>
<path d="M0 0 C-1.81 0.82 -1.81 0.82 -11 5 C-11 4.01 -11 3.02 -11 2 C-10.01 2 -9.02 2 -8 2 C-8 1.34 -8 0.68 -8 0 C-4.71 -0.8 -3.29 -1.1 0 0 Z " fill="#20765F" transform="translate(361,365)"/>
<path d="M0 0 C0.66 0.33 1.32 0.66 2 1 C-0.43 4.65 -1.82 5 -6 6 C-8.2 5.55 -8.2 5.55 -10 5 C-8.38 4.14 -6.75 3.28 -5.12 2.44 C-4.22 1.96 -3.32 1.49 -2.38 1 C-1.99 0.83 -1.99 0.83 0 0 Z " fill="#143840" transform="translate(322,273)"/>
<path d="M0 0 C0.33 0 0.66 0 1 0 C1.25 2.25 1.25 2.25 1 5 C-1 7.31 -1 7.31 -3 9 C-3.66 8.67 -4.32 8.34 -5 8 C-4.19 6.66 -3.38 5.33 -2.56 4 C-2.11 3.26 -1.66 2.51 -1.19 1.75 C-0.8 1.17 -0.41 0.6 0 0 Z " fill="#047C7A" transform="translate(259,270)"/>
<path d="M0 0 C0.33 0 0.66 0 1 0 C1.26 3.15 1.25 4.62 -0.5 7.31 C-0.75 7.59 -0.75 7.59 -2 9 C-2.99 8.67 -3.98 8.34 -5 8 C-4.19 6.66 -3.38 5.33 -2.56 4 C-2.11 3.26 -1.66 2.51 -1.19 1.75 C-0.8 1.17 -0.41 0.59 0 0 Z " fill="#237461" transform="translate(155,164)"/>
<path d="M0 0 C5.75 -0.12 5.75 -0.12 8 1 C8 1.66 8 2.32 8 3 C8.66 3 9.32 3 10 3 C9.67 3.99 9.34 4.98 9 6 C6 4 3 2 0 0 Z " fill="#2A7F69" transform="translate(168,109)"/>
<path d="M0 0 C1.62 1.69 1.62 1.69 3 4 C2.19 6.75 2.19 6.75 1 9 C-0.32 8.01 -1.64 7.02 -3 6 C-2.01 4.02 -1.02 2.04 0 0 Z " fill="#DCF0ED" transform="translate(181,100)"/>
<path d="M0 0 C3.3 0.33 6.6 0.66 10 1 C10 1.33 10 1.66 10 2 C7.36 2 4.72 2 2 2 C2 3.65 2 5.3 2 7 C0 4 0 4 0 0 Z " fill="#DB9322" transform="translate(186,385)"/>
<path d="M0 0 C0.33 0 0.66 0 1 0 C0.09 8.94 0.09 8.94 -2 13 C-2.33 13.17 -2.33 13.17 -4 14 C-3.25 10.88 -2.37 7.82 -1.44 4.75 C-1.3 4.3 -1.3 4.3 -0.62 2.05 C-0.42 1.37 -0.21 0.7 0 0 Z " fill="#1AAB80" transform="translate(270,336)"/>
<path d="M0 0 C0.66 0 1.32 0 2 0 C0.85 2.47 -0.05 4.05 -2 6 C-2 7.32 -2 8.64 -2 10 C-2.66 10 -3.32 10 -4 10 C-4 7.69 -4 5.38 -4 3 C-2.68 2.67 -1.36 2.34 0 2 C0 1.34 0 0.68 0 0 Z " fill="#2E7767" transform="translate(296,215)"/>
<path d="M0 0 C1.32 0.33 2.64 0.66 4 1 C4 2.32 4 3.64 4 5 C1.36 4.34 -1.28 3.68 -4 3 C-2.68 2.67 -1.36 2.34 0 2 C0 1.34 0 0.68 0 0 Z " fill="#20703A" transform="translate(272,207)"/>
<path d="M0 0 C-0.66 0.43 -1.32 0.87 -2 1.31 C-2.66 1.87 -3.32 2.43 -4 3 C-4 3.99 -4 4.98 -4 6 C-4.99 5.67 -5.98 5.34 -7 5 C-7 3.68 -7 2.36 -7 1 C-3.38 -1.12 -3.38 -1.12 0 0 Z " fill="#337464" transform="translate(231,163)"/>
<path d="M0 0 C1.32 0.66 2.64 1.32 4 2 C4 2.66 4 3.32 4 4 C2.02 4.66 0.04 5.32 -2 6 C-1.34 4.02 -0.68 2.04 0 0 Z " fill="#D4ECE8" transform="translate(206,121)"/>
<path d="M0 0 C0.8 0.02 1.6 0.04 2.42 0.05 C3.03 0.08 3.63 0.1 4.25 0.12 C4.25 0.45 4.25 0.79 4.25 1.12 C3.18 1.25 2.11 1.37 1 1.5 C-2.13 2.02 -4.08 2.53 -6.75 4.12 C-7.41 3.46 -8.07 2.81 -8.75 2.12 C-5.69 0.34 -3.53 -0.1 0 0 Z " fill="#5B9788" transform="translate(329.75,265.875)"/>
<path d="M0 0 C0.33 0 0.66 0 1 0 C1 2.31 1 4.62 1 7 C-0.32 7.33 -1.64 7.66 -3 8 C-2.37 5.07 -1.41 2.64 0 0 Z " fill="#34743B" transform="translate(299,199)"/>
<path d="M0 0 C0.33 0 0.66 0 1 0 C1.12 2.38 1.12 2.38 1 5 C0.34 5.66 -0.32 6.32 -1 7 C-3.12 6.62 -3.12 6.62 -5 6 C-3.36 3.98 -1.69 1.98 0 0 Z " fill="#327E6B" transform="translate(251,186)"/>
<path d="M0 0 C4.55 -0.37 4.55 -0.37 6.81 1.5 C7.2 2 7.6 2.49 8 3 C7.34 3.33 7.34 3.33 4 5 C2.68 3.35 1.36 1.7 0 0 Z " fill="#D0E6E7" transform="translate(238,162)"/>
<path d="M0 0 C2.47 1.15 4.05 2.05 6 4 C5.62 6.12 5.62 6.12 5 8 C0 2.25 0 2.25 0 0 Z " fill="#287963" transform="translate(182,119)"/>
<path d="M0 0 C1.13 0.02 2.27 0.04 3.44 0.06 C2.84 0.31 2.24 0.56 1.62 0.81 C-0.85 2.23 -2 3.71 -3.56 6.06 C-3.94 4.41 -4.28 2.74 -4.56 1.06 C-3.56 0.06 -3.56 0.06 0 0 Z " fill="#37816C" transform="translate(164.5625,100.9375)"/>
<path d="M0 0 C2.45 2.13 3.68 3.71 4 7 C3.34 7.66 2.68 8.32 2 9 C0.5 5.63 0 3.8 0 0 Z " fill="#DAE5EA" transform="translate(290,253)"/>
<path d="M0 0 C0.99 0.17 0.99 0.17 6 1 C6 1.66 6 2.32 6 3 C7.32 3.33 8.64 3.66 10 4 C7.25 4.25 7.25 4.25 4 4 C1.62 2 1.62 2 0 0 Z " fill="#E6AA48" transform="translate(192,398)"/>
<path d="M0 0 C0.33 1.32 0.66 2.64 1 4 C0.34 4 -0.32 4 -1 4 C-1 4.66 -1 5.32 -1 6 C-2.32 5.67 -3.64 5.34 -5 5 C-3.35 3.35 -1.7 1.7 0 0 Z " fill="#31733B" transform="translate(293,210)"/>
<path d="M0 0 C0.66 0.33 1.32 0.66 2 1 C-1.32 4.94 -1.32 4.94 -4.75 5.25 C-5.49 5.17 -6.24 5.09 -7 5 C-4.88 2.67 -2.95 1.14 0 0 Z " fill="#19A57C" transform="translate(196,140)"/>
<path d="M0 0 C2.88 -0.12 2.88 -0.12 6 0 C6.66 0.66 7.32 1.32 8 2 C4.71 2.8 3.29 3.1 0 2 C0 1.34 0 0.68 0 0 Z " fill="#1F7A63" transform="translate(162,106)"/>
</svg>
