<?xml version="1.0" encoding="UTF-8"?>
<!-- Generator: visioncortex VTracer 0.6.12 -->
<svg version="1.1" xmlns="http://www.w3.org/2000/svg" width="512" height="512">
<path d="M0 0 C168.96 0 337.92 0 512 0 C512 168.96 512 337.92 512 512 C343.04 512 174.08 512 0 512 C0 343.04 0 174.08 0 0 Z " fill="#FBFBFB" transform="translate(0,0)"/>
<path d="M0 0 C10.2 0.51 18.2 8.08 25 15 C32 23.04 32 23.04 32 26 C33.11 25.95 34.23 25.91 35.38 25.86 C54.19 25.31 70.25 29.14 84.88 41.81 C91.7 48.39 96.23 55.01 99.88 63.75 C102.31 69.31 104.6 71.74 109.82 74.68 C115.49 78.11 119.15 83.74 121 90 C122.26 102.34 119.36 110.88 111.94 120.65 C110.37 122.55 108.79 124.31 107 126 C107.33 126.99 107.66 127.98 108 129 C108.14 133.13 108.07 136.63 107.31 140.71 C106.75 145.18 107.86 147.97 109.89 152.02 C110.2 152.64 110.51 153.27 110.83 153.91 C111.8 155.89 112.81 157.85 113.81 159.81 C114.48 161.15 115.14 162.48 115.8 163.82 C120.46 173.19 120.46 173.19 123 177 C123.99 176.49 124.98 175.99 126 175.47 C127.33 174.81 128.67 174.16 130 173.5 C130.65 173.17 131.3 172.83 131.96 172.49 C136.9 170.09 140.52 169.56 146 170 C150.18 171.61 153.12 173.56 156 177 C156 177.66 156 178.32 156 179 C156.72 178.84 157.44 178.67 158.19 178.5 C161 179 161 179 162.27 180.36 C166.97 187.58 171.62 196.23 171 205 C170.67 205.99 170.34 206.98 170 208 C171.12 210.82 172.31 213.49 173.62 216.22 C174.4 217.89 175.18 219.56 175.96 221.23 C177.19 223.86 178.43 226.48 179.68 229.1 C188.93 248.49 188.93 248.49 187 257 C182.6 265.97 173.72 269.33 165.09 273.28 C163.02 274.24 160.97 275.23 158.92 276.22 C150.62 280.1 143.35 282.5 134 281 C123.05 275.13 118.73 256.43 114 245.56 C112.8 242.82 111.61 240.09 110.41 237.35 C109.64 235.59 108.88 233.84 108.11 232.09 C105.75 226.68 103.32 221.3 100.78 215.98 C100 214 100 214 100 211 C99.34 211 98.68 211 98 211 C97.97 211.93 97.95 212.87 97.92 213.83 C96.98 235.65 93.05 254.47 76.89 270.04 C72.85 273.73 68.76 276.31 64 279 C64.59 279.02 65.18 279.04 65.79 279.06 C116.5 280.83 116.5 280.83 139.69 282.06 C140.07 282.08 140.07 282.08 142.01 282.18 C146.67 282.43 151.34 282.71 156 283 C157.09 283.06 158.18 283.12 159.31 283.18 C160.28 283.24 161.26 283.3 162.27 283.37 C163.1 283.42 163.92 283.47 164.78 283.52 C167.49 284.11 168.96 285.14 171 287 C171.5 288.94 171.5 288.94 171.44 291 C171.44 291.34 171.44 291.34 171.43 293.06 C170.85 295.68 170.25 296.51 168 298 C164.97 298.33 164.97 298.33 161.06 298.25 C160.34 298.24 159.62 298.23 158.88 298.21 C156.25 298.16 153.63 298.08 151 298 C149.88 297.97 148.76 297.94 147.6 297.9 C141.54 297.73 135.47 297.54 129.41 297.32 C128.39 297.28 127.37 297.24 126.32 297.21 C123.8 297.05 121.36 296.8 118.85 296.49 C113.22 295.84 107.62 295.88 101.96 295.9 C100.85 295.9 99.73 295.91 98.57 295.91 C95.03 295.91 91.48 295.92 87.94 295.94 C85.52 295.94 83.11 295.95 80.69 295.95 C74.79 295.96 68.9 295.98 63 296 C63.33 296.33 63.66 296.66 64 297 C64.19 299.44 64.19 299.44 64 302 C62 304 62 304 58.19 304.44 C54.66 304.36 54.09 304.08 51.19 301.69 C50.47 300.8 49.74 299.91 49 299 C48.4 298.4 47.8 297.8 47.19 297.19 C46.8 296.8 46.4 296.4 46 296 C46.23 296.93 46.45 297.86 46.69 298.81 C47 302 47 302 46 303.94 C42.75 305.66 40.48 304.9 37 304 C33.21 301.56 32.06 300.12 30 296 C25.38 296 20.76 296 16 296 C16.33 296.33 16.66 296.66 17 297 C16.71 299.34 16.38 301.67 16 304 C12.33 304.96 10.41 305.15 6.81 303.81 C4.1 302.07 2.7 300.69 1 298 C0.67 297.67 0.34 297.34 0 297 C0.04 297.76 0.08 298.53 0.12 299.31 C0 302 0 302 -2 305 C-5.95 305.63 -7.74 305.15 -11.25 303.19 C-14 301 -14 301 -16 298 C-18.35 297.64 -18.35 297.64 -21.28 297.67 C-22.35 297.68 -23.42 297.68 -24.53 297.69 C-25.65 297.71 -26.78 297.73 -27.94 297.75 C-28.48 297.75 -28.48 297.75 -31.24 297.77 C-38.21 297.83 -45.07 298.31 -52 299 C-61.75 299.7 -61.75 299.7 -65.69 297.5 C-67.69 293.69 -67.54 291.29 -67 287 C-64.18 284.2 -61.9 283.58 -58 283.3 C-57.04 283.23 -56.07 283.15 -55.08 283.08 C-54.06 283.01 -53.05 282.94 -52 282.88 C-50.97 282.8 -49.94 282.72 -48.87 282.64 C-46.84 282.49 -44.8 282.34 -42.76 282.2 C-39.36 281.95 -35.96 281.67 -32.56 281.38 C-31.04 281.25 -29.52 281.12 -28 281 C-28.46 280.83 -28.46 280.83 -30.78 280 C-39.97 276.3 -44.32 272.1 -48.33 263.08 C-48.89 261.72 -49.45 260.36 -50 259 C-50.27 258.36 -50.54 257.72 -50.83 257.06 C-54.07 249.39 -56.53 241.54 -58.69 233.5 C-58.88 232.79 -59.07 232.08 -59.26 231.35 C-59.89 228.91 -60.45 226.46 -61 224 C-61.26 222.87 -61.53 221.75 -61.8 220.59 C-64.03 210.19 -64.43 200.14 -64.34 189.52 C-64.31 186.77 -64.32 184.01 -64.32 181.26 C-64.3 164.29 -63.01 147.6 -59.31 131 C-59.18 130.41 -59.18 130.41 -58.52 127.4 C-52.21 99.85 -40.48 75.63 -21 55 C-20.25 54.18 -19.5 53.35 -18.73 52.5 C-12.03 45.38 -4.41 39.94 4 35 C4.66 35 5.32 35 6 35 C-0.84 22.82 -6 14.42 -19.67 9.83 C-22 9 -22 9 -23 8 C-23.12 5.5 -23.12 5.5 -23 3 C-22 2 -22 2 -19 1.62 C-10.9 1.81 -4.16 8.01 1.49 13.24 C6.1 18.31 9.54 24.12 13 30 C17.29 29.34 21.58 28.68 26 28 C18.79 18.63 12.99 12.63 2.26 7.59 C0 6 0 6 -0.88 3.38 C-0.92 2.59 -0.96 1.81 -1 1 C-0.67 0.67 -0.34 0.34 0 0 Z " fill="#077658" transform="translate(188,97)"/>
<path d="M0 0 C5.63 4.58 9.64 10.74 13.31 16.94 C13.31 17.6 13.31 18.26 13.31 18.94 C9.35 19.27 5.39 19.6 1.31 19.94 C0.37 22.76 0.15 24.65 0.08 27.59 C0.05 28.53 0.02 29.47 -0 30.44 C-0.03 31.46 -0.05 32.47 -0.07 33.52 C-0.1 34.57 -0.13 35.61 -0.15 36.69 C-0.2 38.91 -0.25 41.13 -0.3 43.34 C-0.37 46.73 -0.47 50.11 -0.56 53.49 C-0.61 55.65 -0.65 57.8 -0.7 59.96 C-0.73 60.97 -0.76 61.98 -0.79 63.02 C-0.88 68.14 -0.62 72.11 1.31 76.94 C1.31 77.93 1.31 78.92 1.31 79.94 C-33.91 91.23 -33.91 91.23 -51.66 91.21 C-53.71 91.23 -55.77 91.25 -57.82 91.27 C-61.01 91.3 -64.2 91.31 -67.38 91.32 C-70.49 91.33 -73.61 91.36 -76.72 91.4 C-77.19 91.4 -77.19 91.4 -79.56 91.38 C-91.06 91.55 -100.64 95.71 -108.69 103.94 C-115.06 112.49 -117.05 120.18 -117.06 130.69 C-117.07 131.16 -117.07 131.16 -117.14 133.53 C-117.19 145.57 -111.57 156.39 -103.81 165.44 C-101.69 167.94 -101.69 167.94 -101.69 169.94 C-101.1 170.2 -100.52 170.46 -99.92 170.73 C-97.57 172 -95.94 173.42 -94 175.25 C-83.28 184.77 -68.52 189.73 -54.22 189.59 C-48 188.44 -43.87 184.57 -39.32 180.43 C-37.7 178.95 -36.04 177.52 -34.37 176.09 C-19.5 163.18 -9.27 146.72 1.3 130.29 C1.55 129.92 1.55 129.92 2.77 128.01 C3.68 126.6 4.58 125.19 5.48 123.77 C8.53 119.01 11.68 114.28 15.31 109.94 C15.64 109.94 15.97 109.94 16.31 109.94 C16.34 112.12 16.36 114.31 16.38 116.5 C16.39 117.72 16.4 118.94 16.41 120.19 C16.31 123.87 15.83 127.3 15.31 130.94 C15.07 134.09 14.87 137.24 14.67 140.39 C10.84 200.69 10.84 200.69 -5.69 215.94 C-24.8 231.26 -48.32 234.63 -72.07 232.66 C-81.49 231.43 -90.68 228.9 -99.69 225.94 C-100.92 225.55 -102.14 225.16 -103.41 224.76 C-111.26 221.51 -114.36 217 -117.69 209.5 C-119.12 206.01 -120.42 202.49 -121.69 198.94 C-121.95 198.23 -122.21 197.53 -122.48 196.81 C-138.89 152.45 -135.4 94.72 -115.88 51.9 C-103.88 26.54 -86.27 2.87 -59.12 -7.41 C-38.26 -14.02 -18.17 -12.75 0 0 Z " fill="#11B17D" transform="translate(264.6875,144.0625)"/>
<path d="M0 0 C2 2 2 2 2.38 5.31 C1.94 9.64 1.04 10.96 -2 14 C-2.4 14.31 -2.4 14.31 -4.42 15.89 C-12.84 22.78 -18.18 32.87 -23.86 41.98 C-53.61 89.66 -53.61 89.66 -75 101 C-87.52 102.22 -100.85 96.46 -110.62 89 C-120.65 80.46 -130.22 68.47 -132 55 C-132.73 44.05 -131.96 35.85 -125 27 C-118.65 20.67 -112.34 16.07 -103.13 15.95 C-101.56 15.98 -99.99 16.01 -98.41 16.04 C-96.67 16.07 -94.93 16.09 -93.19 16.12 C-92.28 16.13 -91.37 16.14 -90.43 16.15 C-74.58 16.34 -59.4 16.23 -44 12 C-43.16 11.78 -42.33 11.55 -41.47 11.32 C-33.87 9.24 -26.41 6.83 -18.96 4.28 C-18.15 4 -17.33 3.73 -16.5 3.44 C-14.96 2.91 -13.43 2.38 -11.91 1.83 C-7.82 0.4 -4.34 -0.48 0 0 Z " fill="#07AECC" transform="translate(286,226)"/>
<path d="M0 0 C3.42 3.06 5.22 6.05 7.16 10.19 C7.73 11.38 8.29 12.57 8.88 13.8 C9.46 15.06 10.04 16.31 10.62 17.56 C11.78 20.02 12.94 22.48 14.1 24.94 C14.61 26.03 15.12 27.12 15.64 28.24 C17 31 17 31 19 34 C19.99 33.49 20.98 32.99 22 32.47 C23.33 31.81 24.67 31.16 26 30.5 C26.65 30.17 27.3 29.83 27.96 29.49 C32.9 27.09 36.52 26.56 42 27 C46.08 28.57 49.57 30.31 52 34 C51.81 35.9 51.81 35.9 51.38 38.11 C50.68 43.48 52.17 46.89 54.56 51.62 C55.32 53.22 56.08 54.81 56.83 56.41 C57.02 56.8 57.02 56.8 57.96 58.77 C59.39 61.84 60.6 64.97 61.81 68.12 C64.96 76.16 68.59 83.96 72.22 91.79 C72.68 92.78 73.14 93.77 73.61 94.79 C74.02 95.67 74.43 96.56 74.86 97.47 C77.17 102.59 78.6 106.27 78 112 C75.27 117.15 72.13 119.5 66.96 121.87 C66.28 122.19 65.6 122.52 64.9 122.85 C63.46 123.53 62.02 124.2 60.58 124.86 C58.39 125.87 56.22 126.91 54.06 127.96 C38.87 135.15 38.87 135.15 32 133 C29.53 130.86 28.5 129.73 27 127 C26.66 126.37 26.31 125.75 25.96 125.1 C24.9 123.05 23.94 120.98 23 118.88 C22.68 118.19 22.37 117.51 22.04 116.8 C20.19 112.79 18.48 108.73 16.8 104.64 C14.6 99.3 12.2 94.07 9.76 88.83 C8.61 86.34 7.45 83.85 6.3 81.35 C5.51 79.65 4.72 77.95 3.91 76.26 C2.74 73.77 1.59 71.27 0.45 68.77 C0.08 68.02 -0.28 67.28 -0.65 66.51 C-3.03 61.21 -3.66 56.66 -2 51 C0.55 48.23 2.75 47.11 6.19 45.62 C9 44 9 44 10.31 41.24 C11.14 37.33 10.6 36 8.79 32.49 C8.29 31.48 7.78 30.48 7.27 29.44 C6.72 28.41 6.18 27.38 5.62 26.31 C4.57 24.25 3.52 22.18 2.48 20.11 C2 19.2 1.53 18.29 1.04 17.36 C0 15 0 15 0 12 C-0.66 12 -1.32 12 -2 12 C-3.31 9.85 -4.05 8.55 -3.81 6 C-2.87 3.67 -1.59 1.94 0 0 Z " fill="#1A2838" transform="translate(292,240)"/>
<path d="M0 0 C0.68 0 1.35 0 2.05 0 C17.34 0.03 32.59 0.69 47.86 1.48 C50.65 1.63 53.44 1.76 56.23 1.9 C59.62 2.06 63.01 2.23 66.41 2.4 C67.63 2.46 68.85 2.52 70.12 2.58 C73.47 2.75 76.82 2.95 80.17 3.15 C81.21 3.21 82.26 3.26 83.33 3.32 C84.3 3.38 85.28 3.45 86.28 3.51 C86.71 3.54 86.71 3.54 88.86 3.67 C91.63 4.25 93.1 5.25 95.17 7.15 C95.67 9.09 95.67 9.09 95.61 11.15 C95.61 11.49 95.61 11.49 95.61 13.21 C95.02 15.83 94.42 16.66 92.17 18.15 C89.14 18.48 89.14 18.48 85.23 18.4 C84.52 18.39 83.8 18.38 83.05 18.37 C80.43 18.32 77.8 18.23 75.17 18.15 C74.05 18.12 72.93 18.09 71.78 18.06 C65.71 17.88 59.64 17.69 53.58 17.47 C52.56 17.43 51.54 17.4 50.49 17.36 C47.97 17.2 45.53 16.96 43.02 16.64 C37.39 15.99 31.8 16.03 26.14 16.05 C25.02 16.06 23.9 16.06 22.75 16.06 C19.2 16.06 15.65 16.08 12.11 16.09 C9.69 16.09 7.28 16.1 4.86 16.1 C-1.04 16.11 -6.93 16.13 -12.83 16.15 C-12.5 16.48 -12.17 16.81 -11.83 17.15 C-11.64 19.59 -11.64 19.59 -11.83 22.15 C-13.83 24.15 -13.83 24.15 -17.64 24.59 C-21.17 24.51 -21.74 24.23 -24.64 21.84 C-25 21.4 -25 21.4 -26.83 19.15 C-27.43 18.55 -28.02 17.96 -28.64 17.34 C-29.03 16.95 -29.42 16.56 -29.83 16.15 C-29.6 17.08 -29.37 18.01 -29.14 18.96 C-28.83 22.15 -28.83 22.15 -29.83 24.09 C-33.08 25.82 -35.35 25.05 -38.83 24.15 C-42.62 21.71 -43.77 20.27 -45.83 16.15 C-50.45 16.15 -55.07 16.15 -59.83 16.15 C-59.5 16.48 -59.17 16.81 -58.83 17.15 C-59.12 19.49 -59.45 21.83 -59.83 24.15 C-63.5 25.11 -65.41 25.31 -69.02 23.96 C-71.73 22.22 -73.12 20.84 -74.83 18.15 C-75.16 17.82 -75.49 17.49 -75.83 17.15 C-75.79 17.92 -75.75 18.68 -75.7 19.46 C-75.83 22.15 -75.83 22.15 -77.83 25.15 C-81.78 25.78 -83.56 25.3 -87.08 23.34 C-89.83 21.15 -89.83 21.15 -91.83 18.15 C-94.18 17.8 -94.18 17.8 -97.11 17.82 C-98.18 17.83 -99.25 17.83 -100.35 17.84 C-101.48 17.86 -102.61 17.88 -103.77 17.9 C-104.31 17.9 -104.31 17.9 -107.07 17.92 C-114.04 17.98 -120.9 18.46 -127.83 19.15 C-137.58 19.85 -137.58 19.85 -141.52 17.65 C-143.52 13.84 -143.37 11.44 -142.83 7.15 C-140.07 4.44 -137.84 3.73 -134.04 3.42 C-133.57 3.38 -133.57 3.38 -131.21 3.18 C-130.22 3.11 -129.23 3.04 -128.2 2.96 C-127.69 2.93 -127.69 2.93 -125.1 2.73 C-98.89 0.88 -98.89 0.88 -88.8 5.08 C-79.99 8.26 -71.23 8.44 -61.95 8.36 C-59.83 8.34 -57.71 8.34 -55.59 8.34 C-35.29 8.29 -35.29 8.29 -26.58 4.15 C-17.65 -0.05 -9.72 -0.02 0 0 Z " fill="#EC9C1A" transform="translate(263.828125,376.84765625)"/>
<path d="M0 0 C0.68 0 1.35 0 2.05 0 C17.34 0.03 32.59 0.69 47.86 1.48 C50.65 1.63 53.44 1.76 56.23 1.9 C59.62 2.06 63.01 2.23 66.41 2.4 C67.63 2.46 68.85 2.52 70.12 2.58 C73.47 2.75 76.82 2.95 80.17 3.15 C81.21 3.21 82.26 3.26 83.33 3.32 C83.82 3.35 83.82 3.35 86.28 3.51 C86.71 3.54 86.71 3.54 88.86 3.67 C91.63 4.25 93.1 5.25 95.17 7.15 C95.67 9.09 95.67 9.09 95.61 11.15 C95.61 11.83 95.61 12.51 95.61 13.21 C95.02 15.83 94.42 16.66 92.17 18.15 C89.14 18.48 89.14 18.48 85.23 18.4 C84.52 18.39 83.8 18.38 83.05 18.37 C80.43 18.32 77.8 18.23 75.17 18.15 C74.05 18.12 72.93 18.09 71.78 18.06 C65.71 17.88 59.64 17.69 53.58 17.47 C52.56 17.43 51.54 17.4 50.49 17.36 C47.91 17.2 45.39 16.96 42.82 16.65 C38.34 16.13 33.9 15.95 29.39 15.87 C28.58 15.85 27.77 15.83 26.94 15.82 C24.37 15.76 21.8 15.7 19.23 15.65 C6.53 15.39 -6.14 14.94 -18.83 14.15 C-21.83 7.53 -21.83 7.53 -21.83 4.15 C-22.49 3.82 -23.15 3.49 -23.83 3.15 C-16.65 -0.99 -8 -0.02 0 0 Z " fill="#B0540F" transform="translate(263.828125,376.84765625)"/>
<path d="M0 0 C3.18 0.74 3.45 1.24 5.19 3.88 C9.16 10.96 13.27 18.34 12.69 26.62 C12.52 27.12 12.52 27.12 11.69 29.62 C12.8 32.45 13.99 35.12 15.31 37.84 C16.09 39.52 16.87 41.19 17.64 42.86 C18.88 45.49 20.12 48.11 21.37 50.72 C30.61 70.12 30.61 70.12 28.69 78.62 C24.29 87.59 15.41 90.95 6.78 94.91 C4.71 95.86 2.66 96.85 0.61 97.84 C-7.69 101.73 -14.96 104.12 -24.31 102.62 C-35.26 96.76 -39.58 78.05 -44.31 67.19 C-45.51 64.45 -46.7 61.71 -47.9 58.97 C-48.67 57.22 -49.43 55.46 -50.2 53.71 C-52.55 48.32 -54.97 42.98 -57.54 37.7 C-58.31 35.62 -58.31 35.62 -58.31 31.62 C-57.65 31.62 -56.99 31.62 -56.31 31.62 C-56.31 29.98 -56.31 28.32 -56.31 26.62 C-54.53 29.3 -53.25 31.79 -51.92 34.71 C-51.46 35.72 -51 36.72 -50.53 37.76 C-50.05 38.83 -49.56 39.9 -49.06 41 C-48.07 43.19 -47.07 45.38 -46.07 47.57 C-45.83 48.1 -45.83 48.1 -44.62 50.76 C-43.57 53.06 -42.51 55.36 -41.43 57.64 C-39.05 62.71 -36.86 67.75 -34.94 73 C-33.01 78.15 -30.71 82.97 -28.12 87.81 C-27.78 88.46 -27.43 89.11 -27.08 89.78 C-25.67 92.36 -24.41 94.53 -22.31 96.62 C-13.65 98.77 -5.61 94.16 1.95 90.49 C4.13 89.43 6.33 88.41 8.54 87.4 C9.94 86.73 11.34 86.06 12.75 85.39 C13.07 85.24 13.07 85.24 14.73 84.48 C18.74 82.5 20.86 80.74 22.69 76.62 C23.58 70.18 21.23 65.36 18.62 59.62 C18.22 58.7 17.81 57.78 17.39 56.82 C14.43 50.16 11.35 43.56 8.24 36.97 C6.36 32.92 4.63 28.82 2.95 24.68 C2.02 22.42 1.05 20.18 0.05 17.95 C-0.23 17.32 -0.51 16.7 -0.79 16.05 C-1.58 14.28 -2.38 12.52 -3.18 10.75 C-4.27 7.74 -4.73 5.79 -4.31 2.62 C-2.31 0.62 -2.31 0.62 0 0 Z " fill="#11715B" transform="translate(346.3125,275.375)"/>
<path d="M0 0 C9.45 0 16.56 1.97 24 8 C28 13.26 28 13.26 28 16 C28.66 16 29.32 16 30 16 C30.59 25.51 29.95 33.46 23.5 40.88 C22.68 41.58 21.85 42.28 21 43 C20.38 43.76 19.76 44.53 19.12 45.31 C17 47 17 47 13.44 47.56 C12.87 47.47 12.87 47.47 10 47 C8.5 44.75 8.5 44.75 7 42 C4.69 40.68 2.38 39.36 0 38 C0 25.46 0 12.92 0 0 Z " fill="#E89A0E" transform="translate(272,171)"/>
<path d="M0 0 C15.63 -0.92 15.63 -0.92 21.49 3.66 C21.99 4.1 22.49 4.54 23 5 C23.76 5.58 24.53 6.16 25.31 6.75 C29.54 12.38 30.76 19.12 30 26 C27.94 33.03 22.87 37.85 17 42 C11.34 44.01 4.68 44.14 -0.84 41.8 C-8.82 37.15 -8.82 37.15 -11 33 C-11.35 30.07 -11.28 27.19 -11.19 24.25 C-11.17 23.46 -11.16 22.66 -11.15 21.85 C-11.11 19.9 -11.06 17.95 -11 16 C-9.67 18.51 -8.85 20.58 -8.12 23.38 C-6.52 28.56 -4.35 32.37 0.19 35.44 C4.53 37.67 8.38 37.16 13 36 C17.54 34.46 20.09 32.52 22.31 28.16 C24 22.87 23.82 17.26 21.94 12.06 C19.22 9.17 16.59 7.73 13 6 C12.01 6 11.02 6 10 6 C10.66 6.5 11.32 6.99 12 7.5 C14.3 10.38 14.63 12.36 14.47 16.03 C13.69 19.32 11.55 20.94 9 23 C8.67 23.33 8.34 23.66 8 24 C3.36 24.42 0.75 23.78 -3 21 C-4.61 17.79 -4.06 14.56 -4 11 C-1.69 11.33 0.62 11.66 3 12 C3 10.02 3 8.04 3 6 C1.68 6 0.36 6 -1 6 C-0.67 4.02 -0.34 2.04 0 0 Z " fill="#0B795B" transform="translate(231,158)"/>
<path d="M0 0 C0.74 -0.01 1.49 -0.02 2.25 -0.03 C5.97 -0.01 7.58 0.13 10.75 2.25 C11.48 5.07 11.48 5.07 11.94 8.38 C12.1 9.47 12.25 10.57 12.42 11.7 C12.53 12.54 12.64 13.38 12.75 14.25 C7.97 14.68 3.18 15.11 -1.6 15.53 C-3.22 15.68 -4.84 15.82 -6.47 15.97 C-31.48 18.24 -31.48 18.24 -35.94 15.75 C-37.94 11.94 -37.79 9.54 -37.25 5.25 C-34.49 2.54 -32.26 1.83 -28.46 1.52 C-27.99 1.48 -27.99 1.48 -25.63 1.27 C-24.64 1.2 -23.65 1.13 -22.62 1.06 C-21.61 0.98 -20.59 0.9 -19.54 0.82 C-13.03 0.35 -6.53 0.05 0 0 Z " fill="#B05612" transform="translate(158.25,378.75)"/>
<path d="M0 0 C3.18 0.74 3.45 1.24 5.19 3.88 C9.16 10.96 13.27 18.34 12.69 26.62 C12.36 27.62 12.03 28.61 11.69 29.62 C12.8 32.45 13.99 35.12 15.31 37.84 C16.09 39.52 16.87 41.19 17.64 42.86 C18.88 45.49 20.12 48.11 21.37 50.72 C30.61 70.12 30.61 70.12 28.69 78.62 C25.74 84.63 21.55 88.03 15.38 90.38 C14.16 90.79 12.94 91.2 11.69 91.62 C11.69 90.97 11.69 90.31 11.69 89.62 C12.35 89.62 13.01 89.62 13.69 89.62 C13.69 88.97 13.69 88.31 13.69 87.62 C15.01 87.62 16.33 87.62 17.69 87.62 C17.61 86.88 17.52 86.14 17.44 85.38 C17.76 81.82 19.07 80.93 21.69 78.62 C23.56 74.88 23.19 71.21 21.95 67.33 C20.91 64.73 19.78 62.18 18.62 59.62 C18.22 58.7 17.81 57.78 17.39 56.82 C14.43 50.16 11.35 43.56 8.24 36.97 C6.36 32.92 4.63 28.82 2.95 24.68 C2.02 22.42 1.05 20.18 0.05 17.95 C-0.23 17.32 -0.51 16.7 -0.79 16.05 C-1.58 14.28 -2.38 12.52 -3.18 10.75 C-4.27 7.74 -4.73 5.79 -4.31 2.62 C-2.31 0.62 -2.31 0.62 0 0 Z " fill="#15725B" transform="translate(346.3125,275.375)"/>
<path d="M0 0 C5.96 0.57 9.84 2.63 13.88 7.06 C15.84 12.21 16.08 17.93 14.24 23.16 C11.74 27.81 8.98 30.08 4.31 32.25 C-0.79 33.41 -5.48 33.55 -10.06 30.73 C-14.17 27.35 -16.74 24.53 -17.3 19.09 C-17.3 18.05 -17.31 17.01 -17.31 15.94 C-17.33 14.89 -17.35 13.85 -17.36 12.78 C-17 10 -17 10 -15.48 8.13 C-14.99 7.76 -14.5 7.38 -14 7 C-13.91 7.63 -13.83 8.25 -13.74 8.9 C-13.32 11.36 -12.83 13.64 -12 16 C-8.6 18.36 -5.05 18.59 -1 18 C1.85 16.02 3.64 14.54 4.45 11.06 C4.67 7.13 4.24 5.35 2 2 C1.34 1.34 0.68 0.68 0 0 Z " fill="#F3F8F8" transform="translate(240,163)"/>
<path d="M0 0 C0.5 1.65 0.5 1.65 3 10 C8.94 10 14.88 10 21 10 C21 10.33 21 10.66 21 11 C19.02 11.17 19.02 11.17 9 12 C9.16 12.17 9.16 12.17 10 13 C10.19 15.44 10.19 15.44 10 18 C8 20 8 20 4.19 20.44 C0.66 20.36 0.09 20.08 -2.81 17.69 C-3.53 16.8 -4.26 15.91 -5 15 C-5.6 14.4 -6.2 13.8 -6.81 13.19 C-7.2 12.8 -7.6 12.4 -8 12 C-7.77 12.93 -7.55 13.86 -7.31 14.81 C-7 18 -7 18 -8 19.94 C-11.25 21.66 -13.52 20.9 -17 20 C-21.81 17.2 -24.12 13.11 -26 8 C-26 7.01 -26 6.02 -26 5 C-25.54 4.95 -25.54 4.95 -23.22 4.67 C-15.56 3.68 -7.45 0 0 0 Z " fill="#E79C20" transform="translate(242,381)"/>
<path d="M0 0 C0.66 0 1.32 0 2 0 C5.96 8.25 9.92 16.5 14 25 C13.34 25.33 12.68 25.66 12 26 C12 27.65 12 29.3 12 31 C10.35 31.82 10.35 31.82 2 36 C2 35.34 2 34.68 2 34 C1.34 34 0.68 34 0 34 C0 33.01 0 32.02 0 31 C-0.66 31 -1.32 31 -2 31 C-2.11 24.08 -1.67 17.33 -1 10.44 C-0.9 9.43 -0.81 8.42 -0.71 7.38 C-0.48 4.92 -0.24 2.46 0 0 Z " fill="#435866" transform="translate(290,253)"/>
<path d="M0 0 C0.62 0.72 1.24 1.44 1.88 2.19 C4.27 4.62 6.65 5.86 9.75 7.25 C17.29 10.81 23.26 17.2 28 24 C28 24.66 28 25.32 28 26 C26.42 26.53 24.84 27.05 23.25 27.56 C22.37 27.85 21.49 28.14 20.58 28.44 C17.81 29.04 16.63 28.97 14 28 C12.69 26.59 12.69 26.59 11.56 24.8 C11.14 24.15 10.72 23.49 10.29 22.82 C9.86 22.14 9.44 21.46 9 20.75 C8.15 19.41 7.29 18.07 6.44 16.73 C6.03 16.09 5.62 15.45 5.2 14.79 C4 13 4 13 1.7 10.29 C-0.94 6.74 -0.29 4.3 0 0 Z " fill="#EFF7F7" transform="translate(186,99)"/>
<path d="M0 0 C3.18 0.74 3.45 1.24 5.19 3.88 C13.45 18.61 13.45 18.61 12.69 26.62 C10.69 28.62 10.69 28.62 7.83 28.75 C4.37 27.51 4.06 27.15 2.39 24.09 C1.69 22.59 1.02 21.08 0.38 19.56 C0.2 19.19 0.2 19.19 -0.67 17.32 C-2.88 12.4 -4.09 8.03 -4.31 2.62 C-2.31 0.62 -2.31 0.62 0 0 Z " fill="#2EC86D" transform="translate(346.3125,275.375)"/>
<path d="M0 0 C3.19 0.27 6.05 0.72 9 2 C10.29 4.01 11.04 6 11.89 8.22 C13 10 13 10 15.01 10.75 C17.25 11 17.25 11 21 11 C20.67 11.99 20.34 12.98 20 14 C19.67 13.67 19.34 13.34 19 13 C19.04 13.76 19.08 14.53 19.12 15.31 C19 18 19 18 17 21 C13.05 21.63 11.26 21.15 7.75 19.19 C5 17 5 17 3 14 C-0.04 13.49 -0.04 13.49 -3.62 13.31 C-4.81 13.25 -6 13.18 -7.23 13.11 C-8.14 13.08 -9.06 13.04 -10 13 C-10 12.67 -10 12.34 -10 12 C-6.04 12 -2.08 12 2 12 C1.34 10.35 0.68 8.7 0 7 C-0.08 4.67 -0.09 2.33 0 0 Z " fill="#EE9E1B" transform="translate(169,381)"/>
<path d="M0 0 C2.72 1.73 4.8 3.18 6.75 5.75 C6.56 8.73 5.15 11.14 3.75 13.75 C3.17 12.64 2.6 11.52 2 10.38 C0.77 8.27 -0.14 6.84 -2 5.25 C-9.31 3.62 -15.67 7.04 -22 10.25 C-23.66 11.08 -25.32 11.9 -26.98 12.72 C-27.71 13.08 -28.43 13.45 -29.18 13.83 C-31.19 14.72 -33.1 15.29 -35.25 15.75 C-35.25 14.1 -35.25 12.45 -35.25 10.75 C-34.59 10.75 -33.93 10.75 -33.25 10.75 C-33.25 10.09 -33.25 9.43 -33.25 8.75 C-32.45 8.63 -31.64 8.5 -30.81 8.38 C-29.97 8.17 -29.12 7.96 -28.25 7.75 C-27.92 7.09 -27.59 6.43 -27.25 5.75 C-24.74 4.45 -22.27 3.26 -19.69 2.12 C-19 1.8 -18.3 1.48 -17.59 1.14 C-11.54 -1.54 -6.38 -2.45 0 0 Z " fill="#147058" transform="translate(337.25,268.25)"/>
<path d="M0 0 C4.07 -0.48 5.8 -0.12 9.38 2 C12.46 5.52 12.46 5.52 12.69 9 C12.44 12.46 11.93 13.08 9.56 15.94 C9.14 16.28 9.14 16.28 7 18 C6.67 18.33 6.34 18.66 6 19 C1.36 19.42 -1.25 18.78 -5 16 C-6.61 12.79 -6.06 9.56 -6 6 C-3.69 6.33 -1.38 6.66 1 7 C0.67 4.69 0.34 2.38 0 0 Z " fill="#18202E" transform="translate(233,163)"/>
<path d="M0 0 C1.98 0 3.96 0 6 0 C4.68 0.33 3.36 0.66 2 1 C2 13.54 2 26.08 2 39 C3.98 39.66 5.96 40.32 8 41 C10.38 43 10.38 43 12 45 C12 45.66 12 46.32 12 47 C11.34 47 10.68 47 10 47 C10 48.32 10 49.64 10 51 C8.38 51.03 6.75 51.05 5.12 51.06 C4.67 51.07 4.67 51.07 2.38 51.1 C0 51 0 51 -2 50 C-2 47.03 -2 44.06 -2 41 C-1.34 41 -0.68 41 0 41 C0 27.47 0 13.94 0 0 Z " fill="#3E773B" transform="translate(270,170)"/>
<path d="M0 0 C9.42 0.47 16.42 6.93 23.13 12.91 C25 15 25 15 25 18 C24.69 20 24.35 22 24 24 C23.34 23.32 22.68 22.64 22 21.94 C21 20.95 20 19.97 19 19 C18.43 18.45 17.86 17.89 17.27 17.32 C12.64 13.03 7.95 10.22 2.22 7.55 C0 6 0 6 -0.88 3.38 C-0.92 2.6 -0.96 1.81 -1 1 C-0.67 0.67 -0.34 0.34 0 0 Z " fill="#167A5D" transform="translate(188,97)"/>
<path d="M0 0 C-0.33 1.65 -0.66 3.3 -1 5 C0.32 5 1.64 5 3 5 C3.38 6.99 3.71 8.99 4 11 C3 12 3 12 0.5 12.12 C-2 12 -2 12 -3 11 C-3.33 12.65 -3.66 14.3 -4 16 C-4.66 14.68 -5.32 13.36 -6 12 C-7.28 14.57 -7.33 16.77 -7.56 19.62 C-7.65 20.63 -7.73 21.63 -7.82 22.66 C-7.88 23.43 -7.94 24.21 -8 25 C-8.33 25 -8.66 25 -9 25 C-9.33 23.02 -9.66 21.04 -10 19 C-10.33 22.63 -10.66 26.26 -11 30 C-14.08 26.92 -14.22 23.99 -14.38 19.81 C-14.29 12.93 -11.96 8.97 -7.18 4.18 C-2.53 0 -2.53 0 0 0 Z " fill="#167D60" transform="translate(231,159)"/>
<path d="M0 0 C3.3 0 6.6 0 10 0 C10.66 1.32 11.32 2.64 12 4 C12.66 4.33 13.32 4.66 14 5 C14 5.66 14 6.32 14 7 C15.32 7 16.64 7 18 7 C19.32 12.39 19.32 12.39 18 14.94 C14.75 16.66 12.48 15.9 9 15 C4.19 12.2 1.88 8.11 0 3 C0 2.01 0 1.02 0 0 Z " fill="#ED9C17" transform="translate(216,386)"/>
<path d="M0 0 C-0.24 1.86 -0.24 1.86 -1 4 C-2.79 5.2 -2.79 5.2 -5.12 6.18 C-5.55 6.37 -5.55 6.37 -7.69 7.3 C-8.6 7.67 -9.5 8.05 -10.44 8.44 C-12.27 9.22 -14.1 10.01 -15.93 10.8 C-16.81 11.18 -17.69 11.56 -18.6 11.94 C-22.2 13.53 -25.67 15.34 -29.12 17.22 C-31 18 -31 18 -35 18 C-35 16.68 -35 15.36 -35 14 C-30.94 12.04 -26.88 10.08 -22.81 8.12 C-21.66 7.57 -20.51 7.01 -19.33 6.44 C-18.21 5.91 -17.1 5.37 -15.96 4.82 C-14.94 4.33 -13.91 3.84 -12.86 3.33 C-8.36 1.24 -5.02 -0.29 0 0 Z " fill="#58667B" transform="translate(350,320)"/>
<path d="M0 0 C0 0.99 0 1.98 0 3 C-0.84 3.39 -1.69 3.78 -2.55 4.18 C-5.67 5.62 -8.79 7.06 -11.91 8.5 C-13.26 9.12 -14.61 9.75 -15.96 10.37 C-17.9 11.26 -19.84 12.16 -21.78 13.06 C-22.36 13.33 -22.36 13.33 -25.32 14.69 C-28 16 -28 16 -29 17 C-31 17.04 -33 17.04 -35 17 C-34.92 15.22 -34.92 15.22 -34 13 C-31.73 11.63 -29.64 10.56 -27.23 9.51 C-26.89 9.36 -26.89 9.36 -25.17 8.58 C-23.73 7.93 -22.29 7.29 -20.84 6.66 C-18.63 5.69 -16.43 4.69 -14.23 3.69 C-12.84 3.07 -11.44 2.45 -10.04 1.82 C-9.38 1.53 -8.72 1.23 -8.04 0.92 C-3.35 -1.12 -3.35 -1.12 0 0 Z " fill="#58667B" transform="translate(355,332)"/>
<path d="M0 0 C0 1.32 0 2.64 0 4 C-4.12 5.94 -8.24 7.89 -12.37 9.82 C-15.21 11.16 -18.05 12.5 -20.88 13.87 C-22.01 14.41 -23.15 14.94 -24.31 15.5 C-24.82 15.74 -24.82 15.74 -27.36 16.97 C-30 18 -30 18 -34 18 C-34 16.68 -34 15.36 -34 14 C-29.64 12 -25.28 10.01 -20.92 8.02 C-19.44 7.34 -17.95 6.66 -16.47 5.98 C-14.34 5 -12.21 4.03 -10.07 3.06 C-9.41 2.76 -8.75 2.45 -8.07 2.13 C-5.19 0.83 -3.2 0 0 0 Z " fill="#59667B" transform="translate(344,308)"/>
<path d="M0 0 C0.66 0 1.32 0 2 0 C3.18 2.41 4.34 4.83 5.5 7.25 C5.83 7.93 6.17 8.61 6.51 9.32 C8.19 12.85 9 15.02 9 19 C6.03 19.66 3.06 20.32 0 21 C0 14.07 0 7.14 0 0 Z " fill="#E1EBEB" transform="translate(290,253)"/>
<path d="M0 0 C6.6 0 13.2 0 20 0 C20.66 1.98 21.32 3.96 22 6 C18.9 6.15 15.79 6.23 12.69 6.31 C12.25 6.33 12.25 6.33 10.02 6.44 C7.58 6.49 5.39 6.48 3 6 C0 2.5 0 2.5 0 0 Z " fill="#A3591A" transform="translate(196,386)"/>
<path d="M0 0 C2 3 2 3 1.75 6.06 C1 9 1 9 -1 11 C-4.1 11.33 -6.16 11.51 -8.88 9.88 C-10.55 7.09 -10.46 5.18 -10 2 C-6.96 -1.62 -4.33 -1.32 0 0 Z " fill="#2EBE69" transform="translate(311,293)"/>
<path d="M0 0 C0 0.33 0 0.66 0 1 C-13.35 3.6 -26.82 3.45 -40.38 3.62 C-42.77 3.66 -45.16 3.7 -47.55 3.74 C-53.37 3.84 -59.18 3.92 -65 4 C-65.33 4.99 -65.66 5.98 -66 7 C-66.99 6.34 -67.98 5.68 -69 5 C-64.19 2.48 -60.41 0.85 -54.97 0.92 C-54.58 0.92 -54.58 0.92 -52.6 0.94 C-51.76 0.95 -50.93 0.96 -50.06 0.97 C-48.26 0.99 -46.46 1 -44.66 1.01 C-41.84 1.03 -39.02 1.06 -36.2 1.1 C-17.05 1.31 -17.05 1.31 -8.47 -0.66 C-5.46 -1.07 -2.96 -0.62 0 0 Z " fill="#0FA7B9" transform="translate(238,241)"/>
<path d="M0 0 C1.33 2.51 2.15 4.58 2.88 7.38 C4.63 13.04 7.69 17 12 21 C11.34 21.33 10.68 21.66 10 22 C10 21.34 10 20.68 10 20 C8.35 20 6.7 20 5 20 C4.67 20.66 4.34 21.32 4 22 C0.99 19.05 -0.28 16.95 -0.39 12.79 C-0.36 11.26 -0.32 9.72 -0.25 8.19 C-0.23 7.4 -0.21 6.61 -0.2 5.8 C-0.15 3.87 -0.08 1.93 0 0 Z " fill="#0B7659" transform="translate(220,174)"/>
<path d="M0 0 C0 0.66 0 1.32 0 2 C0.99 2 1.98 2 3 2 C4.73 5.45 4.48 9.22 4 13 C2.44 15.06 2.44 15.06 0 16 C-3.75 16.19 -3.75 16.19 -7 16 C-7.33 15.01 -7.66 14.02 -8 13 C-8.66 13 -9.32 13 -10 13 C-10 9.7 -10 6.4 -10 3 C-9.34 3 -8.68 3 -8 3 C-8 2.34 -8 1.68 -8 1 C-5.29 -0.35 -2.99 -0.07 0 0 Z M-7.25 3.12 C-9 5 -9 5 -9.44 8 C-9 11 -9 11 -7.88 12.88 C-5.09 14.55 -3.18 14.46 0 14 C1.94 12.38 1.94 12.38 3 10 C2.88 6.88 2.88 6.88 2 4 C-1.48 1.68 -3.42 1.21 -7.25 3.12 Z " fill="#072920" transform="translate(310,290)"/>
<path d="M0 0 C3.72 0.51 6.73 1.12 10 3 C10 4.65 10 6.3 10 8 C7.26 9.37 5.03 9.13 2 9 C1.34 8.67 0.68 8.34 0 8 C0 5.36 0 2.72 0 0 Z " fill="#B77414" transform="translate(268,212)"/>
<path d="M0 0 C-0.33 0.99 -0.66 1.98 -1 3 C-2.32 3 -3.64 3 -5 3 C-5 3.66 -5 4.32 -5 5 C-5.66 5 -6.32 5 -7 5 C-7 5.66 -7 6.32 -7 7 C-8.32 6.67 -9.64 6.34 -11 6 C-11 6.66 -11 7.32 -11 8 C-12.32 8 -13.64 8 -15 8 C-14.84 6.18 -14.84 6.18 -14 4 C-11.6 2.48 -11.6 2.48 -8.62 1.19 C-7.65 0.75 -6.67 0.31 -5.66 -0.14 C-3 -1 -3 -1 0 0 Z " fill="#0D6C58" transform="translate(365,360)"/>
<path d="M0 0 C0.99 0.33 1.98 0.66 3 1 C3 2.65 3 4.3 3 6 C-0.3 7.32 -3.6 8.64 -7 10 C-7 8.35 -7 6.7 -7 5 C-6.34 5 -5.68 5 -5 5 C-5 4.34 -5 3.68 -5 3 C-3.35 2.67 -1.7 2.34 0 2 C0 1.34 0 0.68 0 0 Z " fill="#0E6A57" transform="translate(309,274)"/>
<path d="M0 0 C2.31 0.33 4.62 0.66 7 1 C7.66 3.31 8.32 5.62 9 8 C6.19 8.31 6.19 8.31 3 8 C0.69 5.15 0 3.69 0 0 Z " fill="#B0590B" transform="translate(179,384)"/>
<path d="M0 0 C0.66 2.64 1.32 5.28 2 8 C-0.31 8 -2.62 8 -5 8 C-5.66 6.35 -6.32 4.7 -7 3 C-8.98 3 -10.96 3 -13 3 C-13 2.67 -13 2.34 -13 2 C-12.65 1.97 -12.65 1.97 -10.88 1.82 C-9.97 1.73 -9.06 1.65 -8.12 1.56 C-7.22 1.48 -6.32 1.4 -5.38 1.32 C-3.45 1.06 -1.84 0 0 0 Z " fill="#B05B0D" transform="translate(233,383)"/>
<path d="M0 0 C1.49 0.33 1.49 0.33 9 2 C9 2.33 9 2.66 9 3 C7.02 3 5.04 3 3 3 C3 6.3 3 9.6 3 13 C-1.29 13 -5.58 13 -10 13 C-10 12.67 -10 12.34 -10 12 C-6.04 12 -2.08 12 2 12 C1.34 10.35 0.68 8.7 0 7 C-0.08 4.67 -0.09 2.33 0 0 Z " fill="#E39F3E" transform="translate(169,381)"/>
<path d="M0 0 C1.98 0.66 3.96 1.32 6 2 C6 5.3 6 8.6 6 12 C5.67 12.17 5.67 12.17 4 13 C3.32 11.59 2.66 10.17 2 8.75 C1.63 7.96 1.26 7.17 0.88 6.36 C0 4 0 4 0 0 Z " fill="#0D6E52" transform="translate(352,303)"/>
<path d="M0 0 C0.67 1.76 0.67 1.76 1 4 C-0.07 5.89 -0.07 5.89 -1.69 7.81 C-4.57 11.39 -6.82 14.97 -9 19 C-9.66 19 -10.32 19 -11 19 C-11.66 20.32 -12.32 21.64 -13 23 C-13.66 22.67 -14.32 22.34 -15 22 C-14.5 21.33 -14.01 20.67 -13.5 19.98 C-8.71 13.49 -4.25 6.86 0 0 Z " fill="#18A67C" transform="translate(265,276)"/>
<path d="M0 0 C0.33 0 0.66 0 1 0 C1 4.62 1 9.24 1 14 C0.67 14 0.34 14 0 14 C-0.33 11.36 -0.66 8.72 -1 6 C-1.99 6.33 -2.98 6.66 -4 7 C-4.37 8.32 -4.69 9.66 -5 11 C-6.56 13.25 -6.56 13.25 -8 15 C-8.66 14.67 -9.32 14.34 -10 14 C-8.52 11.85 -7.04 9.71 -5.56 7.56 C-5.14 6.95 -4.72 6.34 -4.29 5.71 C-1.11 1.11 -1.11 1.11 0 0 Z " fill="#17A27B" transform="translate(280,254)"/>
<path d="M0 0 C0.33 1.32 0.66 2.64 1 4 C0.34 4 -0.32 4 -1 4 C-1 5.32 -1 6.64 -1 8 C-1.66 8 -2.32 8 -3 8 C-3 8.66 -3 9.32 -3 10 C-3.66 10 -4.32 10 -5 10 C-5 10.99 -5 11.98 -5 13 C-5.66 13 -6.32 13 -7 13 C-7 13.99 -7 14.98 -7 16 C-7.66 16 -8.32 16 -9 16 C-9 16.66 -9 17.32 -9 18 C-9.66 17.67 -10.32 17.34 -11 17 C-9.36 14.35 -7.71 11.71 -6.06 9.06 C-5.59 8.31 -5.13 7.55 -4.64 6.78 C-4.19 6.06 -3.75 5.34 -3.29 4.6 C-2.87 3.93 -2.46 3.27 -2.03 2.58 C-1 1 -1 1 0 0 Z " fill="#027B71" transform="translate(273,250)"/>
<path d="M0 0 C2.11 2.11 2.93 3.74 4.12 6.44 C4.48 7.22 4.83 8 5.2 8.81 C6 11 6 11 6 14 C5.34 14 4.68 14 4 14 C3.67 13.01 3.34 12.02 3 11 C1.68 11 0.36 11 -1 11 C-0.67 7.37 -0.34 3.74 0 0 Z " fill="#267962" transform="translate(358,307)"/>
<path d="M0 0 C0.4 0.01 0.4 0.01 2.44 0.06 C2.82 1.72 3.15 3.39 3.44 5.06 C2.44 6.06 2.44 6.06 -0.12 6.12 C-0.53 6.11 -0.53 6.11 -2.56 6.06 C-2.94 4.41 -3.28 2.74 -3.56 1.06 C-2.56 0.06 -2.56 0.06 0 0 Z " fill="#EBF1F4" transform="translate(231.5625,164.9375)"/>
<path d="M0 0 C0.66 0 1.32 0 2 0 C2.99 2.97 3.98 5.94 5 9 C4.67 9.17 4.67 9.17 3 10 C2.01 9.67 1.02 9.34 0 9 C0 6.03 0 3.06 0 0 Z " fill="#1E7C63" transform="translate(368,332)"/>
<path d="M0 0 C0.66 0 1.32 0 2 0 C2 0.99 2 1.98 2 3 C2.66 3 3.32 3 4 3 C3.86 3.54 3.71 4.08 3.57 4.64 C2.92 7.33 2.42 10.03 1.94 12.75 C1.76 13.73 1.58 14.72 1.4 15.73 C1.34 16.11 1.34 16.11 1 18 C0.67 18 0.34 18 0 18 C0 12.06 0 6.12 0 0 Z " fill="#126A5A" transform="translate(288,284)"/>
<path d="M0 0 C0.66 0 1.32 0 2 0 C0.8 3.79 -0.53 7.53 -1.94 11.25 C-2.26 12.1 -2.57 12.95 -2.9 13.83 C-4 16 -4 16 -7 18 C-5.06 11.8 -2.74 5.89 0 0 Z " fill="#14A378" transform="translate(152,189)"/>
<path d="M0 0 C5 0.48 7.98 2.03 12 5 C8.6 6.13 7.35 6.14 4 5 C1.69 2.44 1.69 2.44 0 0 Z " fill="#DEEDEF" transform="translate(240,163)"/>
<path d="M0 0 C0.33 0 0.66 0 1 0 C1 4.95 1 9.9 1 15 C0.34 15 -0.32 15 -1 15 C-1.33 15.99 -1.66 16.98 -2 18 C-3.36 15.29 -2.41 13.86 -1.55 11.09 C-0.59 7.45 -0.32 3.73 0 0 Z " fill="#CAEAE3" transform="translate(309,190)"/>
<path d="M0 0 C5.47 4.39 5.47 4.39 7 6 C7 6.99 7 7.98 7 9 C6.67 8.34 6.34 7.68 6 7 C4.35 7 2.7 7 1 7 C0.67 7.66 0.34 8.32 0 9 C0 6.03 0 3.06 0 0 Z " fill="#1F765F" transform="translate(224,187)"/>
<path d="M0 0 C0.78 0.04 1.57 0.08 2.38 0.12 C2.38 1.12 2.38 2.11 2.38 3.12 C0.73 2.8 -0.93 2.46 -2.62 2.12 C-2.62 4.76 -2.62 7.4 -2.62 10.12 C-4.77 6.9 -5.01 5.86 -4.62 2.12 C-2.62 0.12 -2.62 0.12 0 0 Z " fill="#37C279" transform="translate(346.625,275.875)"/>
<path d="M0 0 C0.66 0.33 1.32 0.66 2 1 C-0.46 5.8 -0.46 5.8 -3.19 6.81 C-3.79 6.87 -4.38 6.94 -5 7 C-5.33 5.68 -5.66 4.36 -6 3 C-4.04 1.93 -2.03 0.93 0 0 Z " fill="#19765E" transform="translate(317,271)"/>
<path d="M0 0 C0 0.66 0 1.32 0 2 C-0.66 2 -1.32 2 -2 2 C-2 2.66 -2 3.32 -2 4 C-0.68 4.33 0.64 4.66 2 5 C-0.31 5.33 -2.62 5.66 -5 6 C-5.66 4.68 -6.32 3.36 -7 2 C-4.35 0.54 -3.11 0 0 0 Z " fill="#227864" transform="translate(326,268)"/>
<path d="M0 0 C1.98 0 3.96 0 6 0 C6.33 0.99 6.66 1.98 7 3 C5.51 3.17 5.51 3.17 -2 4 C-2 3.34 -2 2.68 -2 2 C-1.34 2 -0.68 2 0 2 C0 1.34 0 0.68 0 0 Z " fill="#047256" transform="translate(326,268)"/>
<path d="M0 0 C0 0.99 0 1.98 0 3 C-3.66 5.91 -6.39 6.32 -11 6 C-8.8 3.52 -6.94 2.39 -3.81 1.31 C-3.1 1.06 -2.38 0.81 -1.64 0.55 C-1.1 0.37 -0.56 0.19 0 0 Z " fill="#237C64" transform="translate(249,192)"/>
<path d="M0 0 C0.33 1.32 0.66 2.64 1 4 C0.34 4 -0.32 4 -1 4 C-1.33 5.65 -1.66 7.3 -2 9 C-2.99 9.33 -3.98 9.66 -5 10 C-3.84 6.09 -2.64 3.13 0 0 Z " fill="#267661" transform="translate(153,169)"/>
<path d="M0 0 C1.32 0 2.64 0 4 0 C4 0.66 4 1.32 4 2 C5.98 2.66 7.96 3.32 10 4 C9.67 5.32 9.34 6.64 9 8 C2.57 2.71 2.57 2.71 0 0 Z " fill="#2B7B65" transform="translate(196,106)"/>
<path d="M0 0 C1.32 0.33 2.64 0.66 4 1 C4 1.66 4 2.32 4 3 C4.66 3 5.32 3 6 3 C6 4.32 6 5.64 6 7 C3.01 5.9 2.15 5.32 0.75 2.38 C0.5 1.59 0.25 0.81 0 0 Z " fill="#E7A432" transform="translate(218,392)"/>
<path d="M0 0 C0.06 0.32 0.06 0.32 0.38 1.94 C0.58 2.62 0.79 3.3 1 4 C1.66 4.33 2.32 4.66 3 5 C1.35 5.33 -0.3 5.66 -2 6 C-2.17 5.18 -2.17 5.18 -3 1 C-2.01 0.67 -1.02 0.34 0 0 Z " fill="#0A6D54" transform="translate(361,317)"/>
<path d="M0 0 C0.66 0 1.32 0 2 0 C2 2.64 2 5.28 2 8 C1.34 8 0.68 8 0 8 C-1.12 2.25 -1.12 2.25 0 0 Z " fill="#262833" transform="translate(243,168)"/>
<path d="M0 0 C0.66 0.66 1.32 1.32 2 2 C-0.31 4.31 -2.62 6.62 -5 9 C-5.33 8.01 -5.66 7.02 -6 6 C-5.34 6 -4.68 6 -4 6 C-4 5.34 -4 4.68 -4 4 C-3.34 4 -2.68 4 -2 4 C-1.34 2.68 -0.68 1.36 0 0 Z " fill="#C7E4E0" transform="translate(172,144)"/>
<path d="M0 0 C5.75 0.75 5.75 0.75 8 3 C5.36 3 2.72 3 0 3 C0 2.01 0 1.02 0 0 Z " fill="#EAE4D7" transform="translate(154,376)"/>
<path d="M0 0 C0 0.66 0 1.32 0 2 C-1.32 1.67 -2.64 1.34 -4 1 C-2 0 -2 0 0 0 Z M-7 2 C-6.01 2 -5.02 2 -4 2 C-4 2.66 -4 3.32 -4 4 C-4.66 4 -5.32 4 -6 4 C-6 4.66 -6 5.32 -6 6 C-6.99 5.67 -7.98 5.34 -9 5 C-8.34 4.01 -7.68 3.02 -7 2 Z " fill="#047356" transform="translate(364,361)"/>
<path d="M0 0 C0.33 0.66 0.66 1.32 1 2 C-1.57 5.86 -3.61 5.94 -8 7 C-5.42 4.35 -3.08 2.06 0 0 Z " fill="#15A67A" transform="translate(223,326)"/>
<path d="M0 0 C3.54 1.91 5.79 3.63 8 7 C7.67 7.17 7.67 7.17 6 8 C6 7.34 6 6.68 6 6 C5.38 5.75 4.76 5.5 4.12 5.25 C1.65 3.79 1.05 2.62 0 0 Z " fill="#1F765E" transform="translate(182,105)"/>
<path d="M0 0 C-2.31 1.65 -4.62 3.3 -7 5 C-7.33 4.34 -7.66 3.68 -8 3 C-7.34 3 -6.68 3 -6 3 C-6 2.01 -6 1.02 -6 0 C-4 -1 -4 -1 0 0 Z " fill="#25745F" transform="translate(264,368)"/>
<path d="M0 0 C0.81 1.69 0.81 1.69 1 4 C-1.16 6.51 -3.02 8.51 -6 10 C-4.63 6 -2.74 3.2 0 0 Z " fill="#18A67D" transform="translate(249,299)"/>
<path d="M0 0 C2.35 2.55 2.98 3.71 3.19 7.25 C3.13 8.16 3.06 9.06 3 10 C1.01 7.01 0.06 4.4 -1 1 C-0.67 0.67 -0.34 0.34 0 0 Z " fill="#247060" transform="translate(293,317)"/>
<path d="M0 0 C0.66 0 1.32 0 2 0 C2.66 2.31 3.32 4.62 4 7 C2.68 6.67 1.36 6.34 0 6 C0 4.02 0 2.04 0 0 Z " fill="#C0E0D8" transform="translate(286,308)"/>
<path d="M0 0 C0.66 0 1.32 0 2 0 C2 0.66 2 1.32 2 2 C1.34 2 0.68 2 0 2 C-0.33 3.32 -0.66 4.64 -1 6 C-1.99 6 -2.98 6 -4 6 C-2.85 3.53 -1.95 1.95 0 0 Z " fill="#057C74" transform="translate(282,240)"/>
<path d="M0 0 C0.33 0.5 0.33 0.5 2 3 C4.62 3.19 4.62 3.19 7 3 C6.36 3.1 5.72 3.21 5.06 3.31 C4.38 3.54 3.7 3.77 3 4 C2.67 4.99 2.34 5.98 2 7 C1.34 7 0.68 7 0 7 C0 4.69 0 2.38 0 0 Z " fill="#0E131B" transform="translate(227,169)"/>
<path d="M0 0 C0.33 1.32 0.66 2.64 1 4 C0.34 4 -0.32 4 -1 4 C-1 4.66 -1 5.32 -1 6 C-2.32 6.33 -3.64 6.66 -5 7 C-1.12 1.12 -1.12 1.12 0 0 Z " fill="#2E7A67" transform="translate(159,161)"/>
</svg>
