<?xml version="1.0" encoding="UTF-8"?>
<!-- Generator: visioncortex VTracer 0.6.12 -->
<svg version="1.1" xmlns="http://www.w3.org/2000/svg" width="512" height="512">
<path d="M0 0 C168.96 0 337.92 0 512 0 C512 168.96 512 337.92 512 512 C343.04 512 174.08 512 0 512 C0 343.04 0 174.08 0 0 Z " fill="#FBFBFB" transform="translate(0,0)"/>
<path d="M0 0 C9.9 -0.86 18.38 4.07 26 10 C28.63 12.34 31.2 14.71 33.74 17.14 C35.99 18.99 37.13 19.74 40 20 C40.29 19.92 40.29 19.92 41.77 19.53 C54.87 16.43 71.19 17.57 83 24 C83.71 24.3 84.42 24.6 85.16 24.91 C94.33 28.84 101.57 35.99 107.62 43.75 C108.05 44.29 108.48 44.84 108.92 45.39 C111.26 48.54 112.58 51.08 113 55 C113.29 55.06 113.29 55.06 114.76 55.37 C123.18 57.74 129.36 64.52 133.67 71.84 C137.16 80.15 135.44 89.95 132.42 98.19 C130.4 102.19 127.57 105.3 124.65 108.68 C122.89 111.15 122.43 112.44 122.38 115.44 C123 119 123 119 125 122 C125.2 126.08 125.17 129.31 124.21 133.29 C123.93 138.3 125.65 140.61 128.44 144.62 C129.36 146.02 130.28 147.42 131.21 148.82 C131.67 149.52 132.14 150.21 132.62 150.93 C134.71 154.07 136.67 157.28 138.62 160.5 C139.28 161.56 139.93 162.62 140.6 163.72 C140.83 164.1 140.83 164.1 142 166 C145.59 164.68 148.57 163.05 151.75 160.94 C156.45 158.08 160.45 156.53 166 157 C169.45 158.24 171.43 159.4 173.94 162.06 C176 164 176 164 179.25 164.55 C183.75 165.75 185.31 168.72 187.57 172.59 C188.04 173.45 188.52 174.3 189 175.19 C189.5 176.03 190 176.86 190.52 177.73 C193.58 183.13 194.08 185.79 193 192 C194.11 194.66 195.18 196.78 196.69 199.19 C197.08 199.86 197.48 200.53 197.89 201.22 C199.24 203.49 200.62 205.75 202 208 C203.63 210.7 205.25 213.41 206.88 216.12 C207.95 217.89 209.02 219.67 210.1 221.44 C210.59 222.25 211.09 223.06 211.59 223.89 C212.03 224.61 212.47 225.34 212.93 226.08 C214.61 229.09 215.22 231.79 215.38 235.19 C215.42 235.9 215.47 236.62 215.52 237.36 C214.51 242.49 211.92 246.45 207.85 249.73 C205.3 251.42 202.71 252.98 200.06 254.5 C199.6 254.78 199.6 254.78 197.23 256.18 C195.36 257.28 193.48 258.38 191.6 259.47 C189.32 260.81 187.09 262.19 184.86 263.61 C179.16 267.2 174.26 269.9 167.38 269.77 C158.9 267.03 155.56 260.7 151.5 253.31 C150.91 252.26 150.31 251.22 149.7 250.14 C148.44 247.91 147.18 245.68 145.93 243.44 C142.73 237.74 139.46 232.09 136.19 226.44 C135.56 225.35 134.93 224.26 134.29 223.13 C130.13 215.92 125.89 208.76 121.54 201.66 C120 199 120 199 119 196 C118.69 198.6 118.37 201.21 118.06 203.81 C118.02 204.17 118.02 204.17 117.8 205.99 C117.42 209.2 117.04 212.41 116.81 215.64 C116.31 222.41 115.03 228.65 113.19 235.19 C112.94 236.12 112.69 237.05 112.44 238.01 C108.24 253.2 99.6 263.82 86 272 C84.67 272.67 83.34 273.34 82 274 C83.21 274.01 84.42 274.03 85.66 274.04 C109.1 274.35 132.48 274.95 155.88 276.5 C156.87 276.57 157.87 276.63 158.89 276.7 C161.74 276.89 164.58 277.08 167.43 277.28 C167.84 277.31 167.84 277.31 169.93 277.45 C171.49 277.57 173.06 277.69 174.63 277.81 C176.31 277.95 177.99 278.06 179.68 278.16 C180.56 278.23 181.44 278.29 182.35 278.36 C183.14 278.41 183.94 278.46 184.76 278.51 C187.52 279.11 188.97 280.05 191 282 C191.7 286.22 191.56 288.2 189.09 291.73 C184.65 294.99 181.35 294.37 176.04 293.88 C174.05 293.74 172.06 293.6 170.07 293.47 C169.06 293.39 168.04 293.31 167 293.22 C162.43 292.88 157.85 292.67 153.27 292.46 C151.48 292.38 149.68 292.29 147.89 292.2 C126.24 291.16 104.67 290.73 83 291 C83.33 291.33 83.66 291.66 84 292 C84.19 294.44 84.19 294.44 84 297 C82 299 82 299 78.19 299.44 C74.61 299.37 74.07 299.06 71.12 296.62 C70.42 295.76 69.72 294.89 69 294 C68.34 293.34 67.68 292.68 67 292 C66.67 294.31 66.34 296.62 66 299 C58.05 299.62 58.05 299.62 54.06 297.25 C52 295 52 295 50 291 C45.38 291 40.76 291 36 291 C36.33 291.33 36.66 291.66 37 292 C36.71 294.34 36.38 296.67 36 299 C28.34 299.92 28.34 299.92 25.1 297.7 C23.5 296.06 23.5 296.06 21 293 C20.67 292.67 20.34 292.34 20 292 C20.04 292.76 20.08 293.53 20.12 294.31 C20 297 20 297 18 300 C14.12 300.62 12.25 300.13 8.75 298.31 C5.86 295.88 5.22 294.47 4 291 C2.97 291.09 1.93 291.18 0.87 291.28 C-3.01 291.62 -6.89 291.95 -10.78 292.28 C-12.45 292.43 -14.12 292.57 -15.79 292.72 C-41.43 294.97 -41.43 294.97 -44.8 292.88 C-47.28 290.31 -47.99 288.35 -48.06 284.81 C-46.83 281.55 -45.94 280.79 -43 279 C-40.61 278.49 -40.61 278.49 -37.96 278.3 C-36.99 278.23 -36.01 278.15 -35.01 278.07 C-34 278.01 -32.98 277.94 -31.94 277.88 C-29.95 277.73 -27.96 277.58 -25.96 277.43 C-24.99 277.36 -24.01 277.29 -23 277.22 C-18.33 276.88 -13.66 276.44 -9 276 C-9.88 275.76 -10.77 275.52 -11.68 275.28 C-20.96 271.86 -24.8 267.34 -28.94 258.38 C-30.74 254.29 -32.4 250.17 -34 246 C-34.36 245.08 -34.71 244.15 -35.08 243.2 C-41.8 225.45 -46.14 206.59 -46.17 187.55 C-46.17 186.77 -46.18 186 -46.18 185.2 C-46.19 182.72 -46.19 180.23 -46.19 177.75 C-46.19 177.32 -46.19 177.32 -46.19 175.17 C-46.16 162.35 -45.86 149.71 -44 137 C-43.87 136.09 -43.74 135.18 -43.61 134.24 C-38.2 97.06 -23.78 60.3 6.32 36.14 C7.84 35.04 9.41 34.01 11 33 C4.99 23.7 -3.22 16.05 -14 13 C-14.68 12.8 -15.35 12.6 -16.05 12.39 C-17.69 11.9 -19.34 11.45 -21 11 C-21.62 9.12 -21.62 9.12 -22 7 C-20 5 -20 5 -16.62 4.56 C-5.65 4.92 2.7 11.42 10 19 C12.74 21.94 15.4 24.93 18 28 C20.44 27.04 22.81 26.1 25.12 24.88 C27 24 27 24 30 24 C22.78 14.69 14.98 9.78 3.59 6.73 C1 6 1 6 0 5 C-0.04 3.33 -0.04 1.67 0 0 Z " fill="#077657" transform="translate(168,102)"/>
<path d="M0 0 C4.64 3.77 8.85 8.02 12.44 12.81 C12.44 13.47 12.44 14.13 12.44 14.81 C11.58 14.87 10.73 14.93 9.85 15 C8.74 15.08 7.64 15.16 6.5 15.25 C5.4 15.33 4.3 15.41 3.16 15.5 C0.44 15.81 0.44 15.81 -0.56 16.81 C-1.26 24.25 -0.24 31.19 1.3 38.45 C2.36 43.7 2.71 48.79 2.88 54.12 C3.14 61.74 3.77 70.15 9.44 75.81 C11.76 76.21 14.09 76.55 16.44 76.81 C15.44 78.81 15.44 78.81 12.41 79.96 C11.11 80.38 9.81 80.78 8.5 81.19 C3.97 82.63 -0.48 84.11 -4.88 85.94 C-24.62 94.05 -45.88 95.36 -66.98 94.84 C-68.27 94.81 -69.56 94.79 -70.89 94.76 C-72.03 94.72 -73.18 94.69 -74.36 94.65 C-77.77 94.82 -80.38 95.6 -83.56 96.81 C-84.35 97.07 -85.13 97.33 -85.94 97.59 C-89.87 98.89 -93.75 100.21 -97.56 101.81 C-97.56 102.47 -97.56 103.13 -97.56 103.81 C-98.31 104.4 -99.06 104.98 -99.83 105.58 C-105.92 110.55 -110.08 118.79 -111.36 126.54 C-112.83 142.72 -108.22 156.06 -98.12 168.75 C-85.59 183.19 -69.18 191.86 -49.94 193.38 C-42.93 193.24 -38.62 189.25 -33.56 184.81 C-32.97 184.3 -32.38 183.79 -31.77 183.27 C-22.91 175.55 -15.26 167.47 -8.56 157.81 C-8.17 157.25 -7.77 156.69 -7.37 156.11 C-1.45 147.62 3.88 138.81 9.16 129.91 C16.36 117.82 16.36 117.82 20.44 112.81 C20.77 112.81 21.1 112.81 21.44 112.81 C21.77 129.55 21.61 146.13 20.12 162.81 C20.07 163.5 20.01 164.19 19.95 164.9 C18.02 186.94 15.76 206.51 -1.7 221.68 C-10.57 228.3 -20.92 232.11 -31.56 234.81 C-31.99 234.93 -31.99 234.93 -34.15 235.5 C-53.92 239.91 -76.01 236.37 -94.56 228.81 C-95.38 228.51 -96.19 228.21 -97.04 227.9 C-103.3 225.27 -106.01 222.57 -108.74 216.36 C-108.93 215.89 -108.93 215.89 -109.88 213.5 C-110.29 212.53 -110.7 211.55 -111.13 210.55 C-114.49 202.45 -117.18 194.24 -119.56 185.81 C-119.91 184.77 -120.26 183.73 -120.62 182.66 C-125.24 168.67 -124.75 153.65 -124.75 139.1 C-124.75 136.21 -124.77 133.33 -124.79 130.45 C-124.84 114.35 -123.48 98.79 -120.25 83 C-120.03 81.93 -119.82 80.87 -119.6 79.77 C-117.97 72.04 -115.79 65.03 -112.56 57.81 C-111.93 56.15 -111.31 54.48 -110.69 52.81 C-106.4 42.23 -100.54 32.81 -93.56 23.81 C-92.83 22.85 -92.1 21.89 -91.35 20.91 C-87.29 15.68 -87.29 15.68 -85.56 13.81 C-84.9 13.81 -84.24 13.81 -83.56 13.81 C-83.56 13.15 -83.56 12.49 -83.56 11.81 C-61.54 -9.36 -26.32 -19.45 0 0 Z " fill="#11B17E" transform="translate(256.5625,140.1875)"/>
<path d="M0 0 C1 1 1 1 1.31 4.23 C0.94 8.68 -0.05 10.03 -3 13.31 C-3.83 14.27 -4.65 15.22 -5.5 16.2 C-6.33 17.12 -7.15 18.05 -8 19 C-14.73 26.74 -19.74 35.09 -24.82 43.95 C-27.75 49.04 -30.84 54.04 -34 59 C-34.39 59.62 -34.78 60.23 -35.19 60.87 C-44.64 75.58 -57.92 93.96 -74 102 C-88.88 103.65 -101.46 97.08 -113.25 88.69 C-123.37 78.79 -132.15 66.95 -132.37 52.38 C-132.37 51.61 -132.37 50.85 -132.38 50.06 C-132.4 49.3 -132.42 48.54 -132.45 47.76 C-132.5 38.64 -128.21 32.57 -122.15 26.05 C-115.18 19.4 -108.94 17.8 -99.37 18.01 C-98.74 18.02 -98.74 18.02 -95.52 18.07 C-95.18 18.07 -95.18 18.07 -93.5 18.1 C-71.97 18.38 -52.61 15.24 -32 9 C-30.84 8.65 -29.67 8.3 -28.48 7.93 C-24.28 6.59 -20.19 5.09 -16.12 3.39 C-15.45 3.11 -14.78 2.83 -14.08 2.54 C-12.77 1.99 -11.46 1.42 -10.16 0.84 C-6.38 -0.76 -3.93 -1.35 0 0 Z " fill="#06ADCD" transform="translate(284,224)"/>
<path d="M0 0 C4.29 1.49 5.93 4.59 8.11 8.32 C8.48 8.94 8.85 9.56 9.24 10.2 C10.42 12.17 11.58 14.15 12.75 16.12 C13.55 17.47 14.35 18.81 15.15 20.14 C17.11 23.42 19.06 26.71 21 30 C24.57 28.62 27.56 27.06 30.75 24.94 C35.45 22.08 39.45 20.53 45 21 C49.12 22.48 52.48 24.37 55 28 C54.79 29.03 54.59 30.06 54.38 31.12 C53.89 36.12 55.45 38.12 58.16 42.18 C60.66 46.01 62.81 49.99 65 54 C66.5 56.73 68 59.46 69.5 62.19 C69.91 62.94 70.33 63.7 70.75 64.48 C73.23 68.96 75.82 73.36 78.54 77.71 C79.13 78.67 79.73 79.63 80.34 80.63 C81.5 82.5 82.68 84.36 83.88 86.21 C87.13 91.47 88.65 95.49 88.6 101.69 C87.09 107.51 82.49 110.22 77.59 113.14 C76.98 113.5 76.37 113.87 75.75 114.24 C73.81 115.4 71.88 116.54 69.94 117.69 C68.63 118.47 67.33 119.25 66.02 120.03 C63.63 121.45 61.24 122.87 58.85 124.29 C56.87 125.48 54.92 126.72 53 128 C48.77 128.56 46.64 128.38 42.94 126.19 C39.61 123.05 37.77 119.19 35.7 115.16 C33.79 111.62 31.65 108.3 29.44 104.94 C26.37 100.25 23.65 95.54 21.23 90.48 C17 81.94 11.74 73.89 6.7 65.81 C3.88 61.14 2.33 57.84 2.41 52.32 C3.54 47.86 7.27 45.4 11 43 C11.5 42.83 11.5 42.83 14 42 C14.87 35.26 13.26 32.37 9.22 27.06 C6.42 23.2 4.03 19.17 1.62 15.06 C1.18 14.32 0.74 13.57 0.29 12.8 C-1.43 9.86 -2.92 7.25 -4 4 C-2.68 2.68 -1.36 1.36 0 0 Z " fill="#1A2838" transform="translate(289,238)"/>
<path d="M0 0 C26.09 -0.32 52.08 -0.34 78.12 1.44 C79.11 1.5 80.1 1.57 81.12 1.64 C86.3 2 91.48 2.36 96.65 2.81 C98.32 2.94 100 3.06 101.67 3.16 C102.11 3.2 102.11 3.2 104.34 3.36 C104.74 3.39 104.74 3.39 106.75 3.51 C109.52 4.11 110.97 5.05 113 7 C113.7 11.22 113.56 13.2 111.09 16.73 C106.65 19.99 103.35 19.37 98.04 18.88 C96.05 18.74 94.06 18.6 92.07 18.47 C91.06 18.39 90.04 18.31 89 18.22 C84.43 17.88 79.85 17.67 75.27 17.46 C73.48 17.38 71.68 17.29 69.89 17.2 C48.24 16.16 26.67 15.73 5 16 C5.33 16.33 5.66 16.66 6 17 C6.19 19.44 6.19 19.44 6 22 C4 24 4 24 0.19 24.44 C-3.39 24.37 -3.93 24.06 -6.88 21.62 C-7.58 20.76 -8.28 19.89 -9 19 C-9.33 18.67 -9.33 18.67 -11 17 C-11.33 19.31 -11.66 21.62 -12 24 C-19.95 24.62 -19.95 24.62 -23.94 22.25 C-26 20 -26 20 -28 16 C-32.62 16 -37.24 16 -42 16 C-41.67 16.33 -41.34 16.66 -41 17 C-41.29 19.34 -41.62 21.67 -42 24 C-49.66 24.92 -49.66 24.92 -52.9 22.7 C-54.5 21.06 -54.5 21.06 -57 18 C-57.33 17.67 -57.66 17.34 -58 17 C-57.96 17.76 -57.92 18.53 -57.88 19.31 C-58 22 -58 22 -60 25 C-63.88 25.62 -65.75 25.13 -69.25 23.31 C-72.14 20.88 -72.78 19.47 -74 16 C-75.03 16.09 -76.07 16.18 -77.13 16.28 C-81.01 16.62 -84.89 16.95 -88.78 17.28 C-90.45 17.43 -92.12 17.57 -93.79 17.72 C-119.43 19.97 -119.43 19.97 -122.8 17.88 C-125.28 15.31 -125.99 13.35 -126.06 9.81 C-124.83 6.55 -123.93 5.79 -121 4 C-118.69 3.48 -118.69 3.48 -116.14 3.27 C-115.2 3.19 -114.26 3.11 -113.28 3.02 C-112.28 2.95 -111.28 2.88 -110.25 2.81 C-109.22 2.74 -108.18 2.66 -107.12 2.58 C-104.08 2.37 -101.04 2.18 -98 2 C-97.22 1.95 -96.45 1.89 -95.65 1.84 C-85.76 1.2 -77.48 2.85 -68.16 5.81 C-59.99 8.28 -51.84 8.16 -43.38 8.12 C-42.22 8.12 -41.07 8.12 -39.88 8.11 C-17.71 7.97 -17.71 7.97 -10 4 C-7.23 3.27 -7.23 3.27 -4.62 2.81 C-3.75 2.65 -2.88 2.5 -1.98 2.33 C-1.65 2.28 -1.65 2.28 0 2 C0 1.34 0 0.68 0 0 Z " fill="#ED9A15" transform="translate(246,377)"/>
<path d="M0 0 C3.78 3.37 6.07 7.16 8.56 11.5 C9.33 12.82 10.1 14.15 10.88 15.47 C11.24 16.09 11.6 16.71 11.98 17.34 C13 19 13 19 14.73 21.23 C16.48 23.67 16.77 26 16.7 28.97 C15.24 33.23 10.71 34.9 7 37 C4.7 39.3 4.63 39.86 4.5 43 C4.6 48.06 6.54 51.31 9.3 55.45 C10.94 57.92 12.43 60.45 13.89 63.04 C15.1 65.19 16.34 67.32 17.59 69.45 C26 83.93 26 83.93 29.31 90.12 C31.5 94.2 33.94 97.99 36.56 101.8 C38.5 104.77 40.12 107.89 41.73 111.05 C43.29 113.45 44.47 114.63 47 116 C54.3 117.43 59.35 113.26 65.31 109.44 C66.29 108.83 67.28 108.22 68.29 107.59 C87.32 95.69 87.32 95.69 88.45 91.21 C89.4 82.18 84.11 75.65 79.48 68.37 C76.94 64.31 74.57 60.15 72.19 56 C71.74 55.24 71.3 54.47 70.84 53.68 C68.67 49.94 66.54 46.18 64.45 42.39 C62.93 39.64 61.37 36.92 59.73 34.23 C59.38 33.65 59.03 33.07 58.67 32.48 C57.96 31.3 57.24 30.14 56.51 28.98 C54.84 26.17 53.97 24.45 54.21 21.14 C55 19 55 19 56 18 C58.8 17.56 58.8 17.56 62 18 C64.2 20.6 64.2 20.6 66.12 24.06 C66.46 24.66 66.8 25.26 67.15 25.87 C68.11 27.58 69.05 29.29 70 31 C70.85 32.29 71.71 33.59 72.56 34.88 C74 38 74 38 73.36 41.25 C72.91 45.89 74.31 48.38 76.69 52.19 C76.89 52.52 76.89 52.52 77.89 54.22 C79.24 56.49 80.62 58.75 82 61 C83.63 63.7 85.25 66.41 86.88 69.12 C87.95 70.89 89.02 72.67 90.1 74.44 C90.59 75.25 91.09 76.06 91.59 76.89 C92.03 77.61 92.47 78.34 92.93 79.08 C94.61 82.09 95.22 84.79 95.38 88.19 C95.4 88.55 95.4 88.55 95.52 90.36 C94.51 95.49 91.92 99.45 87.85 102.73 C85.3 104.42 82.71 105.98 80.06 107.5 C79.13 108.05 78.19 108.61 77.23 109.18 C75.36 110.28 73.48 111.38 71.6 112.47 C69.32 113.81 67.09 115.19 64.86 116.61 C59.16 120.2 54.26 122.9 47.38 122.77 C38.9 120.03 35.56 113.7 31.5 106.31 C31.2 105.79 31.2 105.79 29.7 103.14 C28.44 100.91 27.18 98.68 25.93 96.44 C22.73 90.74 19.46 85.09 16.19 79.44 C15.56 78.35 14.93 77.25 14.28 76.13 C10.18 69 5.98 61.94 1.64 54.95 C-1.89 48.59 -2.32 43.24 -2.25 36.12 C-2.25 35.18 -2.24 34.24 -2.24 33.26 C-2.11 22.13 -1.1 11.07 0 0 Z " fill="#12705A" transform="translate(288,249)"/>
<path d="M0 0 C26.09 -0.32 52.08 -0.34 78.12 1.44 C79.11 1.5 80.1 1.57 81.12 1.64 C86.3 2 91.48 2.36 96.65 2.81 C98.32 2.94 100 3.06 101.67 3.16 C102.11 3.2 102.11 3.2 104.34 3.36 C104.74 3.39 104.74 3.39 106.75 3.51 C109.52 4.11 110.97 5.05 113 7 C113.7 11.22 113.56 13.2 111.09 16.73 C106.65 19.99 103.33 19.37 98.02 18.87 C96.02 18.73 94.03 18.59 92.04 18.46 C91.03 18.38 90.02 18.3 88.98 18.22 C84.49 17.89 79.99 17.71 75.48 17.54 C73.72 17.46 71.96 17.38 70.19 17.3 C69.3 17.26 68.42 17.22 67.5 17.18 C44.66 16.18 21.83 15.1 -1 14 C-3.07 10.08 -4.4 7.48 -4 3 C-2.68 2.67 -1.36 2.34 0 2 C0 1.34 0 0.68 0 0 Z " fill="#B15612" transform="translate(246,377)"/>
<path d="M0 0 C3.96 0 7.92 0 12 0 C12 0.66 12 1.32 12 2 C12.78 1.88 13.57 1.75 14.38 1.62 C20.67 2.28 25.58 5.53 29.98 10.02 C33.69 14.91 34.83 19.12 34.45 25.24 C33.11 33.45 29.2 41.34 23 47 C20.28 47.75 20.28 47.75 18 48 C17.92 47.63 17.92 47.63 17.5 45.75 C15.33 41.76 12.14 40.59 8 39 C6.67 38.66 5.34 38.32 4 38 C3.97 37.37 3.97 37.37 3.82 34.2 C3.4 25.77 2.96 17.38 2 9 C1.34 9 0.68 9 0 9 C0 6.03 0 3.06 0 0 Z " fill="#E59B12" transform="translate(262,162)"/>
<path d="M0 0 C4.88 2.39 7.81 5.72 11 10 C12.61 14.82 13.03 18.79 10.87 23.42 C7.96 28.07 5.43 31.37 0 33 C-5.86 33.56 -9.76 32.96 -15 30 C-19.52 25.83 -21.08 21.77 -21.44 15.75 C-21.38 10.15 -18.81 6.89 -15 3 C-10.65 -0.87 -5.55 -0.79 0 0 Z " fill="#EFF4F5" transform="translate(236,159)"/>
<path d="M0 0 C3.2 0.44 3.2 0.44 5.39 3.04 C6.03 4.18 6.66 5.33 7.32 6.5 C7.49 6.8 7.49 6.8 8.34 8.31 C9.3 10.02 10.25 11.73 11.2 13.44 C12.05 14.73 12.9 16.03 13.76 17.32 C15.2 20.44 15.2 20.44 14.55 23.69 C14.11 28.33 15.51 30.82 17.88 34.63 C18.28 35.3 18.68 35.97 19.09 36.66 C20.44 38.93 21.82 41.19 23.2 43.44 C24.82 46.14 26.45 48.85 28.07 51.56 C29.14 53.33 30.22 55.11 31.3 56.88 C31.79 57.69 32.28 58.5 32.79 59.34 C33.01 59.7 33.01 59.7 34.12 61.52 C35.8 64.53 36.41 67.23 36.57 70.63 C36.62 71.34 36.67 72.06 36.72 72.8 C35.7 77.93 33.12 81.9 29.04 85.17 C26.49 86.86 23.91 88.42 21.26 89.94 C20.32 90.5 19.39 91.05 18.42 91.62 C16.55 92.73 14.68 93.82 12.79 94.92 C10.52 96.25 8.28 97.63 6.05 99.05 C0.27 102.69 -4.72 105.59 -11.74 104.99 C-14.77 104.19 -16.68 102.71 -18.8 100.44 C-17.48 100.44 -16.16 100.44 -14.8 100.44 C-14.8 101.1 -14.8 101.76 -14.8 102.44 C-11.5 102.44 -8.2 102.44 -4.8 102.44 C-4.8 101.78 -4.8 101.12 -4.8 100.44 C-6.78 100.44 -8.76 100.44 -10.8 100.44 C-10.8 100.11 -10.8 99.78 -10.8 99.44 C-9.87 99.24 -8.94 99.04 -7.98 98.83 C-2.5 97.26 2.17 94.18 7.01 91.25 C7.94 90.7 8.88 90.15 9.84 89.58 C27.36 79.11 27.36 79.11 29.2 75.44 C30.71 69.41 29.17 64.83 26.17 59.63 C24.37 56.67 22.53 53.73 20.68 50.81 C18.14 46.75 15.77 42.59 13.38 38.44 C12.94 37.68 12.5 36.91 12.04 36.13 C9.87 32.38 7.73 28.62 5.64 24.83 C4.12 22.08 2.56 19.36 0.92 16.68 C0.57 16.1 0.22 15.52 -0.14 14.92 C-0.85 13.75 -1.56 12.58 -2.29 11.42 C-3.96 8.61 -4.84 6.89 -4.59 3.58 C-3.45 0.48 -3.39 0.53 0 0 Z " fill="#167059" transform="translate(346.8046875,266.55859375)"/>
<path d="M0 0 C0.93 2.7 0.93 2.7 1.31 5.69 C1.45 6.68 1.59 7.68 1.74 8.7 C1.82 9.46 1.91 10.22 2 11 C-4.88 12.13 -11.8 12.57 -18.75 13.06 C-19.96 13.15 -21.17 13.24 -22.42 13.34 C-28.01 13.74 -33.59 14.09 -39.19 14.22 C-39.61 14.23 -39.61 14.23 -41.78 14.29 C-44.44 13.94 -45.42 13.31 -47.25 11.38 C-49 8 -49 8 -49.06 4.81 C-47.83 1.55 -46.93 0.79 -44 -1 C-41.69 -1.52 -41.69 -1.52 -39.14 -1.73 C-38.2 -1.81 -37.25 -1.89 -36.28 -1.98 C-35.28 -2.05 -34.28 -2.12 -33.25 -2.19 C-32.23 -2.27 -31.2 -2.34 -30.15 -2.42 C-4.96 -4.23 -4.96 -4.23 0 0 Z " fill="#B15713" transform="translate(169,382)"/>
<path d="M0 0 C6.2 2.72 11.09 8.06 13.6 14.33 C14.5 21.65 14.22 28.37 9.6 34.33 C4.18 39.94 0.35 42.47 -7.59 42.71 C-15.04 42.63 -19 40.74 -24.18 35.55 C-29.51 29.63 -29.82 24.75 -29.73 16.85 C-29.15 10.73 -26.83 7.68 -22.52 3.52 C-15.81 -1.82 -8.15 -2.27 0 0 Z M-23.4 12.64 C-25.38 17.96 -24.88 22.72 -23.27 28.08 C-20.82 32.33 -18.14 35.15 -13.52 37.14 C-13.17 37.18 -13.17 37.18 -11.4 37.33 C-10.78 37.39 -10.78 37.39 -7.65 37.71 C-2.62 37.62 0.87 35.6 4.6 32.33 C7.44 29.04 8.83 25.61 9.04 21.27 C8.26 14.26 5.49 10.85 0.22 6.53 C-3.32 3.91 -6.41 3.88 -10.72 3.92 C-16.3 4.78 -19.83 8.52 -23.4 12.64 Z " fill="#0A7958" transform="translate(239.3984375,154.66796875)"/>
<path d="M0 0 C0.99 3.3 1.98 6.6 3 10 C9.27 10.33 15.54 10.66 22 11 C22 11.33 22 11.66 22 12 C19.86 12.17 19.86 12.17 9 13 C9.16 13.17 9.16 13.17 10 14 C10.19 16.44 10.19 16.44 10 19 C8 21 8 21 4.19 21.44 C0.61 21.37 0.07 21.06 -2.88 18.62 C-3.58 17.76 -4.28 16.89 -5 16 C-5.66 15.34 -6.32 14.68 -7 14 C-7.33 16.31 -7.66 18.62 -8 21 C-15.95 21.62 -15.95 21.62 -19.94 19.25 C-22 17 -22 17 -22.62 14.91 C-24 13 -24 13 -27.7 12.39 C-29.17 12.32 -30.65 12.28 -32.12 12.25 C-32.88 12.22 -33.63 12.19 -34.41 12.16 C-36.27 12.09 -38.14 12.04 -40 12 C-40 11.67 -40 11.34 -40 11 C-35.05 11 -30.1 11 -25 11 C-25.33 9.02 -25.66 7.04 -26 5 C-25.06 4.96 -24.12 4.93 -23.15 4.89 C-21.9 4.82 -20.66 4.76 -19.38 4.69 C-18.76 4.66 -18.76 4.66 -15.65 4.51 C-11.84 3.98 -9.33 2.87 -6 1 C-3.84 0.34 -2.25 0 0 0 Z " fill="#EA9A15" transform="translate(242,380)"/>
<path d="M0 0 C3.78 3.37 6.07 7.16 8.56 11.5 C9.33 12.82 10.1 14.15 10.88 15.47 C11.24 16.09 11.6 16.71 11.98 17.34 C13 19 13 19 14.73 21.23 C16.47 23.66 16.83 26 16.77 28.96 C15.11 33.35 10.02 35.1 6 37 C5.83 36.5 5.83 36.5 5 34 C3.68 34 2.36 34 1 34 C0.67 35.98 0.67 35.98 -1 46 C-1.33 46 -1.66 46 -2 46 C-2.27 30.55 -1.52 15.38 0 0 Z " fill="#435564" transform="translate(288,249)"/>
<path d="M0 0 C0.21 0.63 0.42 1.25 0.63 1.89 C2.58 4.9 4.43 4.91 7.88 5.69 C17.07 8.25 24.63 13.93 31 21 C31 21.66 31 22.32 31 23 C29.43 23.89 27.84 24.76 26.25 25.62 C25.37 26.11 24.49 26.6 23.58 27.1 C21 28 21 28 18.87 27.38 C16.83 25.88 15.4 24.35 13.81 22.38 C6.5 13.84 -0.32 8.76 -11 5 C-7.58 4.06 -4.55 3.92 -1 4 C-0.67 2.68 -0.34 1.36 0 0 Z " fill="#F0F7F7" transform="translate(167,103)"/>
<path d="M0 0 C3.13 0.5 3.13 0.5 5.33 3.1 C5.65 3.67 5.65 3.67 7.26 6.57 C7.43 6.86 7.43 6.86 8.28 8.37 C9.24 10.08 10.19 11.79 11.13 13.5 C11.98 14.84 12.84 16.17 13.7 17.5 C15.13 20.5 15.13 20.5 14.95 23.38 C14.13 25.5 14.13 25.5 13.13 26.5 C10.38 27 10.38 27 7.13 26.5 C5.04 24.15 3.67 22.2 2.13 19.5 C1.6 18.61 1.07 17.72 0.52 16.8 C-2.2 12.05 -4.46 8.07 -4.87 2.5 C-2.87 0.5 -2.87 0.5 0 0 Z " fill="#30C76F" transform="translate(346.8671875,266.49609375)"/>
<path d="M0 0 C5.08 3.09 5.08 3.09 6.88 5.75 C6.9 8.57 6.43 10.96 5.88 13.75 C5.22 13.75 4.56 13.75 3.88 13.75 C3.44 12.8 3.01 11.85 2.56 10.88 C0.88 7.75 0.88 7.75 -2.12 5.75 C-10 4.56 -14.6 7.96 -21 12.25 C-22.87 13.47 -24.74 14.69 -26.62 15.91 C-27.44 16.45 -28.25 17 -29.1 17.56 C-31.12 18.75 -31.12 18.75 -33.12 18.75 C-33.12 16.77 -33.12 14.79 -33.12 12.75 C-32.32 12.48 -31.52 12.21 -30.69 11.94 C-29.84 11.55 -29 11.15 -28.12 10.75 C-27.8 9.76 -27.46 8.77 -27.12 7.75 C-25.48 7.02 -23.81 6.36 -22.12 5.75 C-20.4 4.76 -18.69 3.74 -17 2.69 C-11.19 -0.92 -6.66 -2.66 0 0 Z " fill="#146C5A" transform="translate(337.125,260.25)"/>
<path d="M0 0 C4.1 0.39 6.11 1.78 9.31 4.31 C10.86 7.41 10.6 9.89 10.31 13.31 C8.52 16.07 7.26 17.84 4.31 19.31 C-2.66 20 -2.66 20 -6.69 17.31 C-9.37 13.28 -9.09 11.07 -8.69 6.31 C-8.48 6.56 -8.48 6.56 -7.44 7.81 C-5.69 9.31 -5.69 9.31 -1.69 9.31 C-1.49 5.6 -1.54 4.54 -3.69 1.31 C-2.69 0.31 -2.69 0.31 0 0 Z " fill="#151B29" transform="translate(228.6875,164.6875)"/>
<path d="M0 0 C7.78 1.09 7.78 1.09 11 3 C11.43 4.18 11.87 5.35 12.31 6.56 C14 10 14 10 15.96 10.68 C18.19 10.94 18.19 10.94 22 11 C21.67 11.99 21.34 12.98 21 14 C20.67 13.67 20.34 13.34 20 13 C20.04 13.76 20.08 14.53 20.12 15.31 C20 18 20 18 18 21 C14.23 21.6 12.3 21.15 8.88 19.44 C2.53 14.06 1.21 7.91 0 0 Z " fill="#EA9D1C" transform="translate(168,381)"/>
<path d="M0 0 C3.3 0 6.6 0 10 0 C10.66 1.65 11.32 3.3 12 5 C14.64 5.33 17.28 5.66 20 6 C19.67 6.66 19.34 7.32 19 8 C19 8.33 19 8.66 19 9 C18.67 11.33 18.34 13.67 18 16 C10.05 16.62 10.05 16.62 6.06 14.25 C4 12 4 12 3.38 9.91 C2 8 2 8 -1.7 7.39 C-3.17 7.32 -4.65 7.28 -6.12 7.25 C-6.88 7.22 -7.63 7.19 -8.41 7.16 C-10.27 7.09 -12.14 7.04 -14 7 C-14 6.67 -14 6.34 -14 6 C-9.05 6 -4.1 6 1 6 C0.67 4.02 0.34 2.04 0 0 Z " fill="#E5991E" transform="translate(216,385)"/>
<path d="M0 0 C11.48 -1 21.07 5.85 29.56 12.88 C30.37 13.58 31.17 14.28 32 15 C31.34 15.66 30.68 16.32 30 17 C29.34 16.67 28.68 16.34 28 16 C28.66 16.99 29.32 17.98 30 19 C29.67 19.99 29.34 20.98 29 22 C28.45 21.48 27.91 20.96 27.35 20.43 C19.84 13.49 12.87 9.21 2.97 6.58 C1 6 1 6 0 5 C-0.04 3.33 -0.04 1.67 0 0 Z " fill="#1A785B" transform="translate(168,102)"/>
<path d="M0 0 C0 1.32 0 2.64 0 4 C-1.57 5.35 -1.57 5.35 -3.77 6.55 C-4.57 7 -5.37 7.45 -6.2 7.91 C-7.06 8.37 -7.92 8.84 -8.81 9.31 C-10.56 10.28 -12.31 11.25 -14.05 12.23 C-14.9 12.7 -15.75 13.17 -16.63 13.65 C-20.53 15.87 -24.25 18.34 -27.97 20.86 C-30 22 -30 22 -33 22 C-32.92 19.77 -32.92 19.77 -32 17 C-29.77 15.32 -27.74 14.01 -25.31 12.69 C-24.65 12.31 -23.98 11.93 -23.29 11.54 C-21.9 10.75 -20.51 9.96 -19.11 9.18 C-17.05 8.03 -15.02 6.84 -13 5.64 C-3.41 0 -3.41 0 0 0 Z " fill="#596479" transform="translate(348,299)"/>
<path d="M0 0 C0.52 0.25 1.03 0.5 1.56 0.75 C0.32 4.48 -0.72 4.79 -4.07 6.71 C-5.02 7.27 -5.97 7.82 -6.96 8.39 C-7.96 8.96 -8.96 9.54 -10 10.12 C-11.96 11.26 -13.92 12.39 -15.88 13.52 C-16.82 14.06 -17.77 14.61 -18.74 15.16 C-21.84 16.99 -24.83 18.95 -27.8 20.99 C-29.44 21.75 -29.44 21.75 -32.44 20.75 C-32.44 19.76 -32.44 18.77 -32.44 17.75 C-30.44 16.19 -30.44 16.19 -27.65 14.54 C-26.65 13.93 -25.64 13.33 -24.6 12.71 C-23.54 12.08 -22.47 11.46 -21.38 10.81 C-20.34 10.19 -19.3 9.57 -18.23 8.93 C-15.31 7.19 -12.37 5.47 -9.44 3.75 C-8.7 3.31 -7.97 2.86 -7.22 2.41 C-2.71 -0.28 -2.71 -0.28 0 0 Z " fill="#59667A" transform="translate(353.4375,310.25)"/>
<path d="M0 0 C-0.34 2.76 -0.72 3.77 -2.91 5.57 C-3.74 6.06 -4.56 6.55 -5.41 7.06 C-6.32 7.61 -7.23 8.16 -8.16 8.73 C-9.12 9.29 -10.08 9.86 -11.06 10.44 C-12.93 11.56 -14.79 12.68 -16.66 13.81 C-17.56 14.34 -18.47 14.88 -19.4 15.43 C-22.45 17.27 -25.4 19.23 -28.34 21.23 C-30 22 -30 22 -33 21 C-33 20.01 -33 19.02 -33 18 C-30.68 16.27 -30.68 16.27 -27.44 14.38 C-26.86 14.04 -26.29 13.7 -25.7 13.35 C-24.46 12.61 -23.22 11.88 -21.98 11.16 C-19.93 9.96 -17.9 8.74 -15.87 7.51 C-3.44 0 -3.44 0 0 0 Z " fill="#59667B" transform="translate(361,321)"/>
<path d="M0 0 C4.5 4.5 4.5 4.5 6.14 7.42 C6.31 7.73 6.31 7.73 7.2 9.28 C7.37 9.59 7.37 9.59 8.25 11.19 C8.61 11.83 8.98 12.47 9.35 13.13 C12 17.85 12 17.85 12 19 C11.13 19.27 10.27 19.54 9.38 19.81 C6 21 6 21 0 24 C0 16.08 0 8.16 0 0 Z " fill="#EAF1F3" transform="translate(288,249)"/>
<path d="M0 0 C0.33 0.99 0.66 1.98 1 3 C0.67 3.66 0.34 4.32 0 5 C0.64 5.31 1.28 5.62 1.94 5.94 C4 7 4 7 5 8 C5.04 9.67 5.04 11.33 5 13 C2.62 13.62 2.62 13.62 0 14 C-0.66 13.34 -1.32 12.68 -2 12 C-4.12 15.53 -4.53 18.94 -5 23 C-5.66 22.67 -6.32 22.34 -7 22 C-8.41 17.77 -8.78 13.39 -8 9 C-6.03 5.38 -3.75 1.87 0 0 Z " fill="#E6E9EE" transform="translate(223,161)"/>
<path d="M0 0 C5.33 0.03 9.79 2.12 14.56 4.31 C14.23 4.97 13.9 5.63 13.56 6.31 C11.58 5.65 9.6 4.99 7.56 4.31 C8.56 7.31 8.56 7.31 10.41 8.48 C11.14 8.82 11.87 9.15 12.62 9.5 C13.36 9.84 14.09 10.19 14.85 10.54 C15.41 10.8 15.98 11.05 16.56 11.31 C16.56 11.97 16.56 12.63 16.56 13.31 C17.22 13.31 17.88 13.31 18.56 13.31 C18.56 14.3 18.56 15.29 18.56 16.31 C15.83 15.01 13.42 13.54 10.94 11.81 C6.97 9.27 3.3 8.42 -1.34 7.77 C-3.44 7.31 -3.44 7.31 -5.44 5.31 C-4.79 1.06 -4.43 0.4 0 0 Z " fill="#177659" transform="translate(151.4375,106.6875)"/>
<path d="M0 0 C1.32 0 2.64 0 4 0 C6.74 4.67 7.34 7.99 7.19 13.38 C7.16 14.62 7.13 15.87 7.11 17.15 C7.07 18.09 7.04 19.03 7 20 C6.01 19.67 5.02 19.34 4 19 C4 17.68 4 16.36 4 15 C3.34 15 2.68 15 2 15 C2 16.32 2 17.64 2 19 C1.34 19 0.68 19 0 19 C-0.04 18.26 -0.07 17.53 -0.11 16.77 C-0.75 7.39 -0.75 7.39 -4 3 C-4 2.34 -4 1.68 -4 1 C-3.34 1 -2.68 1 -2 1 C-2 1.99 -2 2.98 -2 4 C-1.34 4 -0.68 4 0 4 C0 2.68 0 1.36 0 0 Z " fill="#0A775A" transform="translate(296,171)"/>
<path d="M0 0 C1.81 1.12 1.81 1.12 3 3 C3.39 6.14 3.48 8.13 1.94 10.94 C-1.18 12.65 -3.66 11.81 -7 11 C-8.4 8.2 -8.25 6.1 -8 3 C-5.91 -0.31 -3.76 -0.56 0 0 Z " fill="#2AC966" transform="translate(312,287)"/>
<path d="M0 0 C0 0.66 0 1.32 0 2 C-11.69 3.89 -23.18 4.38 -35 4.56 C-37.61 4.61 -40.22 4.65 -42.83 4.71 C-44.43 4.74 -46.04 4.76 -47.65 4.79 C-52.18 4.87 -56.52 5.27 -61 6 C-58.4 2.68 -56.08 2.5 -52 2 C-49.74 1.94 -47.49 1.94 -45.23 1.97 C-44.58 1.98 -44.58 1.98 -41.31 2.01 C-40.64 2.02 -39.96 2.03 -39.27 2.04 C-28.41 2.16 -17.78 2.03 -7.02 0.44 C-4 0 -4 0 0 0 Z " fill="#11ABBE" transform="translate(230,240)"/>
<path d="M0 0 C6.93 0 13.86 0 21 0 C21 1.65 21 3.3 21 5 C15.06 5.33 9.12 5.66 3 6 C0 1 0 1 0 0 Z " fill="#9C5412" transform="translate(196,386)"/>
<path d="M0 0 C0 0.99 0 1.98 0 3 C0.99 3.33 1.98 3.66 3 4 C-9 12.08 -9 12.08 -16.86 11.51 C-19.96 10.77 -21.85 9.29 -24 7 C-22.68 7 -21.36 7 -20 7 C-20 7.66 -20 8.32 -20 9 C-16.7 9 -13.4 9 -10 9 C-10 8.34 -10 7.68 -10 7 C-11.98 7 -13.96 7 -16 7 C-16 6.67 -16 6.34 -16 6 C-14.99 5.75 -13.98 5.5 -12.94 5.25 C-10.09 4.45 -7.73 3.38 -5.19 1.88 C-2 0 -2 0 0 0 Z " fill="#1D7561" transform="translate(352,360)"/>
<path d="M0 0 C5.28 0 10.56 0 16 0 C16 0.33 16 0.66 16 1 C13.86 1.17 13.86 1.17 3 2 C3.33 2.33 3.66 2.66 4 3 C4.19 5.44 4.19 5.44 4 8 C2 10 2 10 0.05 10.2 C-1.96 10.13 -3.98 10.07 -6 10 C-6 9.01 -6 8.02 -6 7 C-5.34 7 -4.68 7 -4 7 C-4 5.02 -4 3.04 -4 1 C-2.68 1.33 -1.36 1.66 0 2 C0 1.34 0 0.68 0 0 Z " fill="#E79E2A" transform="translate(248,391)"/>
<path d="M0 0 C0 0.66 0 1.32 0 2 C0.66 2 1.32 2 2 2 C2 2.99 2 3.98 2 5 C2.66 5 3.32 5 4 5 C3.39 8.56 2.42 11.68 1 15 C-0.49 15.17 -0.49 15.17 -8 16 C-8 15.34 -8 14.68 -8 14 C-8.66 14 -9.32 14 -10 14 C-9.67 13.34 -9.34 12.68 -9 12 C-7.89 12.21 -6.77 12.41 -5.62 12.62 C-4.43 12.75 -3.23 12.87 -2 13 C0 11 0 11 0.25 8 C0 5 0 5 -2 3 C-4.82 2.64 -6.37 2.57 -8.75 4.19 C-10.29 6.42 -10.64 8.34 -11 11 C-11.33 11 -11.66 11 -12 11 C-12.12 4.25 -12.12 4.25 -11 2 C-7.24 0.07 -4.19 -0.19 0 0 Z " fill="#092621" transform="translate(314,285)"/>
<path d="M0 0 C1.88 2.75 1.77 3.44 1.38 6.62 C1.13 7.86 0.88 9.1 0.62 10.38 C-0.04 10.38 -0.69 10.38 -1.38 10.38 C-1.81 9.43 -2.24 8.48 -2.69 7.5 C-4.38 4.38 -4.38 4.38 -7.38 2.38 C-9.7 1.98 -12.03 1.64 -14.38 1.38 C-14.38 0.04 -14.38 -1.29 -14.38 -2.62 C-8.2 -3.84 -5.15 -3.52 0 0 Z " fill="#0D7056" transform="translate(342.375,263.625)"/>
<path d="M0 0 C3.72 0.51 6.73 1.12 10 3 C10 4.65 10 6.3 10 8 C7.26 9.37 5.03 9.13 2 9 C1.34 8.67 0.68 8.34 0 8 C0 5.36 0 2.72 0 0 Z " fill="#D57006" transform="translate(266,204)"/>
<path d="M0 0 C5.3 0.52 8.7 1.96 13 5 C13.94 7.75 13.94 7.75 14 10 C15.32 10.33 16.64 10.66 18 11 C15.36 11 12.72 11 10 11 C10 9.68 10 8.36 10 7 C6.7 6.01 3.4 5.02 0 4 C0 2.68 0 1.36 0 0 Z " fill="#256F3D" transform="translate(266,200)"/>
<path d="M0 0 C0.33 0.99 0.66 1.98 1 3 C0.38 3.25 -0.24 3.5 -0.88 3.75 C-3 5 -3 5 -3.88 6.81 C-5.58 10.13 -8.02 11.76 -11 14 C-11.66 14 -12.32 14 -13 14 C-13 14.99 -13 15.98 -13 17 C-13.66 17 -14.32 17 -15 17 C-15 17.66 -15 18.32 -15 19 C-16.32 19.33 -17.64 19.66 -19 20 C-16.1 15.33 -12.86 11.58 -8.94 7.75 C-8.41 7.22 -7.88 6.69 -7.33 6.15 C-4.99 3.83 -2.76 1.84 0 0 Z " fill="#1D7159" transform="translate(175,138)"/>
<path d="M0 0 C-0.42 0.48 -0.84 0.96 -1.28 1.46 C-1.83 2.09 -2.37 2.72 -2.94 3.38 C-3.48 4 -4.03 4.63 -4.59 5.27 C-7.78 9.18 -7.35 13.15 -7 18 C-6 21.56 -6 21.56 -5 24 C-6.32 24.33 -7.64 24.66 -9 25 C-9.09 21.4 -9.14 17.79 -9.19 14.19 C-9.21 13.16 -9.24 12.14 -9.26 11.08 C-9.27 10.59 -9.27 10.59 -9.29 8.11 C-9.31 7.2 -9.32 6.29 -9.34 5.36 C-9 3 -9 3 -7.68 1.19 C-5.17 -0.59 -2.98 -0.2 0 0 Z " fill="#1A745B" transform="translate(223,161)"/>
<path d="M0 0 C0.33 0.66 0.66 1.32 1 2 C-0.98 2.33 -2.96 2.66 -5 3 C-4.67 3.66 -4.34 4.32 -4 5 C-5.56 5.51 -7.12 6.01 -8.69 6.5 C-9.12 6.64 -9.12 6.64 -11.32 7.34 C-13.99 8 -16.26 8.12 -19 8 C-13.4 3.1 -7.68 -0.77 0 0 Z " fill="#247965" transform="translate(334,259)"/>
<path d="M0 0 C0.33 0 0.66 0 1 0 C1.33 4.29 1.66 8.58 2 13 C1.34 13 0.68 13 0 13 C0.54 13.78 1.07 14.57 1.62 15.38 C3.54 20.42 2.32 23.92 1 29 C0.66 30.66 0.32 32.33 0 34 C-0.33 34 -0.66 34 -1 34 C-1.21 10.21 -1.21 10.21 0 0 Z " fill="#2F7C68" transform="translate(287,261)"/>
<path d="M0 0 C3.63 0.33 7.26 0.66 11 1 C10.01 1.33 9.02 1.66 8 2 C8.33 3.98 8.66 5.96 9 8 C6.19 8.31 6.19 8.31 3 8 C0.69 5.15 0 3.69 0 0 Z " fill="#B15C0B" transform="translate(179,384)"/>
<path d="M0 0 C0.75 1.62 0.75 1.62 1 4 C-0.75 6.94 -0.75 6.94 -3 10 C-5.06 13.25 -6.66 16.39 -8 20 C-8.99 20 -9.98 20 -11 20 C-9.41 15.64 -7.26 11.75 -4.94 7.75 C-4.57 7.11 -4.21 6.48 -3.83 5.82 C-1.14 1.14 -1.14 1.14 0 0 Z " fill="#267560" transform="translate(151,164)"/>
<path d="M0 0 C0.99 0 1.98 0 3 0 C2.67 6.27 2.34 12.54 2 19 C1.34 19 0.68 19 0 19 C-0.04 18.26 -0.07 17.53 -0.11 16.77 C-0.75 7.39 -0.75 7.39 -4 3 C-4 2.34 -4 1.68 -4 1 C-3.34 1 -2.68 1 -2 1 C-2 1.99 -2 2.98 -2 4 C-1.34 4 -0.68 4 0 4 C0 2.68 0 1.36 0 0 Z " fill="#197248" transform="translate(296,171)"/>
<path d="M0 0 C1 1 1 1 1.06 4.56 C1.04 5.7 1.02 6.83 1 8 C0.67 8 0.34 8 0 8 C0 6.35 0 4.7 0 3 C-0.66 3 -1.32 3 -2 3 C-2 2.34 -2 1.68 -2 1 C-3.11 1.44 -4.22 1.89 -5.36 2.35 C-6.82 2.92 -8.29 3.49 -9.75 4.06 C-10.48 4.36 -11.21 4.65 -11.96 4.96 C-12.67 5.23 -13.38 5.5 -14.11 5.79 C-14.76 6.04 -15.41 6.3 -16.08 6.56 C-18.37 7.08 -19.79 6.72 -22 6 C-19.73 5.02 -17.46 4.04 -15.19 3.06 C-14.54 2.78 -13.9 2.51 -13.24 2.22 C-5.01 -1.32 -5.01 -1.32 0 0 Z " fill="#11A4B2" transform="translate(284,224)"/>
<path d="M0 0 C0.66 0 1.32 0 2 0 C4 2 4 2 4.23 4.06 C4.22 4.89 4.21 5.72 4.2 6.57 C4.19 7.47 4.18 8.36 4.18 9.29 C4.16 10.22 4.14 11.16 4.12 12.12 C4.12 13.07 4.11 14.01 4.1 14.99 C4.07 17.33 4.04 19.66 4 22 C2.35 22.66 0.7 23.32 -1 24 C-0.5 23.38 -0.01 22.76 0.5 22.12 C2.57 17.81 2.62 13.72 2 9 C1.34 8.01 0.68 7.02 0 6 C-0.12 2.81 -0.12 2.81 0 0 Z " fill="#0E6251" transform="translate(374,323)"/>
<path d="M0 0 C0.33 1.32 0.66 2.64 1 4 C0.34 4 -0.32 4 -1 4 C-1 9.28 -1 14.56 -1 20 C-3 19 -3 19 -3.61 17.21 C-4.54 11.97 -5.08 7.01 -2 2.44 C-1.34 1.63 -0.68 0.83 0 0 Z " fill="#DAF4F0" transform="translate(219,164)"/>
<path d="M0 0 C1.76 3.09 2 4.23 2 8 C0.02 8 -1.96 8 -4 8 C-4.66 6.02 -5.32 4.04 -6 2 C-4.02 1.34 -2.04 0.68 0 0 Z " fill="#B55609" transform="translate(232,383)"/>
<path d="M0 0 C0.33 0.99 0.66 1.98 1 3 C0.34 3.33 0.34 3.33 -3 5 C-3 5.66 -3 6.32 -3 7 C-1.35 7.33 0.3 7.66 2 8 C2 8.33 2 8.66 2 9 C-2.62 9 -7.24 9 -12 9 C-9.47 6.47 -7.27 4.74 -4.31 2.81 C-3.5 2.28 -2.7 1.75 -1.86 1.21 C-1.25 0.81 -0.63 0.41 0 0 Z " fill="#E2E5DC" transform="translate(261,368)"/>
<path d="M0 0 C3.23 4.31 3.36 4.68 2.86 9.64 C2.76 10.71 2.66 11.78 2.55 12.88 C2.43 13.99 2.31 15.11 2.19 16.25 C2.08 17.38 1.97 18.5 1.86 19.66 C1.59 22.44 1.3 25.22 1 28 C0.67 28 0.34 28 0 28 C0 18.76 0 9.52 0 0 Z " fill="#136A53" transform="translate(286,245)"/>
<path d="M0 0 C3.63 0 7.26 0 11 0 C10.34 1.32 9.68 2.64 9 4 C5.5 4.88 5.5 4.88 2 5 C1.34 4.34 0.68 3.68 0 3 C0 2.01 0 1.02 0 0 Z " fill="#B05009" transform="translate(197,387)"/>
<path d="M0 0 C0.62 1.81 0.62 1.81 1 4 C0.67 4.5 0.67 4.5 -1 7 C-1.66 7 -2.32 7 -3 7 C-3.1 7.56 -3.21 8.11 -3.31 8.69 C-4.16 11.52 -5.26 13.61 -7 16 C-9.11 16.64 -9.11 16.64 -11 17 C-3.7 5.48 -3.7 5.48 0 0 Z " fill="#027A74" transform="translate(249,283)"/>
<path d="M0 0 C0.25 0.62 0.5 1.24 0.75 1.88 C2.21 4.35 3.38 4.95 6 6 C5.01 6 4.02 6 3 6 C3 6.66 3 7.32 3 8 C-0.69 9.37 -2.71 8.6 -6.25 7.06 C-7.14 6.68 -8.03 6.3 -8.95 5.91 C-9.63 5.61 -10.3 5.31 -11 5 C-7.58 4.06 -4.55 3.92 -1 4 C-0.67 2.68 -0.34 1.36 0 0 Z " fill="#D0EBE3" transform="translate(167,103)"/>
<path d="M0 0 C0.93 0 1.85 0.01 2.81 0.01 C5.08 0.03 7.35 0.04 9.62 0.06 C9.62 0.39 9.62 0.72 9.62 1.06 C8.41 1.11 7.19 1.16 5.93 1.21 C4.31 1.29 2.69 1.36 1.06 1.44 C0.66 1.45 0.66 1.45 -1.36 1.53 C-6.36 1.78 -10.6 2.6 -15.38 4.06 C-17.81 3.69 -17.81 3.69 -19.38 3.06 C-13.54 -0.83 -6.77 -0.06 0 0 Z " fill="#0F9FA8" transform="translate(188.375,241.9375)"/>
<path d="M0 0 C1.81 1.12 1.81 1.12 3 3 C3.19 6.19 3.19 6.19 3 9 C2.67 9 2.34 9 2 9 C1.34 7.02 0.68 5.04 0 3 C-1.98 3 -3.96 3 -6 3 C-6 5.31 -6 7.62 -6 10 C-6.66 9.67 -7.32 9.34 -8 9 C-8.36 3.57 -8.36 3.57 -6.81 1.12 C-4.34 -0.41 -2.85 -0.43 0 0 Z " fill="#3BB773" transform="translate(312,287)"/>
<path d="M0 0 C8.03 -0.27 8.03 -0.27 12 2 C13.32 2 14.64 2 16 2 C15.67 4.64 15.34 7.28 15 10 C14.34 10 13.68 10 13 10 C12.57 9.05 12.13 8.1 11.69 7.12 C10 4 10 4 7 2 C4.68 1.61 2.34 1.27 0 1 C0 0.67 0 0.34 0 0 Z " fill="#11674F" transform="translate(328,264)"/>
<path d="M0 0 C0.66 0 1.32 0 2 0 C2 0.66 2 1.32 2 2 C3.98 2.33 3.98 2.33 14 4 C14 4.66 14 5.32 14 6 C10.7 6 7.4 6 4 6 C4 5.34 4 4.68 4 4 C2.68 4 1.36 4 0 4 C0 2.68 0 1.36 0 0 Z " fill="#037559" transform="translate(328,363)"/>
<path d="M0 0 C1.32 1.32 2.64 2.64 4 4 C6.44 3.05 8.81 2.1 11.12 0.88 C13 0 13 0 16 0 C16 0.66 16 1.32 16 2 C7.44 6.76 7.44 6.76 3 6 C2.01 5.34 1.02 4.68 0 4 C0 2.68 0 1.36 0 0 Z " fill="#297963" transform="translate(182,126)"/>
<path d="M0 0 C5.42 -0.37 5.42 -0.37 8.38 1.5 C8.91 2 9.45 2.49 10 3 C8 4 8 4 4 4 C3.34 5.32 2.68 6.64 2 8 C0.74 5.09 0 3.2 0 0 Z " fill="#31323B" transform="translate(226,165)"/>
<path d="M0 0 C1.08 0.01 2.16 0.02 3.27 0.03 C4.09 0.04 4.91 0.05 5.75 0.06 C5.75 0.39 5.75 0.72 5.75 1.06 C4.68 1.19 3.61 1.31 2.5 1.44 C-1.25 2.06 -1.25 2.06 -3.38 3.12 C-5.76 4.32 -7.62 4.21 -10.25 4.06 C-10.25 3.07 -10.25 2.08 -10.25 1.06 C-6.79 -0 -3.61 -0.04 0 0 Z " fill="#FBF3EC" transform="translate(326.25,393.9375)"/>
<path d="M0 0 C0.33 0 0.66 0 1 0 C1 2.64 1 5.28 1 8 C-2.51 9.6 -5.14 10.22 -9 10 C-9 9.34 -9 8.68 -9 8 C-9.66 8 -10.32 8 -11 8 C-10.67 7.34 -10.34 6.68 -10 6 C-8.89 6.21 -7.77 6.41 -6.62 6.62 C-5.43 6.75 -4.23 6.87 -3 7 C-0.64 4.64 -0.51 3.22 0 0 Z " fill="#063225" transform="translate(315,291)"/>
<path d="M0 0 C1.1 3.31 0.93 5.25 0.56 8.69 C0.46 9.68 0.36 10.68 0.25 11.7 C0.21 12.08 0.21 12.08 0 14 C-1.32 13.67 -2.64 13.34 -4 13 C-3.34 12.67 -2.68 12.34 -2 12 C-2 8.7 -2 5.4 -2 2 C-1.34 2 -0.68 2 0 2 C0 1.34 0 0.68 0 0 Z " fill="#077159" transform="translate(380,333)"/>
<path d="M0 0 C0.66 0 1.32 0 2 0 C2.18 5.22 1.97 9.07 0 14 C-0.33 14 -0.66 14 -1 14 C-1.03 12.23 -1.05 10.46 -1.06 8.69 C-1.07 7.7 -1.09 6.72 -1.1 5.7 C-1 3 -1 3 0 0 Z " fill="#2A7463" transform="translate(291,224)"/>
<path d="M0 0 C1.32 0.33 2.64 0.66 4 1 C4 2.65 4 4.3 4 6 C1.29 7.35 -1.01 7.07 -4 7 C-3.34 6.67 -2.68 6.34 -2 6 C-2 5.34 -2 4.68 -2 4 C-1.34 3.34 -0.68 2.68 0 2 C0 1.34 0 0.68 0 0 Z " fill="#AF771C" transform="translate(272,206)"/>
<path d="M0 0 C0.66 0 1.32 0 2 0 C3.5 3 3.09 5.79 3.06 9.12 C3.05 10.41 3.04 11.69 3.04 13.01 C3.02 14 3.01 14.98 3 16 C2.01 15.67 1.02 15.34 0 15 C0 13.35 0 11.7 0 10 C0.66 10 1.32 10 2 10 C1.46 6.62 0.89 3.3 0 0 Z " fill="#2E7660" transform="translate(300,175)"/>
<path d="M0 0 C0.66 0 1.32 0 2 0 C1.98 0.72 1.95 1.45 1.93 2.2 C1.83 7.55 1.84 11.99 4 17 C2.68 17.33 1.36 17.66 0 18 C0 12.06 0 6.12 0 0 Z " fill="#2B7662" transform="translate(214,168)"/>
<path d="M0 0 C-3.63 1.98 -7.26 3.96 -11 6 C-11 5.34 -11 4.68 -11 4 C-10.34 4 -9.68 4 -9 4 C-9 3.34 -9 2.68 -9 2 C-9.99 2.33 -10.98 2.66 -12 3 C-12 2.34 -12 1.68 -12 1 C-10.56 0.64 -9.13 0.28 -7.69 -0.06 C-6.89 -0.26 -6.09 -0.46 -5.26 -0.66 C-3 -1 -3 -1 0 0 Z " fill="#116756" transform="translate(327,266)"/>
<path d="M0 0 C0.1 0.64 0.21 1.28 0.31 1.94 C0.54 2.62 0.77 3.3 1 4 C1.99 4.33 2.98 4.66 4 5 C3.67 5.66 3.34 6.32 3 7 C2.34 7 1.68 7 1 7 C0.67 7.66 0.34 8.32 0 9 C-3 4.25 -3 4.25 -3 2 C-2.01 1.34 -1.02 0.68 0 0 Z " fill="#197961" transform="translate(321,349)"/>
<path d="M0 0 C2.97 0.33 5.94 0.66 9 1 C8.67 1.99 8.34 2.98 8 4 C6.02 4.33 4.04 4.66 2 5 C2 4.01 2 3.02 2 2 C1.34 2 0.68 2 0 2 C0 1.34 0 0.68 0 0 Z " fill="#18724A" transform="translate(266,212)"/>
<path d="M0 0 C0.99 0 1.98 0 3 0 C3.66 1.65 4.32 3.3 5 5 C2.36 5 -0.28 5 -3 5 C-3 4.34 -3 3.68 -3 3 C-2.34 3 -1.68 3 -1 3 C-0.67 2.01 -0.34 1.02 0 0 Z " fill="#127254" transform="translate(231,154)"/>
<path d="M0 0 C0.66 0.33 1.32 0.66 2 1 C1.67 1.66 1.34 2.32 1 3 C0.34 3 -0.32 3 -1 3 C-1 3.99 -1 4.98 -1 6 C-2.98 6.33 -4.96 6.66 -7 7 C-4.78 4.09 -3.07 2.05 0 0 Z " fill="#11A8BA" transform="translate(167,246)"/>
<path d="M0 0 C0.99 0 1.98 0 3 0 C3 1.98 3 3.96 3 6 C1.68 5.67 0.36 5.34 -1 5 C-0.67 3.35 -0.34 1.7 0 0 Z " fill="#F49A0E" transform="translate(183,394)"/>
<path d="M0 0 C0.99 0.16 0.99 0.16 6 1 C4.68 1.33 3.36 1.66 2 2 C2 3.98 2 5.96 2 8 C1.34 8 0.68 8 0 8 C0 5.36 0 2.72 0 0 Z " fill="#AE781D" transform="translate(266,204)"/>
<path d="M0 0 C0.33 0.99 0.66 1.98 1 3 C0.34 3 -0.32 3 -1 3 C-1 3.99 -1 4.98 -1 6 C-1.66 6 -2.32 6 -3 6 C-3 6.66 -3 7.32 -3 8 C-4.32 8.33 -5.64 8.66 -7 9 C-2.86 2.57 -2.86 2.57 0 0 Z " fill="#277260" transform="translate(163,149)"/>
<path d="M0 0 C4.39 1.46 4.88 3.98 7 8 C5.68 7.67 4.36 7.34 3 7 C3 6.01 3 5.02 3 4 C1.68 3.34 0.36 2.68 -1 2 C-0.67 1.34 -0.34 0.68 0 0 Z " fill="#217259" transform="translate(269,140)"/>
<path d="M0 0 C0.99 0.33 1.98 0.66 3 1 C2.67 2.65 2.34 4.3 2 6 C1.67 5.01 1.34 4.02 1 3 C0.34 3 -0.32 3 -1 3 C-1 3.66 -1 4.32 -1 5 C-1.66 5 -2.32 5 -3 5 C-2.62 3.06 -2.62 3.06 -2 1 C-1.34 0.67 -0.68 0.34 0 0 Z " fill="#26665D" transform="translate(291,282)"/>
<path d="M0 0 C0.87 2.45 1.1 3.68 0.31 6.19 C-1.32 8.44 -2.36 8.47 -5 9 C-4.36 7.69 -3.71 6.37 -3.06 5.06 C-2.7 4.33 -2.34 3.6 -1.97 2.85 C-1 1 -1 1 0 0 Z " fill="#037A74" transform="translate(265,257)"/>
<path d="M0 0 C2 2 2 2 2 6 C1.34 6 0.68 6 0 6 C0 8.31 0 10.62 0 13 C-0.33 13 -0.66 13 -1 13 C-1.03 11.21 -1.05 9.42 -1.06 7.62 C-1.07 6.63 -1.09 5.63 -1.1 4.6 C-1 2 -1 2 0 0 Z " fill="#13A277" transform="translate(254,167)"/>
<path d="M0 0 C0 3.78 -1 4.46 -3.5 7.19 C-3.82 7.55 -3.82 7.55 -5.47 9.36 C-5.97 9.9 -6.48 10.44 -7 11 C-7 7.34 -6.08 5.97 -4 3 C-1.81 1.19 -1.81 1.19 0 0 Z " fill="#03835D" transform="translate(219,157)"/>
<path d="M0 0 C0 0.66 0 1.32 0 2 C0.66 2.33 1.32 2.66 2 3 C0.02 3.99 -1.96 4.98 -4 6 C-4 4.35 -4 2.7 -4 1 C-2 0 -2 0 0 0 Z " fill="#1B7861" transform="translate(360,357)"/>
<path d="M0 0 C1.06 1.81 1.06 1.81 2 4 C1.67 4.99 1.34 5.98 1 7 C0.34 7 -0.32 7 -1 7 C-1.66 5.02 -2.32 3.04 -3 1 C-2.01 0.67 -1.02 0.34 0 0 Z " fill="#0C6C54" transform="translate(371,315)"/>
<path d="M0 0 C0.99 0.99 1.98 1.98 3 3 C2.76 6.34 2.39 7.61 0 10 C0 6.7 0 3.4 0 0 Z " fill="#BAE1D9" transform="translate(287,277)"/>
<path d="M0 0 C3.3 0.33 6.6 0.66 10 1 C6 3 6 3 3 4 C2.01 3.34 1.02 2.68 0 2 C0 1.34 0 0.68 0 0 Z " fill="#1D735D" transform="translate(224,191)"/>
<path d="M0 0 C0.99 0.33 1.98 0.66 3 1 C3.33 1.99 3.66 2.98 4 4 C3.67 4.66 3.34 5.32 3 6 C2.01 6 1.02 6 0 6 C0 4.02 0 2.04 0 0 Z " fill="#097058" transform="translate(292,300)"/>
<path d="M0 0 C0.99 0 1.98 0 3 0 C1.25 5.75 1.25 5.75 -1 8 C-1.04 5.67 -1.04 3.33 -1 1 C-0.67 0.67 -0.34 0.34 0 0 Z " fill="#01786C" transform="translate(153,257)"/>
<path d="M0 0 C0.33 1.32 0.66 2.64 1 4 C-0.94 6.25 -0.94 6.25 -3 8 C-3.66 7.67 -4.32 7.34 -5 7 C-3.35 4.69 -1.7 2.38 0 0 Z " fill="#31723A" transform="translate(291,200)"/>
<path d="M0 0 C0.33 1.32 0.66 2.64 1 4 C-0.32 4.99 -1.64 5.98 -3 7 C-3.66 6.34 -4.32 5.68 -5 5 C-3.35 3.35 -1.7 1.7 0 0 Z " fill="#027970" transform="translate(231,307)"/>
<path d="M0 0 C0.33 1.32 0.66 2.64 1 4 C0.34 4 -0.32 4 -1 4 C-1 4.66 -1 5.32 -1 6 C-2.32 6.33 -3.64 6.66 -5 7 C-1.12 1.12 -1.12 1.12 0 0 Z " fill="#027D79" transform="translate(237,300)"/>
<path d="M0 0 C0.33 0 0.66 0 1 0 C1 1.65 1 3.3 1 5 C0.34 5.33 0.34 5.33 -3 7 C-2.39 4.04 -1.75 2.62 0 0 Z " fill="#047873" transform="translate(259,267)"/>
<path d="M0 0 C0.66 0.33 1.32 0.66 2 1 C0.35 3.64 -1.3 6.28 -3 9 C-3.33 7.68 -3.66 6.36 -4 5 C-3.34 5 -2.68 5 -2 5 C-1.93 4.68 -1.93 4.68 -1.56 3.06 C-1 1 -1 1 0 0 Z " fill="#17A67B" transform="translate(152,247)"/>
<path d="M0 0 C0.82 0.33 0.82 0.33 5 2 C5 2.99 5 3.98 5 5 C3.35 4.67 1.7 4.34 0 4 C0 2.68 0 1.36 0 0 Z " fill="#187358" transform="translate(262,134)"/>
<path d="M0 0 C1.65 0 3.3 0 5 0 C5 0.66 5 1.32 5 2 C5.66 2 6.32 2 7 2 C7 2.99 7 3.98 7 5 C4.12 3.71 2.13 2.34 0 0 Z " fill="#337E68" transform="translate(163,118)"/>
</svg>
